{"glyphs":{"0":{"ha":1492,"x_min":0,"x_max":0,"o":"m 96 162 b 154 0 70 90 68 0 l 1335 0 b 1510 162 1421 0 1484 90 l 1884 1190 b 1826 1352 1910 1261 1912 1352 l 646 1352 b 470 1190 559 1352 496 1261 z m 759 39 b 732 117 718 39 719 83 l 1141 1242 b 1225 1319 1154 1276 1184 1319 b 1251 1242 1265 1319 1263 1275 l 842 117 b 759 39 830 83 799 39 z "},"1":{"ha":718,"x_min":0,"x_max":0,"o":"m 1122 1190 b 1065 1352 1149 1261 1151 1352 l 924 1352 b 713 1255 857 1352 772 1307 b 330 802 542 1101 401 1001 l 96 162 b 154 0 70 90 68 0 l 573 0 b 749 162 659 0 722 90 z "},"2":{"ha":1489,"x_min":0,"x_max":0,"o":"m 758 38 b 732 117 718 38 720 84 l 906 597 b 1114 789 937 682 1013 789 l 1598 789 b 1807 981 1699 789 1776 896 l 1872 1160 b 1805 1352 1904 1245 1907 1352 l 631 1352 b 477 1209 556 1352 500 1272 b 528 1068 454 1146 452 1068 l 949 1068 b 1143 1247 1044 1068 1114 1168 b 1224 1319 1156 1283 1183 1319 b 1251 1242 1265 1319 1264 1276 l 1195 1087 b 987 895 1164 1002 1088 895 l 501 895 b 293 703 399 895 324 788 l 107 193 b 176 0 77 107 74 0 l 1313 0 b 1521 193 1415 0 1491 107 l 1605 420 b 1535 612 1636 506 1638 612 l 1160 609 b 951 416 1057 608 982 501 l 840 112 b 758 38 827 76 800 38 z "},"3":{"ha":1480,"x_min":0,"x_max":0,"o":"m 317 450 b 142 288 231 450 168 359 b 155 0 111 203 16 0 l 1337 0 b 1512 162 1423 0 1486 90 l 1658 563 b 1618 789 1718 728 1607 758 b 1670 822 1625 808 1655 817 b 1805 964 1736 840 1784 908 l 1886 1190 b 1828 1352 1912 1261 1914 1352 l 646 1352 b 471 1190 560 1352 497 1261 b 500 950 441 1107 377 950 l 920 950 b 1096 1112 1006 950 1069 1040 l 1143 1242 b 1227 1319 1156 1276 1186 1319 b 1254 1242 1267 1319 1266 1276 l 1142 935 b 997 802 1120 876 1067 802 b 959 766 979 802 964 781 b 984 717 944 724 961 717 b 1021 719 996 717 1009 719 b 1046 670 1044 719 1061 711 l 844 116 b 761 39 831 82 802 39 b 733 116 720 39 721 82 l 795 288 b 737 450 821 359 823 450 z "},"4":{"ha":1492,"x_min":0,"x_max":0,"o":"m 983 656 b 956 732 942 656 943 699 l 1132 1211 b 1082 1352 1154 1273 1156 1352 l 646 1352 b 470 1190 559 1352 496 1261 l 321 779 b 378 616 294 707 292 616 l 886 616 b 955 425 988 616 986 510 l 870 193 b 939 2 839 108 837 2 l 1335 3 b 1512 166 1421 3 1486 94 l 1884 1190 b 1826 1352 1910 1261 1912 1352 l 1393 1352 b 1240 1211 1318 1352 1263 1274 l 1066 733 b 983 656 1054 699 1023 656 z "},"5":{"ha":1485,"x_min":0,"x_max":0,"o":"m 439 723 b 231 531 337 723 262 616 l 107 193 b 176 0 77 107 74 0 l 1313 0 b 1521 193 1415 0 1491 107 l 1715 725 b 1647 917 1746 810 1748 917 l 1161 917 b 1141 1242 1000 917 1105 1142 b 1243 1319 1161 1297 1191 1319 b 1306 1141 1309 1319 1183 1141 l 1791 1141 b 1905 1247 1847 1141 1888 1200 b 1868 1352 1922 1293 1923 1352 l 667 1352 b 460 1160 565 1352 491 1245 b 473 812 424 1059 307 812 l 957 812 b 1025 619 1059 812 1056 705 l 842 116 b 759 39 829 83 799 39 b 731 116 718 39 719 82 l 882 531 b 814 723 913 616 916 723 z "},"6":{"ha":1497,"x_min":0,"x_max":0,"o":"m 74 101 b 110 0 58 56 56 0 l 1379 0 b 1488 101 1432 0 1472 56 l 1737 785 b 1702 886 1753 830 1755 886 l 1084 886 b 1048 987 1031 886 1032 942 l 1140 1238 b 1223 1315 1152 1272 1183 1315 b 1238 1004 1344 1315 1094 1004 l 1744 1004 b 1853 1105 1798 1004 1837 1060 l 1905 1247 b 1870 1348 1921 1292 1923 1348 l 601 1348 b 491 1247 547 1348 507 1292 z m 758 35 b 730 112 717 35 718 78 l 969 770 b 1053 848 982 804 1013 848 b 1080 770 1093 848 1092 804 l 840 112 b 758 35 828 79 798 35 z "},"7":{"ha":1491,"x_min":0,"x_max":0,"o":"m 471 1190 b 519 1002 444 1114 444 1021 l 890 914 b 915 911 898 912 906 911 b 1085 1076 1001 911 1059 1007 l 1145 1243 b 1226 1319 1157 1276 1185 1319 b 1253 1243 1267 1319 1265 1277 l 871 193 b 939 0 840 107 838 0 l 1314 0 b 1522 193 1416 0 1492 107 l 1874 1160 b 1806 1352 1906 1245 1908 1352 l 646 1352 b 471 1190 559 1352 497 1261 z "},"8":{"ha":1480,"x_min":0,"x_max":0,"o":"m 96 162 b 154 0 70 90 68 0 l 1337 0 b 1512 162 1423 0 1486 90 l 1662 574 b 1607 793 1724 743 1595 759 b 1643 819 1613 807 1631 814 b 1765 953 1704 844 1745 897 l 1851 1190 b 1793 1352 1877 1261 1879 1352 l 683 1352 b 507 1190 597 1352 534 1261 l 416 940 b 457 793 373 821 469 824 b 419 761 452 778 433 768 b 234 540 328 711 265 626 z m 936 679 b 1021 757 949 713 979 757 b 1048 679 1062 757 1061 713 l 842 115 b 760 39 829 82 800 39 b 733 115 720 39 721 82 z m 1051 840 b 1023 918 1010 840 1010 884 l 1143 1243 b 1225 1319 1156 1276 1185 1319 b 1252 1243 1265 1319 1264 1276 l 1136 918 b 1051 840 1123 884 1093 840 z "},"9":{"ha":1510,"x_min":0,"x_max":0,"o":"m 1919 1247 b 1883 1348 1935 1292 1937 1348 l 614 1348 b 505 1247 561 1348 521 1292 l 256 563 b 292 462 239 518 238 462 l 909 462 b 945 361 962 462 961 406 l 853 109 b 770 33 840 75 810 33 b 755 344 648 33 900 344 l 249 344 b 140 243 195 344 156 288 l 87 101 b 123 0 71 56 70 0 l 1392 0 b 1501 101 1446 0 1485 56 z m 1236 1313 b 1263 1236 1276 1313 1275 1270 l 1023 578 b 940 500 1011 544 981 500 b 913 578 900 500 901 545 l 1152 1236 b 1236 1313 1164 1269 1196 1313 z "},"\u0000":{"ha":0,"x_min":0,"x_max":0,"o":""},"\r":{"ha":347,"x_min":0,"x_max":0,"o":""}," ":{"ha":625,"x_min":0,"x_max":0,"o":""},"!":{"ha":718,"x_min":0,"x_max":0,"o":"m 734 123 b 690 245 757 184 762 245 l 216 246 b 82 123 143 246 104 184 b 126 -1 60 61 53 -1 l 602 -1 b 734 123 675 -1 712 62 z m 1123 1191 b 1065 1353 1152 1271 1161 1353 l 646 1353 b 471 1191 551 1353 500 1271 l 229 527 b 287 365 199 446 191 365 l 706 365 b 882 527 802 365 852 446 z "},"\"":{"ha":923,"x_min":0,"x_max":0,"o":"m 861 1197 b 650 1360 930 1386 798 1360 b 474 1198 564 1360 500 1270 l 418 1044 b 428 798 387 958 382 854 l 558 639 b 600 616 568 627 581 616 b 686 718 644 616 675 686 z m 1316 1197 b 1105 1360 1385 1386 1254 1360 b 930 1198 1019 1360 956 1270 l 873 1044 b 884 798 842 958 838 854 l 1014 639 b 1055 616 1023 627 1036 616 b 1142 718 1100 616 1131 686 z "},"#":{"ha":1868,"x_min":0,"x_max":0,"o":"m 1413 1282 b 1375 1352 1428 1323 1417 1352 l 1120 1353 b 793 1124 976 1354 939 1124 l 774 1124 b 509 884 661 1124 544 982 b 627 736 449 721 669 851 b 469 599 606 679 534 599 b 257 444 385 599 302 517 b 199 341 237 411 212 376 b 278 200 153 214 320 315 b 224 95 265 164 237 132 b 275 0 203 40 218 0 l 485 0 b 864 267 652 0 694 264 b 979 268 902 267 941 268 b 1023 186 1029 268 1041 234 b 968 81 1010 151 982 117 b 1013 0 951 34 964 0 l 1239 0 b 1620 269 1407 0 1453 269 l 1648 269 b 1904 494 1756 269 1869 399 b 1772 654 1968 671 1727 528 b 1930 793 1794 713 1864 793 b 2147 951 2016 793 2101 877 b 2198 1043 2165 981 2186 1012 b 2111 1178 2245 1175 2071 1068 b 2159 1270 2123 1208 2147 1238 b 2114 1352 2176 1317 2164 1352 l 1875 1353 b 1711 1237 1811 1354 1748 1292 b 1501 1120 1642 1134 1579 1120 b 1404 1122 1472 1120 1440 1122 b 1366 1192 1361 1122 1352 1151 b 1413 1282 1377 1223 1402 1251 z m 1050 597 b 1018 656 1014 597 1005 621 b 1177 792 1040 715 1112 792 l 1347 793 b 1379 733 1383 793 1392 767 b 1220 597 1358 674 1286 597 z "},"$":{"ha":1485,"x_min":0,"x_max":0,"o":"m 378 557 b 107 193 207 557 144 294 b 176 0 77 107 74 0 l 414 0 b 593 -203 532 0 587 -102 l 602 -363 l 744 -194 b 1076 0 827 -96 961 0 l 1313 0 b 1521 193 1415 0 1491 107 l 1655 559 b 1586 751 1686 644 1688 751 l 1101 751 b 1032 943 999 751 1001 858 l 1141 1242 b 1225 1319 1154 1276 1184 1319 b 1252 1242 1265 1319 1264 1276 l 1178 1039 b 1246 846 1147 954 1144 846 l 1621 846 b 1873 1160 1777 846 1837 1059 b 1805 1352 1904 1245 1906 1352 l 1567 1352 b 1375 1724 1366 1352 1378 1575 b 926 1352 1268 1582 1120 1352 l 667 1352 b 460 1160 565 1352 491 1245 l 344 838 b 412 646 313 753 311 646 l 896 646 b 964 454 998 646 996 539 l 842 117 b 759 39 830 83 800 39 b 731 116 718 39 719 82 l 822 365 b 753 557 853 450 855 557 z "},"%":{"ha":1276,"x_min":0,"x_max":0,"o":"m 1479 1272 b 1423 1352 1499 1327 1477 1352 b 1223 1353 1356 1352 1290 1353 b 1009 1202 1131 1353 1061 1282 l 328 151 b 291 81 313 128 300 104 b 347 0 271 24 293 0 l 547 0 b 762 151 639 0 709 71 l 1442 1201 b 1479 1272 1457 1224 1471 1248 z m 856 1190 b 798 1352 886 1270 894 1352 b 645 1353 747 1352 696 1353 b 469 1191 549 1353 498 1271 l 413 1036 b 471 874 384 956 375 874 l 625 874 b 800 1036 720 874 771 956 z m 1354 316 b 1254 481 1407 463 1352 481 b 1143 479 1221 481 1183 479 b 967 317 1047 479 996 397 l 911 162 b 968 0 882 81 873 0 l 1122 0 b 1298 162 1218 0 1269 81 z "},"&":{"ha":1653,"x_min":0,"x_max":0,"o":"m 87 101 b 123 0 71 56 70 0 l 1392 0 b 1501 101 1446 0 1485 56 l 1631 457 b 1765 629 1667 555 1758 608 b 1743 671 1773 648 1753 661 b 1723 793 1706 711 1770 793 l 1135 793 b 1084 745 1110 793 1092 766 b 965 618 1055 663 976 649 b 982 465 958 600 1017 559 l 853 109 b 770 33 841 76 810 33 b 743 111 730 33 730 77 l 1027 890 b 1136 991 1043 935 1082 991 l 1753 991 b 1862 1092 1807 991 1846 1047 l 1919 1247 b 1883 1348 1935 1292 1937 1348 l 614 1348 b 505 1247 561 1348 521 1292 z m 1236 1313 b 1263 1237 1276 1313 1276 1270 l 1215 1105 b 1133 1029 1203 1072 1173 1029 b 1105 1105 1093 1029 1093 1072 l 1153 1237 b 1236 1313 1165 1271 1196 1313 z "},"'":{"ha":471,"x_min":0,"x_max":0,"o":"m 861 1197 b 650 1360 930 1386 798 1360 b 474 1198 564 1360 500 1270 l 418 1044 b 428 798 387 958 382 854 l 558 639 b 600 616 568 627 581 616 b 686 718 644 616 675 686 z "},"(":{"ha":488,"x_min":0,"x_max":0,"o":"m 447 20 b 425 42 453 37 442 42 b 351 37 404 42 374 37 b 317 83 323 37 303 45 l 751 1276 b 820 1322 765 1314 791 1322 b 890 1316 844 1322 869 1316 b 926 1336 907 1316 920 1320 b 920 1352 928 1343 928 1352 l 560 1352 b 513 1308 537 1352 521 1328 l 53 43 b 68 0 46 24 45 0 l 425 0 b 447 20 436 0 444 11 z "},")":{"ha":522,"x_min":0,"x_max":0,"o":"m 67 20 b 74 0 64 11 63 0 l 431 0 b 477 43 454 0 471 24 l 938 1308 b 922 1352 945 1328 945 1352 l 563 1352 b 546 1336 555 1352 549 1343 b 567 1316 540 1320 550 1316 b 642 1322 587 1316 618 1322 b 677 1276 671 1322 690 1314 l 242 83 b 174 37 229 45 203 37 b 106 42 151 37 126 42 b 67 20 88 42 73 37 z "},"*":{"ha":1617,"x_min":0,"x_max":0,"o":"m 569 1371 b 1074 1206 759 1372 1017 1383 b 896 353 1136 1010 968 585 b 1356 1201 993 591 1131 1005 b 2026 1371 1533 1357 1839 1356 b 1930 1370 1994 1371 1962 1370 b 1477 1535 1754 1370 1537 1383 b 1620 2344 1404 1716 1549 2123 b 1206 1552 1532 2133 1398 1725 b 569 1371 1024 1388 758 1381 z "},"+":{"ha":815,"x_min":0,"x_max":0,"o":"m 1048 769 b 1006 890 1067 823 1070 890 l 937 890 b 867 1177 781 890 1023 1177 l 785 1177 b 507 891 630 1177 663 891 l 437 891 b 307 770 374 891 327 823 l 266 655 b 421 415 180 421 505 647 b 419 174 398 353 309 174 l 502 174 b 676 415 612 174 653 353 b 1007 655 760 647 922 421 z "},",":{"ha":451,"x_min":0,"x_max":0,"o":"m 540 316 b 424 480 593 464 526 480 b 328 479 394 480 361 479 b 153 317 242 479 179 389 l 96 162 b 106 -84 65 77 60 -28 l 237 -242 b 278 -266 246 -254 259 -266 b 365 -164 323 -266 353 -195 z "},"-":{"ha":1072,"x_min":0,"x_max":0,"o":"m 1329 802 b 1271 964 1354 874 1357 964 l 506 965 b 330 803 420 965 357 875 l 274 648 b 332 486 248 576 245 486 l 1097 486 b 1272 648 1183 486 1246 576 z "},".":{"ha":451,"x_min":0,"x_max":0,"o":"m 540 316 b 424 480 593 464 526 480 b 328 479 394 480 361 479 b 153 317 242 479 179 389 l 96 162 b 154 0 70 90 68 0 l 308 0 b 484 162 394 0 457 90 z "},"/":{"ha":919,"x_min":0,"x_max":0,"o":"m 1280 1260 b 1230 1352 1299 1313 1285 1352 b 1030 1353 1163 1352 1097 1353 b 816 1202 947 1353 863 1274 l 135 151 b 104 92 123 132 111 111 b 154 0 85 39 98 0 l 354 0 b 568 151 437 0 522 79 l 1249 1201 b 1280 1260 1261 1220 1273 1240 z "},":":{"ha":451,"x_min":0,"x_max":0,"o":"m 540 316 b 424 480 593 464 526 480 b 328 479 394 480 361 479 b 153 317 242 479 179 389 l 96 162 b 154 0 70 90 68 0 l 308 0 b 484 162 394 0 457 90 z m 864 1208 b 749 1372 918 1356 850 1372 b 653 1371 719 1372 686 1371 b 477 1208 567 1371 503 1280 l 421 1054 b 479 892 395 982 393 892 l 633 892 b 808 1054 719 892 782 982 z "},";":{"ha":451,"x_min":0,"x_max":0,"o":"m 540 316 b 424 480 593 464 526 480 b 328 479 394 480 361 479 b 153 317 242 479 179 389 l 96 162 b 106 -84 65 77 60 -28 l 237 -242 b 278 -266 246 -254 259 -266 b 365 -164 323 -266 353 -195 z m 864 1208 b 749 1372 918 1356 850 1372 b 653 1371 719 1372 686 1371 b 477 1208 567 1371 503 1280 l 421 1054 b 479 892 395 982 393 892 l 633 892 b 808 1054 719 892 782 982 z "},"<":{"ha":979,"x_min":0,"x_max":0,"o":"m 1362 1295 b 1310 1351 1377 1337 1347 1351 l 1131 1352 b 873 1218 1045 1352 942 1288 l 380 715 b 304 597 346 680 319 638 b 302 465 286 549 286 502 l 461 123 b 642 7 490 60 557 7 l 821 7 b 904 50 849 7 890 14 b 895 123 913 75 903 103 l 737 466 b 739 597 720 503 721 550 b 815 715 753 640 781 680 l 1305 1217 b 1362 1295 1328 1240 1352 1267 z "},"=":{"ha":1072,"x_min":0,"x_max":0,"o":"m 1423 1064 b 1366 1226 1450 1136 1452 1226 l 602 1227 b 426 1065 515 1227 452 1137 l 370 911 b 427 749 343 839 341 749 l 1192 749 b 1368 911 1278 749 1341 839 z m 1196 440 b 1139 602 1223 512 1225 602 l 374 604 b 199 441 288 604 225 513 l 142 287 b 200 124 116 215 114 124 l 965 124 b 1141 287 1051 124 1114 215 z "},">":{"ha":997,"x_min":0,"x_max":0,"o":"m 115 63 b 167 7 100 21 130 7 l 347 7 b 604 140 432 7 535 71 l 1097 644 b 1173 762 1131 679 1158 720 b 1175 894 1191 810 1192 857 l 1016 1236 b 836 1352 987 1299 920 1352 l 656 1352 b 573 1309 628 1352 587 1345 b 583 1236 564 1283 574 1255 l 740 892 b 739 761 757 855 756 808 b 662 643 724 719 696 678 l 172 141 b 115 63 149 118 125 91 z "},"?":{"ha":1491,"x_min":0,"x_max":0,"o":"m 1163 123 b 1119 246 1185 185 1192 246 l 644 247 b 511 123 572 247 533 184 b 555 0 488 62 481 0 l 1030 0 b 1163 123 1103 0 1141 63 z m 460 1160 b 529 964 425 1064 415 964 l 906 964 b 1227 1319 1141 963 1097 1319 b 1253 1243 1271 1319 1267 1280 l 1186 1059 b 996 883 1154 970 1100 883 b 925 884 972 883 949 884 b 733 709 821 886 765 795 l 688 583 b 755 391 653 488 641 391 l 1131 391 b 1544 809 1385 391 1310 809 b 1617 807 1568 809 1592 807 b 1809 979 1727 807 1776 886 l 1875 1160 b 1806 1352 1910 1255 1919 1352 l 667 1352 b 460 1160 553 1352 495 1255 z "},"@":{"ha":1444,"x_min":0,"x_max":0,"o":"m 1175 820 b 1187 791 1191 820 1193 805 b 1156 763 1183 779 1171 763 b 747 768 1019 763 883 766 b 735 797 731 768 730 783 b 767 824 740 810 751 824 z m 1128 1247 b 1072 1225 1110 1247 1089 1238 l 514 798 b 489 765 503 789 493 777 b 488 736 485 754 486 745 l 692 191 b 745 150 700 168 716 150 b 817 179 768 150 795 162 l 1514 709 b 1568 777 1538 727 1558 751 b 1566 841 1576 800 1575 823 l 1268 1449 b 1219 1480 1260 1466 1243 1480 b 1152 1451 1196 1480 1172 1467 l 362 833 b 307 762 337 814 317 789 b 305 696 298 738 299 715 l 592 -100 b 639 -136 600 -119 614 -136 b 705 -107 661 -136 685 -123 l 1617 600 b 1643 633 1630 609 1638 621 b 1601 741 1653 661 1628 741 b 1571 728 1592 741 1581 735 l 798 144 b 732 117 777 129 754 117 b 684 152 707 117 691 133 l 477 701 b 478 766 470 720 469 742 b 533 836 488 792 508 817 l 1078 1248 b 1145 1276 1098 1263 1123 1276 b 1194 1243 1171 1276 1185 1261 l 1385 842 b 1387 777 1394 823 1395 800 b 1333 709 1377 751 1357 727 l 888 374 b 816 344 866 357 840 344 b 762 385 787 344 770 363 b 648 692 724 486 677 585 b 774 410 654 690 774 412 b 824 376 783 391 798 376 b 890 403 846 376 870 387 l 1303 710 b 1356 777 1327 728 1347 752 b 1354 842 1364 801 1363 824 l 1170 1221 b 1128 1247 1162 1236 1149 1247 z "},"A":{"ha":1478,"x_min":0,"x_max":0,"o":"m 1330 -2 b 1506 160 1415 -3 1480 89 l 1879 1187 b 1822 1350 1906 1260 1908 1350 l 641 1352 b 465 1190 555 1352 492 1261 l 92 162 b 149 0 65 90 63 0 l 568 0 b 929 520 798 0 782 520 b 911 0 1075 520 682 1 z m 950 578 b 922 654 909 578 910 621 l 1137 1242 b 1220 1319 1149 1276 1179 1319 b 1247 1242 1261 1319 1259 1276 l 1033 654 b 950 578 1021 621 991 578 z "},"B":{"ha":1496,"x_min":0,"x_max":0,"o":"m 104 176 b 166 0 75 98 73 0 l 1326 0 b 1518 176 1420 0 1489 98 l 1653 549 b 1628 711 1676 611 1677 684 b 1580 749 1618 717 1575 734 b 1607 766 1584 759 1599 763 b 1714 883 1662 788 1697 834 l 1821 1175 b 1758 1352 1849 1253 1851 1352 l 658 1352 b 467 1175 564 1352 496 1253 z m 761 39 b 733 116 720 39 721 82 l 937 675 b 1020 751 949 709 979 751 b 1046 673 1061 751 1059 707 l 844 117 b 761 39 831 83 802 39 z m 1035 792 b 1008 869 994 792 995 835 l 1143 1242 b 1227 1319 1156 1276 1186 1319 b 1253 1242 1267 1319 1266 1276 l 1118 868 b 1035 792 1105 834 1076 792 z "},"C":{"ha":1480,"x_min":0,"x_max":0,"o":"m 1147 636 b 972 474 1061 636 998 546 l 842 116 b 759 39 829 82 800 39 b 732 117 718 39 719 83 l 1141 1242 b 1225 1319 1154 1276 1184 1319 b 1251 1242 1265 1319 1264 1276 l 1125 894 b 1183 732 1099 822 1097 732 l 1599 732 b 1775 894 1685 732 1748 822 l 1882 1190 b 1824 1352 1908 1261 1910 1352 l 646 1352 b 470 1190 559 1352 496 1261 l 96 162 b 154 0 70 90 68 0 l 1333 0 b 1508 162 1419 0 1482 90 l 1622 474 b 1564 636 1648 546 1650 636 z "},"D":{"ha":1463,"x_min":0,"x_max":0,"o":"m 96 162 b 154 0 70 90 68 0 l 1334 0 b 1510 162 1420 0 1483 90 l 1702 692 b 1709 957 1735 781 1744 888 l 1558 1249 b 1389 1352 1531 1305 1465 1352 l 646 1352 b 470 1190 559 1352 496 1261 z m 759 39 b 732 117 718 39 719 83 l 1141 1242 b 1225 1319 1154 1276 1184 1319 b 1251 1242 1265 1319 1264 1276 l 842 117 b 759 39 829 83 800 39 z "},"E":{"ha":1480,"x_min":0,"x_max":0,"o":"m 1080 450 b 905 288 994 450 931 359 l 842 116 b 759 39 829 82 800 39 b 731 116 718 39 719 82 l 895 566 b 1027 651 924 644 962 651 b 1062 692 1048 651 1057 677 b 1047 734 1069 711 1069 734 b 1002 861 981 734 982 805 l 1141 1242 b 1225 1319 1154 1276 1184 1319 b 1251 1242 1265 1319 1264 1276 l 1204 1112 b 1262 950 1178 1040 1176 950 l 1682 950 b 1885 1190 1805 950 1855 1107 b 1828 1352 1912 1261 1914 1352 l 646 1352 b 470 1190 559 1352 496 1261 l 96 162 b 154 0 70 90 68 0 l 1336 0 b 1558 288 1474 0 1527 203 b 1500 450 1584 359 1586 450 z "},"F":{"ha":1480,"x_min":0,"x_max":0,"o":"m 1062 692 b 1047 734 1069 711 1069 734 b 1002 861 981 734 982 805 l 1141 1242 b 1225 1319 1154 1276 1184 1319 b 1251 1242 1265 1319 1263 1275 l 1204 1112 b 1262 950 1178 1040 1176 950 l 1681 950 b 1884 1190 1804 950 1854 1107 b 1826 1352 1910 1261 1912 1352 l 646 1352 b 470 1190 559 1352 496 1261 l -41 -215 b -24 -454 -71 -298 -75 -402 l 301 -783 b 342 -804 311 -793 324 -804 b 435 -698 391 -804 422 -732 l 896 568 b 1027 651 924 645 962 651 b 1062 692 1048 651 1057 677 z "},"G":{"ha":1480,"x_min":0,"x_max":0,"o":"m 991 663 b 1016 594 979 631 1041 663 l 842 117 b 759 39 829 83 800 39 b 732 117 718 39 719 83 l 1141 1242 b 1225 1319 1154 1276 1184 1319 b 1224 846 1365 1319 1002 846 l 1643 846 b 1818 1008 1729 846 1792 937 l 1884 1190 b 1826 1352 1910 1261 1912 1352 l 646 1352 b 470 1190 559 1352 496 1261 l 96 162 b 154 0 70 90 68 0 l 698 0 b 748 -141 773 0 771 -78 b 743 -396 715 -232 690 -334 l 1067 -779 b 1109 -802 1078 -790 1090 -802 b 1197 -699 1154 -802 1185 -730 l 1666 589 b 1608 751 1692 661 1694 751 l 1061 751 b 991 663 1017 751 1002 691 z "},"H":{"ha":1474,"x_min":0,"x_max":0,"o":"m 1015 757 b 988 834 975 757 975 800 l 1117 1189 b 1059 1351 1143 1261 1145 1351 l 641 1352 b 465 1190 555 1352 492 1261 l 92 162 b 149 0 65 90 63 0 l 568 0 b 743 162 654 0 717 90 l 911 622 b 994 699 923 656 954 699 b 1021 622 1035 699 1034 656 l 854 162 b 911 0 827 90 825 0 l 1331 0 b 1506 162 1417 0 1480 90 l 1880 1190 b 1822 1352 1906 1261 1908 1352 l 1403 1352 b 1227 1190 1317 1352 1254 1261 l 1099 834 b 1015 757 1086 800 1056 757 z "},"I":{"ha":718,"x_min":0,"x_max":0,"o":"m 1122 1190 b 1065 1352 1149 1261 1151 1352 l 646 1353 b 471 1191 560 1353 497 1263 l 96 162 b 154 0 70 90 68 0 l 573 0 b 749 162 659 0 722 90 z "},"J":{"ha":732,"x_min":0,"x_max":0,"o":"m 1122 1190 b 1065 1352 1149 1261 1151 1352 l 646 1352 b 469 1190 559 1352 496 1261 l -55 -222 b -40 -460 -87 -307 -92 -408 l 286 -790 b 327 -810 296 -800 309 -810 b 422 -703 376 -810 409 -738 z "},"K":{"ha":1502,"x_min":0,"x_max":0,"o":"m 1022 757 b 995 833 981 757 983 800 l 1257 1554 b 1242 1792 1288 1638 1293 1740 l 916 2125 b 874 2145 905 2135 892 2145 b 782 2039 827 2145 795 2073 l 99 162 b 157 0 73 90 71 0 l 575 0 b 751 162 661 0 724 90 l 918 622 b 1001 699 930 656 960 699 b 1029 622 1042 699 1041 656 l 722 -220 b 743 -452 692 -303 688 -404 l 1079 -743 b 1119 -760 1090 -751 1103 -760 b 1218 -650 1171 -760 1204 -687 l 1611 431 b 1564 669 1645 523 1648 637 b 1395 762 1544 677 1381 723 b 1563 827 1407 796 1538 821 b 1830 1190 1731 871 1787 1070 b 1773 1352 1857 1261 1859 1352 l 1411 1352 b 1235 1190 1324 1352 1261 1261 l 1106 834 b 1022 757 1093 800 1063 757 z "},"L":{"ha":1479,"x_min":0,"x_max":0,"o":"m 873 2144 b 779 2038 824 2144 791 2072 l 96 162 b 154 0 70 90 68 -1 l 1333 5 b 1508 167 1419 5 1482 94 l 1653 565 b 1596 728 1679 637 1681 727 l 1153 730 b 1021 610 1088 731 1041 664 l 842 117 b 759 39 829 83 800 39 b 731 116 718 39 719 82 l 1244 1526 b 1225 1809 1280 1626 1286 1747 l 913 2124 b 873 2144 903 2134 890 2144 z "},"M":{"ha":2258,"x_min":0,"x_max":0,"o":"m 1478 -220 b 1501 -497 1442 -318 1438 -439 l 1805 -775 b 1854 -796 1817 -787 1834 -796 b 1969 -667 1914 -796 1953 -711 l 2633 1160 b 2565 1352 2665 1245 2667 1352 l 667 1352 b 459 1160 566 1352 490 1245 l 107 193 b 176 0 77 107 74 0 l 551 0 b 759 193 652 0 728 107 l 1141 1243 b 1224 1319 1154 1276 1184 1319 b 1251 1243 1264 1319 1263 1276 l 866 193 b 935 0 836 107 833 0 l 1312 0 b 1520 193 1414 0 1490 107 l 1903 1242 b 1986 1319 1915 1276 1945 1319 b 2013 1242 2026 1319 2025 1276 z "},"N":{"ha":1491,"x_min":0,"x_max":0,"o":"m 1874 1160 b 1806 1352 1906 1245 1908 1352 l 667 1352 b 459 1160 566 1352 490 1245 l 107 193 b 176 0 77 107 74 0 l 551 0 b 759 193 652 0 728 107 l 1141 1243 b 1224 1319 1154 1276 1184 1319 b 1251 1243 1264 1319 1263 1276 l 716 -220 b 739 -498 680 -319 675 -439 l 1044 -776 b 1093 -797 1057 -787 1072 -797 b 1207 -669 1152 -797 1192 -712 z "},"O":{"ha":1492,"x_min":0,"x_max":0,"o":"m 96 162 b 154 0 70 90 68 0 l 1335 0 b 1510 162 1421 0 1484 90 l 1884 1190 b 1826 1352 1910 1261 1912 1352 l 646 1352 b 470 1190 559 1352 496 1261 z m 759 39 b 732 117 718 39 719 83 l 1141 1242 b 1225 1319 1154 1276 1184 1319 b 1251 1242 1265 1319 1264 1276 l 842 117 b 759 39 829 83 800 39 z "},"P":{"ha":1499,"x_min":0,"x_max":0,"o":"m -42 -218 b -26 -457 -73 -302 -77 -405 l 286 -773 b 334 -797 298 -785 313 -797 b 445 -671 391 -797 430 -712 l 618 -193 b 827 0 649 -107 725 0 l 1335 0 b 1510 162 1421 0 1484 90 l 1884 1190 b 1826 1352 1910 1261 1912 1352 l 646 1352 b 470 1190 559 1352 496 1261 z m 759 39 b 732 117 718 39 719 83 l 1141 1242 b 1225 1319 1154 1276 1184 1319 b 1251 1242 1265 1319 1264 1276 l 842 117 b 759 39 829 83 800 39 z "},"Q":{"ha":1485,"x_min":0,"x_max":0,"o":"m 1884 1190 b 1826 1352 1910 1261 1912 1352 l 646 1352 b 470 1190 559 1352 496 1261 l 96 162 b 154 0 70 90 68 0 l 684 0 b 741 -162 770 0 767 -90 b 752 -406 709 -248 705 -350 l 1068 -778 b 1109 -801 1077 -789 1090 -801 b 1197 -699 1155 -801 1185 -730 z m 758 39 b 732 117 718 39 720 83 l 1141 1242 b 1224 1319 1153 1275 1184 1319 b 1251 1242 1265 1319 1264 1276 l 842 117 b 758 39 829 83 799 39 z "},"R":{"ha":1482,"x_min":0,"x_max":0,"o":"m 1329 -7 b 1505 155 1415 -7 1479 84 l 1612 450 b 1562 682 1645 541 1649 653 b 1495 721 1548 687 1489 702 b 1554 745 1501 736 1544 743 b 1727 919 1640 764 1699 844 l 1823 1183 b 1765 1345 1849 1255 1851 1345 l 641 1347 b 465 1185 555 1347 491 1257 l 91 157 b 149 -5 65 85 62 -5 l 567 -5 b 743 157 653 -5 717 85 l 905 604 b 989 681 918 637 948 681 b 1016 604 1029 681 1028 637 l 853 157 b 911 -5 827 85 825 -4 z m 1010 738 b 982 814 969 738 970 781 l 1136 1238 b 1219 1314 1148 1272 1179 1314 b 1246 1238 1260 1314 1259 1272 l 1093 814 b 1010 738 1080 781 1050 738 z "},"S":{"ha":1485,"x_min":0,"x_max":0,"o":"m 378 557 b 170 365 277 557 201 450 l 107 193 b 176 0 77 107 74 0 l 1313 0 b 1521 193 1415 0 1491 107 l 1655 559 b 1586 751 1686 644 1688 751 l 1101 751 b 1032 943 999 751 1001 858 l 1141 1242 b 1225 1319 1154 1276 1184 1319 b 1252 1242 1265 1319 1264 1276 l 1178 1039 b 1246 846 1147 954 1144 846 l 1621 846 b 1873 1160 1777 846 1837 1059 b 1805 1352 1904 1245 1906 1352 l 667 1352 b 460 1160 566 1352 491 1244 l 344 838 b 412 646 313 753 311 646 l 896 646 b 964 454 998 646 996 539 l 842 117 b 759 39 829 83 800 39 b 731 116 718 39 719 82 l 822 365 b 753 557 853 450 855 557 z "},"T":{"ha":1034,"x_min":0,"x_max":0,"o":"m 736 1905 b 775 1856 720 1860 744 1856 b 846 1772 821 1856 880 1866 l -41 -667 b -22 -793 -56 -708 -79 -793 b 43 -769 -1 -793 22 -781 l 562 -467 b 786 -184 666 -406 750 -283 l 1494 1760 b 1598 1856 1510 1803 1548 1857 l 1627 1855 b 1688 1911 1658 1855 1678 1885 b 1673 1952 1694 1929 1695 1952 l 789 1954 b 736 1905 764 1954 744 1927 z "},"U":{"ha":1497,"x_min":0,"x_max":0,"o":"m 107 193 b 176 0 77 107 74 0 l 1314 0 b 1522 193 1416 0 1492 107 l 1874 1160 b 1806 1352 1906 1245 1908 1352 l 1431 1352 b 1223 1160 1329 1352 1254 1245 l 840 109 b 758 33 828 75 798 33 b 731 109 718 33 719 75 l 1116 1160 b 1047 1352 1147 1245 1149 1352 l 669 1352 b 461 1160 568 1352 492 1245 z "},"V":{"ha":1485,"x_min":0,"x_max":0,"o":"m 755 33 b 728 109 715 33 716 76 l 1110 1160 b 1042 1352 1141 1245 1143 1352 l 646 1352 b 470 1190 559 1352 496 1261 l 277 660 b 271 395 245 571 236 463 l 421 103 b 591 0 450 47 514 0 l 1334 0 b 1510 162 1420 0 1483 90 l 1883 1190 b 1826 1352 1910 1261 1912 1352 l 1429 1352 b 1221 1160 1327 1352 1252 1245 l 839 109 b 755 33 826 75 795 33 z "},"W":{"ha":2256,"x_min":0,"x_max":0,"o":"m 288 690 b 281 376 250 584 240 457 l 411 121 b 612 0 445 55 522 0 l 2075 0 b 2283 193 2176 0 2252 107 l 2635 1160 b 2566 1352 2666 1245 2668 1352 l 2191 1352 b 1983 1160 2089 1352 2014 1245 l 1600 109 b 1519 33 1588 75 1559 33 b 1491 109 1479 33 1479 75 l 1876 1160 b 1807 1352 1907 1245 1909 1352 l 1429 1352 b 1221 1160 1327 1352 1252 1245 l 838 109 b 755 33 825 76 795 33 b 728 109 715 33 716 76 l 1110 1160 b 1042 1352 1141 1245 1143 1352 l 667 1352 b 459 1160 566 1352 490 1245 z "},"X":{"ha":1491,"x_min":0,"x_max":0,"o":"m 1015 757 b 988 834 975 757 975 800 l 1117 1190 b 1059 1352 1143 1261 1145 1352 l 641 1351 b 465 1189 555 1351 492 1261 l 411 1039 b 511 757 365 913 361 757 l 907 757 b 918 730 922 757 922 742 b 888 701 913 718 903 701 l 403 699 b 227 537 317 699 254 610 l 92 162 b 149 0 65 90 63 0 l 568 0 b 743 162 654 0 717 90 l 911 622 b 994 699 923 656 954 699 b 1021 622 1035 699 1034 656 l 854 162 b 911 0 827 90 825 0 l 1331 0 b 1506 162 1417 0 1480 90 l 1599 418 b 1499 699 1645 543 1649 699 l 1099 699 b 1089 728 1084 699 1084 716 b 1120 757 1093 741 1105 757 l 1520 757 b 1826 1039 1670 757 1780 913 l 1880 1190 b 1822 1352 1906 1261 1908 1352 l 1403 1352 b 1227 1190 1317 1352 1254 1261 l 1099 834 b 1015 757 1086 800 1056 757 z "},"Y":{"ha":1485,"x_min":0,"x_max":0,"o":"m 758 39 b 732 117 718 39 719 83 l 1145 1251 b 1108 1352 1161 1296 1161 1352 l 646 1352 b 470 1190 559 1352 496 1261 l 96 162 b 154 0 70 90 68 0 l 684 0 b 741 -162 770 0 767 -90 b 752 -406 709 -248 705 -349 l 1068 -778 b 1109 -801 1078 -789 1091 -801 b 1198 -699 1156 -801 1186 -730 l 1891 1190 b 1834 1352 1917 1261 1919 1352 l 1364 1352 b 1256 1251 1312 1352 1272 1296 l 842 117 b 758 39 829 83 799 39 z "},"Z":{"ha":1489,"x_min":0,"x_max":0,"o":"m 758 38 b 732 117 718 38 720 84 l 854 454 b 1062 646 885 539 960 646 l 1546 646 b 1755 838 1647 646 1724 753 l 1872 1160 b 1805 1352 1904 1244 1906 1352 l 667 1352 b 444 1117 542 1352 478 1211 b 512 925 413 1031 410 925 l 887 925 b 1095 1117 989 925 1065 1031 l 1141 1242 b 1224 1319 1154 1276 1183 1319 b 1252 1242 1265 1319 1264 1276 l 1143 943 b 935 751 1112 858 1036 751 l 449 751 b 241 559 347 751 272 644 l 107 193 b 176 0 77 107 74 0 l 1313 0 b 1552 277 1457 0 1516 179 b 1484 469 1583 362 1586 469 l 1107 466 b 899 273 1006 465 930 357 l 840 112 b 758 38 827 76 800 38 z "},"[":{"ha":488,"x_min":0,"x_max":0,"o":"m 447 20 b 425 42 453 37 442 42 b 351 37 404 42 374 37 b 317 83 323 37 303 45 l 751 1276 b 820 1322 765 1314 791 1322 b 890 1316 844 1322 869 1316 b 926 1336 907 1316 920 1320 b 920 1352 928 1343 928 1352 l 560 1352 b 513 1308 537 1352 521 1328 l 53 43 b 68 0 46 24 45 0 l 425 0 b 447 20 436 0 444 11 z "},"\\":{"ha":980,"x_min":0,"x_max":0,"o":"m 562 1201 l 477 151 b 582 0 471 79 499 0 l 782 0 b 911 151 864 0 905 78 l 995 1202 b 890 1353 1001 1274 973 1353 b 690 1352 824 1353 756 1352 b 562 1201 607 1352 567 1274 z "},"]":{"ha":522,"x_min":0,"x_max":0,"o":"m 67 20 b 74 0 64 11 63 0 l 431 0 b 477 43 454 0 471 24 l 938 1308 b 922 1352 945 1328 945 1352 l 563 1352 b 546 1336 555 1352 549 1343 b 567 1316 540 1320 550 1316 b 642 1322 587 1316 618 1322 b 677 1276 671 1322 690 1314 l 242 83 b 174 37 229 45 203 37 b 106 42 151 37 126 42 b 67 20 88 42 73 37 z "},"^":{"ha":882,"x_min":0,"x_max":0,"o":"m 924 1694 b 769 1578 856 1694 804 1638 l 459 1046 b 436 999 450 1030 441 1015 b 479 930 420 954 433 930 l 593 930 b 745 1047 663 930 711 986 l 895 1322 b 939 1381 900 1330 927 1381 b 941 1322 951 1381 942 1331 l 895 1046 b 963 930 885 986 894 930 l 1082 930 b 1187 1046 1151 930 1179 987 l 1266 1577 b 1196 1694 1276 1638 1266 1694 z "},"_":{"ha":1072,"x_min":0,"x_max":0,"o":"m 1154 323 b 1097 486 1180 395 1183 486 l 332 486 b 156 324 245 486 182 396 l 100 170 b 157 7 73 98 71 7 l 922 7 b 1098 170 1008 7 1072 98 z "},"`":{"ha":469,"x_min":0,"x_max":0,"o":"m 987 1543 b 975 1645 998 1574 1019 1645 b 916 1622 956 1645 933 1633 l 670 1463 b 481 1217 581 1405 512 1303 l 425 1063 b 482 900 399 991 396 900 b 812 1063 631 900 743 874 z "},"a":{"ha":1497,"x_min":0,"x_max":0,"o":"m 1905 1247 b 1870 1348 1921 1292 1923 1348 l 601 1348 b 491 1247 547 1348 507 1292 l 403 1004 b 439 903 387 959 385 903 l 945 903 b 1223 1315 1103 903 1089 1315 b 1250 1238 1263 1315 1262 1272 l 1122 886 b 1013 785 1106 842 1066 785 l 395 785 b 286 684 342 785 302 729 l 74 101 b 110 0 58 56 56 0 l 1379 0 b 1488 101 1432 0 1472 56 z m 757 35 b 730 111 716 35 717 77 l 933 670 b 1016 747 945 704 975 747 b 1044 670 1057 747 1056 704 l 840 111 b 757 35 827 77 798 35 z "},"b":{"ha":1492,"x_min":0,"x_max":0,"o":"m 100 172 b 157 10 74 100 71 10 l 1338 10 b 1514 172 1424 10 1488 100 l 1888 1200 b 1830 1362 1914 1272 1917 1362 l 1322 1362 b 1254 1554 1221 1362 1223 1469 l 1420 2009 b 1401 2134 1435 2049 1458 2134 b 1335 2110 1380 2134 1356 2123 l 793 1795 b 604 1556 706 1744 634 1639 z m 1226 1322 b 1253 1245 1266 1322 1265 1278 l 844 121 b 760 43 831 87 800 43 b 733 121 720 43 721 87 l 1142 1245 b 1226 1322 1154 1279 1185 1322 z "},"c":{"ha":1524,"x_min":0,"x_max":0,"o":"m 1137 564 b 775 39 907 564 921 39 b 748 117 734 39 735 83 l 1157 1242 b 1241 1319 1170 1276 1200 1319 b 1268 1242 1282 1319 1280 1276 l 1115 821 b 1173 659 1088 749 1086 659 l 1589 659 b 1765 821 1675 659 1738 749 l 1898 1190 b 1841 1352 1925 1261 1927 1352 l 662 1352 b 486 1190 576 1352 513 1261 l 113 162 b 170 0 86 90 84 0 l 1349 0 b 1525 162 1435 0 1498 90 l 1611 401 b 1554 564 1638 473 1640 564 z "},"d":{"ha":1489,"x_min":0,"x_max":0,"o":"m 2194 2040 b 2181 2142 2205 2072 2226 2142 b 2122 2119 2162 2142 2140 2131 l 1536 1747 b 1347 1503 1447 1691 1378 1589 b 1172 1341 1320 1432 1258 1341 l 642 1341 b 467 1179 556 1341 493 1251 l 93 152 b 151 -10 66 80 64 -10 l 1331 -10 b 1507 152 1417 -10 1480 80 z m 1218 1302 b 1245 1225 1259 1302 1258 1259 l 836 100 b 752 22 823 66 793 22 b 726 100 711 22 713 66 l 1135 1225 b 1218 1302 1147 1259 1177 1302 z "},"e":{"ha":1492,"x_min":0,"x_max":0,"o":"m 74 101 b 110 0 58 56 56 0 l 1379 0 b 1488 101 1432 0 1472 56 l 1577 344 b 1541 445 1593 389 1594 445 l 1034 445 b 757 33 876 445 890 33 b 729 111 716 33 717 77 l 857 462 b 966 563 873 507 913 563 l 1584 563 b 1693 664 1637 563 1676 619 l 1905 1247 b 1870 1348 1921 1292 1923 1348 l 601 1348 b 491 1247 547 1348 507 1292 z m 1223 1313 b 1250 1237 1263 1313 1262 1271 l 1046 677 b 964 602 1034 644 1004 602 b 936 677 923 602 923 643 l 1139 1237 b 1223 1313 1152 1272 1182 1313 z "},"f":{"ha":962,"x_min":0,"x_max":0,"o":"m 1394 1331 b 1383 1359 1398 1343 1398 1359 l 1300 1359 b 1242 1521 1214 1359 1217 1449 l 1337 1782 b 1513 1944 1364 1853 1427 1944 l 1605 1944 b 1623 1961 1614 1944 1621 1954 b 1617 1977 1626 1967 1626 1977 l 873 1977 b 698 1815 787 1977 724 1887 l -41 -215 b -24 -454 -72 -299 -76 -402 l 301 -783 b 342 -803 311 -793 325 -803 b 435 -698 391 -803 422 -732 l 1104 1141 b 1280 1303 1131 1213 1194 1303 l 1363 1303 b 1394 1331 1378 1303 1390 1319 z "},"g":{"ha":1487,"x_min":0,"x_max":0,"o":"m 991 663 b 1016 594 979 631 1041 663 l 842 117 b 759 39 829 83 800 39 b 732 117 718 39 719 83 l 1141 1242 b 1225 1319 1154 1276 1184 1319 b 1224 846 1364 1319 1002 846 l 1643 846 b 1818 1008 1729 846 1792 937 l 1884 1190 b 1826 1352 1910 1261 1912 1352 l 646 1352 b 470 1190 559 1352 496 1261 l 96 162 b 154 0 70 90 68 0 l 1335 0 b 1510 162 1421 0 1484 90 l 1666 589 b 1608 751 1692 661 1694 751 l 1061 751 b 991 663 1017 751 1002 691 z "},"h":{"ha":1504,"x_min":0,"x_max":0,"o":"m 1230 1312 b 1257 1235 1270 1312 1269 1269 l 844 101 b 880 0 827 56 826 0 l 1342 0 b 1518 162 1428 0 1491 90 l 1891 1190 b 1834 1352 1918 1261 1920 1352 l 1304 1352 b 1247 1514 1218 1352 1221 1442 b 1236 1757 1279 1600 1284 1701 l 920 2129 b 878 2153 910 2141 897 2153 b 790 2050 833 2153 802 2082 l 97 162 b 154 0 71 90 68 0 l 623 0 b 732 101 677 0 716 56 l 1146 1235 b 1230 1312 1158 1269 1189 1312 z "},"i":{"ha":718,"x_min":0,"x_max":0,"o":"m 1122 1190 b 1065 1352 1149 1261 1151 1352 l 646 1353 b 471 1191 560 1353 497 1263 l 96 162 b 154 0 70 90 68 0 l 573 0 b 749 162 659 0 722 90 z "},"j":{"ha":732,"x_min":0,"x_max":0,"o":"m 1122 1190 b 1065 1352 1149 1261 1151 1352 l 646 1352 b 469 1190 559 1352 496 1261 l -55 -222 b -40 -460 -87 -307 -92 -408 l 286 -790 b 327 -810 296 -800 309 -810 b 422 -703 376 -810 409 -738 z "},"k":{"ha":1502,"x_min":0,"x_max":0,"o":"m 1022 757 b 995 833 981 757 983 800 l 1257 1554 b 1242 1792 1288 1638 1293 1740 l 916 2125 b 874 2145 905 2135 892 2145 b 782 2039 827 2145 795 2073 l 99 162 b 157 0 73 90 71 0 l 575 0 b 751 162 661 0 724 90 l 918 622 b 1001 699 930 656 960 699 b 1029 622 1042 699 1041 656 l 861 162 b 919 0 835 90 833 0 l 1338 0 b 1514 162 1424 0 1487 90 l 1611 431 b 1564 669 1645 523 1648 637 b 1395 762 1544 677 1381 723 b 1563 827 1407 796 1538 821 b 1830 1190 1731 871 1787 1070 b 1773 1352 1857 1261 1859 1352 l 1411 1352 b 1235 1190 1324 1352 1261 1261 l 1106 834 b 1022 757 1093 800 1063 757 z "},"l":{"ha":726,"x_min":0,"x_max":0,"o":"m 81 157 b 138 -5 54 85 52 -5 l 557 -5 b 734 157 643 -5 707 85 l 1254 1558 b 1239 1796 1286 1643 1290 1744 l 913 2125 b 871 2145 903 2136 889 2145 b 777 2039 823 2145 790 2074 z "},"m":{"ha":2258,"x_min":0,"x_max":0,"o":"m 1630 196 b 1697 4 1598 111 1596 5 l 2074 3 b 2283 195 2176 2 2252 111 l 2633 1160 b 2565 1352 2665 1245 2667 1352 l 667 1352 b 459 1160 566 1352 490 1245 l 108 194 b 176 1 77 110 75 1 l 551 -1 b 758 191 652 -1 727 104 l 1141 1243 b 1224 1319 1154 1277 1183 1319 b 1251 1243 1264 1319 1263 1276 l 866 193 b 935 0 836 107 833 0 l 1312 0 b 1520 193 1414 0 1490 107 l 1903 1242 b 1986 1319 1915 1276 1945 1319 b 2013 1242 2026 1319 2025 1276 z "},"n":{"ha":1491,"x_min":0,"x_max":0,"o":"m 1874 1160 b 1806 1352 1906 1245 1908 1352 l 667 1352 b 459 1160 566 1352 490 1245 l 107 193 b 176 0 77 107 74 0 l 551 0 b 759 193 652 0 728 107 l 1141 1243 b 1224 1319 1154 1276 1184 1319 b 1251 1243 1264 1319 1263 1276 l 866 193 b 935 0 836 107 833 0 l 1312 0 b 1520 193 1414 0 1490 107 z "},"o":{"ha":1492,"x_min":0,"x_max":0,"o":"m 96 162 b 154 0 70 90 68 0 l 1335 0 b 1510 162 1421 0 1484 90 l 1884 1190 b 1826 1352 1910 1261 1912 1352 l 646 1352 b 470 1190 559 1352 496 1261 z m 759 39 b 732 117 718 39 719 83 l 1141 1242 b 1225 1319 1154 1276 1184 1319 b 1251 1242 1265 1319 1264 1276 l 842 117 b 759 39 829 83 800 39 z "},"p":{"ha":1499,"x_min":0,"x_max":0,"o":"m -42 -218 b -26 -457 -73 -302 -77 -405 l 286 -773 b 334 -797 298 -785 313 -797 b 445 -671 391 -797 430 -712 l 618 -193 b 827 0 649 -107 725 0 l 1335 0 b 1510 162 1421 0 1484 90 l 1884 1190 b 1826 1352 1910 1261 1912 1352 l 646 1352 b 470 1190 559 1352 496 1261 z m 759 39 b 732 117 718 39 719 83 l 1141 1242 b 1225 1319 1154 1276 1184 1319 b 1251 1242 1265 1319 1264 1276 l 842 117 b 759 39 829 83 800 39 z "},"q":{"ha":1485,"x_min":0,"x_max":0,"o":"m 1884 1190 b 1826 1352 1910 1261 1912 1352 l 646 1352 b 470 1190 559 1352 496 1261 l 96 162 b 154 0 70 90 68 0 l 684 0 b 741 -162 770 0 767 -90 b 752 -406 709 -248 705 -350 l 1068 -778 b 1109 -801 1077 -789 1090 -801 b 1197 -699 1155 -801 1185 -730 z m 758 39 b 732 117 718 39 720 83 l 1141 1242 b 1224 1319 1153 1275 1184 1319 b 1251 1242 1265 1319 1264 1276 l 842 117 b 758 39 829 83 799 39 z "},"r":{"ha":1491,"x_min":0,"x_max":0,"o":"m 1874 1160 b 1806 1352 1905 1245 1908 1352 l 667 1352 b 459 1160 566 1352 490 1245 l 107 193 b 176 0 77 107 74 0 l 551 0 b 759 193 652 0 728 107 l 1141 1243 b 1224 1319 1154 1276 1184 1319 b 1251 1243 1264 1319 1263 1276 b 1137 936 1213 1141 1175 1038 b 1205 744 1106 850 1103 744 l 1583 744 b 1792 936 1684 744 1761 851 z "},"s":{"ha":1485,"x_min":0,"x_max":0,"o":"m 378 557 b 170 365 277 557 201 450 l 107 193 b 176 0 77 107 74 0 l 1313 0 b 1521 193 1415 0 1491 107 l 1655 559 b 1586 751 1686 644 1688 751 l 1101 751 b 1032 943 999 751 1001 858 l 1141 1242 b 1225 1319 1154 1276 1184 1319 b 1252 1242 1265 1319 1264 1276 l 1178 1039 b 1246 846 1147 954 1144 846 l 1621 846 b 1873 1160 1777 846 1837 1059 b 1805 1352 1904 1245 1906 1352 l 667 1352 b 460 1160 566 1352 491 1244 l 344 838 b 412 646 313 753 311 646 l 896 646 b 964 454 998 646 996 539 l 842 117 b 759 39 829 83 800 39 b 731 116 718 39 719 82 l 822 365 b 753 557 853 450 855 557 z "},"t":{"ha":873,"x_min":0,"x_max":0,"o":"m 821 1974 b 729 1889 777 1974 743 1927 l -201 -667 b -182 -793 -216 -708 -239 -793 b -117 -769 -161 -793 -138 -781 l 401 -467 b 626 -184 506 -406 590 -283 l 1204 1404 b 1309 1499 1220 1448 1257 1500 l 1337 1499 b 1398 1554 1367 1499 1388 1529 b 1383 1596 1404 1573 1404 1596 b 1326 1737 1303 1596 1302 1668 l 1375 1871 b 1338 1974 1392 1917 1392 1974 z "},"u":{"ha":1497,"x_min":0,"x_max":0,"o":"m 107 193 b 176 0 77 107 74 0 l 1314 0 b 1522 193 1416 0 1492 107 l 1874 1160 b 1806 1352 1906 1245 1908 1352 l 1431 1352 b 1223 1160 1329 1352 1254 1245 l 840 109 b 758 33 828 75 798 33 b 731 109 718 33 719 75 l 1116 1160 b 1047 1352 1147 1245 1149 1352 l 669 1352 b 461 1160 568 1352 492 1245 z "},"v":{"ha":1485,"x_min":0,"x_max":0,"o":"m 755 33 b 728 109 715 33 716 76 l 1110 1160 b 1042 1352 1141 1245 1143 1352 l 646 1352 b 470 1190 559 1352 496 1261 l 277 660 b 271 395 245 571 236 463 l 421 103 b 591 0 450 47 514 0 l 1334 0 b 1510 162 1420 0 1483 90 l 1883 1190 b 1826 1352 1910 1261 1912 1352 l 1429 1352 b 1221 1160 1327 1352 1252 1245 l 839 109 b 755 33 826 75 795 33 z "},"w":{"ha":2256,"x_min":0,"x_max":0,"o":"m 288 690 b 281 376 250 584 240 457 l 411 121 b 612 0 445 55 522 0 l 2075 0 b 2283 193 2176 0 2252 107 l 2635 1160 b 2566 1352 2666 1245 2668 1352 l 2191 1352 b 1983 1160 2089 1352 2014 1245 l 1600 109 b 1519 33 1588 75 1559 33 b 1491 109 1479 33 1479 75 l 1876 1160 b 1807 1352 1907 1245 1909 1352 l 1429 1352 b 1221 1160 1327 1352 1252 1245 l 838 109 b 755 33 825 76 795 33 b 728 109 715 33 716 76 l 1110 1160 b 1042 1352 1141 1245 1143 1352 l 667 1352 b 459 1160 566 1352 490 1245 z "},"x":{"ha":1491,"x_min":0,"x_max":0,"o":"m 1015 757 b 988 834 975 757 975 800 l 1117 1190 b 1059 1352 1143 1261 1145 1352 l 641 1351 b 465 1189 555 1351 492 1261 l 411 1039 b 511 757 366 914 361 757 l 907 757 b 918 730 922 757 922 742 b 888 701 913 718 903 701 l 403 699 b 227 537 317 699 254 610 l 92 162 b 149 0 65 90 63 0 l 568 0 b 743 162 654 0 717 90 l 911 622 b 994 699 923 656 954 699 b 1021 622 1035 699 1034 656 l 854 162 b 911 0 827 90 825 0 l 1331 0 b 1506 162 1417 0 1480 90 l 1599 418 b 1499 699 1645 543 1648 699 l 1099 699 b 1089 728 1082 699 1084 715 b 1120 757 1094 741 1105 757 l 1520 757 b 1826 1039 1669 757 1780 914 l 1880 1190 b 1822 1352 1906 1261 1908 1352 l 1403 1352 b 1227 1190 1317 1352 1254 1261 l 1099 834 b 1015 757 1086 801 1055 757 z "},"y":{"ha":1492,"x_min":0,"x_max":0,"o":"m 758 39 b 731 116 718 39 719 82 l 1133 1211 b 1082 1352 1156 1274 1156 1352 l 646 1352 b 470 1190 559 1352 496 1261 l 96 162 b 154 0 70 90 68 0 l 662 0 b 730 -193 764 0 761 -107 l 564 -647 b 583 -772 549 -688 526 -772 b 649 -749 604 -772 629 -761 l 1191 -433 b 1381 -194 1280 -380 1350 -278 l 1884 1190 b 1826 1352 1910 1261 1912 1352 l 1393 1352 b 1240 1211 1318 1352 1263 1274 l 842 117 b 758 39 829 83 799 39 z "},"z":{"ha":1489,"x_min":0,"x_max":0,"o":"m 758 38 b 732 117 718 38 720 84 l 854 454 b 1062 646 885 539 960 646 l 1546 646 b 1755 838 1647 646 1724 753 l 1872 1160 b 1805 1352 1904 1244 1906 1352 l 667 1352 b 446 1122 544 1352 479 1215 b 514 930 414 1036 412 930 l 889 930 b 1097 1122 991 930 1066 1036 l 1141 1242 b 1224 1319 1154 1276 1183 1319 b 1252 1242 1265 1319 1264 1276 l 1143 943 b 935 751 1112 858 1036 751 l 449 751 b 241 559 347 751 272 644 l 107 193 b 176 0 77 107 74 0 l 1313 0 b 1558 292 1463 0 1522 193 b 1489 484 1588 377 1591 484 l 1113 481 b 904 288 1011 480 935 373 l 840 112 b 758 38 827 76 800 38 z "},"{":{"ha":656,"x_min":0,"x_max":0,"o":"m 616 20 b 593 42 622 37 611 42 b 519 37 573 42 543 37 b 486 83 492 37 472 45 l 920 1276 b 989 1322 934 1314 960 1322 b 1059 1316 1013 1322 1038 1316 b 1095 1336 1076 1316 1088 1320 b 1088 1352 1097 1343 1097 1352 l 729 1352 b 682 1308 706 1352 690 1328 l 541 920 b 490 851 532 896 514 869 l 308 720 b 288 694 299 713 291 704 b 290 669 284 685 286 675 l 378 544 b 380 476 390 528 388 500 l 222 43 b 237 0 215 24 214 0 l 594 0 b 616 20 605 0 612 11 z "},"|":{"ha":463,"x_min":0,"x_max":0,"o":"m 1125 2040 b 1106 2149 1139 2077 1157 2149 b 1053 2132 1089 2149 1070 2141 b 696 1811 878 2038 764 1996 l -217 -698 b -207 -797 -227 -726 -249 -797 b -146 -770 -188 -797 -164 -783 b 244 -380 39 -644 172 -578 z "},"}":{"ha":734,"x_min":0,"x_max":0,"o":"m 90 20 b 96 0 86 11 85 0 l 453 0 b 500 43 476 0 493 24 l 658 476 b 708 544 666 500 684 528 l 888 669 b 909 694 897 675 905 685 b 906 720 912 704 911 713 l 820 851 b 819 920 808 869 810 896 l 960 1308 b 945 1352 968 1328 968 1352 l 585 1352 b 568 1336 577 1352 571 1343 b 589 1316 562 1320 572 1316 b 665 1322 610 1316 640 1322 b 699 1276 693 1322 713 1314 l 264 83 b 197 37 251 45 225 37 b 128 42 174 37 149 42 b 90 20 111 42 96 37 z "},"~":{"ha":1283,"x_min":0,"x_max":0,"o":"m 362 878 b 404 643 330 789 279 643 l 703 643 b 755 435 816 643 784 519 b 818 258 728 356 722 258 l 1215 258 b 1405 435 1308 258 1377 357 b 1356 651 1437 521 1472 651 l 1050 651 b 987 827 957 651 959 749 b 943 1054 1019 915 1064 1054 l 553 1054 b 362 878 460 1054 391 956 z "},"¡":{"ha":718,"x_min":0,"x_max":0,"o":"m 96 161 b 154 -1 66 81 58 -1 l 573 -1 b 749 161 669 -1 719 81 l 990 825 b 932 987 1019 905 1028 987 l 513 987 b 338 825 418 987 367 905 z m 485 1230 b 529 1107 463 1168 456 1107 l 1003 1105 b 1137 1230 1076 1105 1115 1168 b 1093 1353 1160 1291 1166 1353 l 618 1353 b 485 1230 545 1353 507 1290 z "},"¢":{"ha":1835,"x_min":0,"x_max":0,"o":"m 1446 976 b 1270 814 1360 976 1296 886 l 1139 455 b 1057 379 1127 422 1097 379 b 1029 456 1016 379 1017 422 l 1438 1581 b 1522 1658 1451 1615 1482 1658 b 1549 1581 1563 1658 1561 1614 l 1423 1233 b 1480 1071 1396 1161 1394 1071 l 1897 1071 b 2072 1233 1983 1071 2046 1161 l 2180 1529 b 2123 1691 2206 1601 2209 1691 l 1863 1691 b 1681 1920 1733 1691 1680 1807 l 1683 2098 l 1554 1920 b 1206 1691 1474 1807 1336 1691 l 944 1691 b 768 1529 858 1691 794 1601 l 394 501 b 452 339 368 429 366 339 l 728 339 b 916 114 858 339 913 226 l 919 0 l 1013 120 b 1371 339 1100 230 1243 339 l 1630 339 b 1806 501 1716 339 1780 429 l 1920 814 b 1862 976 1946 886 1948 976 z "},"£":{"ha":1652,"x_min":0,"x_max":0,"o":"m 1530 1591 b 1510 1813 1562 1679 1561 1757 l 1226 2121 b 1177 2147 1215 2134 1198 2147 b 1073 2041 1129 2147 1090 2076 l 120 159 b 99 112 112 144 104 127 b 156 0 75 45 84 0 l 1506 5 b 1681 167 1601 5 1651 86 l 1785 454 b 1748 659 1817 540 1823 626 b 1331 838 1696 682 1365 838 b 1242 742 1282 838 1255 777 l 1042 191 b 878 39 1015 116 967 39 b 825 147 810 39 802 84 b 843 189 830 161 836 175 l 1503 1529 b 1530 1591 1514 1550 1522 1570 z "},"¤":{"ha":1086,"x_min":0,"x_max":0,"o":"m 496 863 l 286 703 l 379 542 b 414 267 340 437 262 267 l 501 267 l 553 48 l 762 267 l 849 267 b 1084 542 1000 267 1045 437 l 1280 703 l 1200 863 b 1166 1138 1239 968 1316 1137 l 1079 1138 l 1011 1310 l 808 1139 l 731 1139 b 496 863 579 1139 534 968 z m 715 542 b 659 701 621 542 631 622 b 836 863 688 781 739 863 b 919 699 949 863 959 809 b 749 542 890 621 841 542 z "},"¥":{"ha":1485,"x_min":0,"x_max":0,"o":"m 758 39 b 732 117 718 39 720 83 l 1145 1251 b 1108 1352 1161 1296 1161 1352 l 583 1352 b 502 1277 543 1352 514 1310 b 259 977 459 1159 355 1073 b 269 635 302 844 328 798 b 26 336 220 502 142 439 l 79 233 b 113 0 118 153 8 0 l 684 0 b 741 -162 770 0 767 -90 b 752 -406 709 -248 705 -350 l 1068 -778 b 1109 -801 1077 -789 1090 -801 b 1198 -699 1155 -801 1186 -730 l 1476 61 b 1763 333 1529 205 1628 250 b 1687 635 1697 432 1633 486 b 1999 977 1752 814 1828 850 l 1917 1138 b 1892 1352 1878 1215 1976 1352 l 1364 1352 b 1256 1251 1312 1352 1272 1296 l 842 117 b 758 39 829 83 799 39 z "},"¦":{"ha":446,"x_min":0,"x_max":0,"o":"m 800 1148 l 1140 2081 b 1126 2162 1150 2108 1164 2162 b 1086 2149 1113 2162 1099 2156 l 853 2026 b 711 1851 787 1990 733 1912 l 340 831 b 347 757 332 810 315 757 b 393 777 362 757 380 767 l 659 960 b 800 1148 724 1004 777 1083 z m 170 364 l -231 -738 b -224 -812 -239 -760 -256 -812 b -178 -793 -209 -812 -193 -802 l 88 -609 b 229 -420 153 -565 206 -484 l 629 677 b 622 752 637 699 654 752 b 576 732 607 752 589 742 l 312 553 b 170 364 247 509 193 428 z "},"§":{"ha":1485,"x_min":0,"x_max":0,"o":"m 183 401 b 227 279 163 347 162 279 l 814 279 b 857 157 878 279 876 211 l 723 -210 b 640 -288 711 -243 680 -288 b 612 -211 600 -288 600 -245 l 728 109 b 685 230 748 162 749 230 l 208 230 b 77 109 144 230 96 162 l -37 -205 b 6 -327 -57 -259 -58 -327 l 1245 -327 b 1377 -205 1310 -327 1357 -259 l 1782 909 b 1739 1030 1801 962 1803 1030 l 1152 1030 b 1108 1152 1087 1030 1089 1099 l 1242 1521 b 1326 1598 1255 1555 1286 1598 b 1297 1126 1467 1598 1111 1126 l 1773 1126 b 1905 1247 1838 1126 1886 1194 l 2001 1509 b 1957 1631 2020 1563 2022 1631 l 718 1631 b 587 1509 654 1631 606 1563 z m 899 425 b 871 501 859 425 859 467 l 998 848 b 1081 925 1010 882 1040 925 b 1108 848 1121 925 1120 881 l 982 501 b 899 425 970 467 939 425 z "},"¨":{"ha":1000,"x_min":0,"x_max":0,"o":"m 911 1337 b 700 1501 981 1527 848 1501 b 524 1339 614 1501 551 1411 l 468 1184 b 526 1022 442 1112 440 1022 l 680 1022 b 855 1184 766 1022 829 1112 z m 1451 1337 b 1240 1501 1520 1527 1388 1501 b 1064 1339 1154 1501 1090 1411 l 1008 1184 b 1066 1022 982 1112 980 1022 l 1220 1022 b 1395 1184 1306 1022 1369 1112 z "},"©":{"ha":874,"x_min":0,"x_max":0,"o":"m 452 1087 b 642 554 366 850 359 554 b 1218 1087 924 554 1133 851 b 1029 1619 1304 1323 1311 1619 b 452 1087 747 1619 538 1323 z m 516 1087 b 997 1531 588 1284 761 1531 b 1155 1087 1232 1531 1227 1284 b 674 643 1084 890 909 643 b 516 1087 438 643 445 890 z m 887 1073 b 760 878 808 1073 810 878 b 751 903 746 878 747 892 l 884 1271 b 911 1295 888 1282 899 1295 b 899 1104 962 1295 821 1104 l 1034 1104 b 1091 1157 1062 1104 1083 1134 l 1126 1254 b 1107 1307 1135 1277 1135 1307 l 723 1307 b 666 1254 695 1307 674 1277 l 544 918 b 562 865 535 895 534 865 l 947 865 b 1004 918 975 865 996 895 l 1041 1020 b 1023 1073 1050 1044 1050 1073 z "},"ª":{"ha":733,"x_min":0,"x_max":0,"o":"m 1179 1300 b 1161 1348 1186 1322 1187 1348 l 552 1348 b 500 1300 527 1348 507 1321 l 457 1183 b 474 1135 449 1162 449 1135 l 718 1135 b 850 1332 793 1135 786 1332 b 863 1295 870 1332 869 1312 l 802 1126 b 750 1078 794 1105 776 1078 l 454 1078 b 401 1029 429 1078 409 1050 l 299 749 b 316 701 292 728 291 701 l 925 701 b 978 749 950 701 970 728 z m 627 718 b 614 755 607 718 608 739 l 711 1023 b 751 1059 718 1039 732 1059 b 764 1023 771 1059 770 1039 l 667 755 b 627 718 661 739 646 718 z "},"«":{"ha":1472,"x_min":0,"x_max":0,"o":"m 1144 1088 b 1085 1140 1160 1132 1120 1140 l 905 1141 b 649 1003 809 1141 724 1082 l 363 701 b 285 584 330 665 300 625 b 293 454 267 534 273 490 b 534 244 349 351 384 244 l 714 244 b 798 279 736 244 786 245 b 719 584 825 354 669 447 b 797 701 734 625 764 666 l 1082 1002 b 1144 1088 1105 1027 1134 1059 z m 1748 1088 b 1689 1140 1764 1132 1725 1140 l 1510 1141 b 1253 1003 1413 1141 1329 1082 l 967 701 b 889 584 934 665 904 625 b 897 454 871 534 878 490 b 1139 244 954 351 988 244 l 1318 244 b 1402 279 1341 244 1390 245 b 1323 584 1430 354 1274 447 b 1401 701 1339 625 1368 666 l 1687 1002 b 1748 1088 1710 1027 1738 1059 z "},"®":{"ha":910,"x_min":0,"x_max":0,"o":"m 481 1087 b 672 551 395 849 388 551 b 1251 1087 956 551 1165 850 b 1061 1622 1338 1324 1345 1622 b 481 1087 777 1622 568 1325 z m 975 850 b 1034 904 1004 850 1025 880 l 1069 1000 b 1052 1078 1080 1031 1080 1067 b 1029 1090 1047 1080 1028 1084 b 1106 1156 1048 1104 1084 1094 l 1138 1242 b 1119 1296 1147 1267 1147 1296 l 748 1297 b 690 1243 720 1297 699 1267 l 567 904 b 586 851 559 881 558 851 l 724 851 b 863 1076 806 851 809 1076 b 871 1051 876 1076 876 1062 l 818 904 b 838 851 809 880 810 851 z m 869 1095 b 861 1121 856 1095 857 1110 l 911 1260 b 939 1286 915 1271 925 1286 b 947 1260 952 1286 951 1271 l 897 1121 b 869 1095 893 1110 883 1095 z m 545 1087 b 1029 1534 618 1285 793 1534 b 1188 1087 1266 1534 1261 1285 b 705 640 1116 889 941 640 b 545 1087 468 640 473 889 z "},"¯":{"ha":1190,"x_min":0,"x_max":0,"o":"m 1626 1319 b 1568 1481 1652 1391 1654 1481 l 696 1482 b 520 1320 610 1482 547 1392 l 464 1165 b 522 1003 438 1093 435 1003 l 1394 1003 b 1569 1165 1480 1003 1544 1093 z "},"°":{"ha":882,"x_min":0,"x_max":0,"o":"m 456 1093 b 648 553 370 853 362 553 b 1232 1093 934 553 1145 854 b 1040 1631 1318 1331 1326 1631 b 456 1093 755 1631 544 1332 z m 727 1093 b 904 1255 754 1166 817 1255 b 961 1093 991 1255 987 1165 b 785 930 935 1020 872 930 b 727 1093 698 930 701 1019 z "},"±":{"ha":1084,"x_min":0,"x_max":0,"o":"m 1208 810 b 1166 931 1228 864 1230 931 l 1097 931 b 1027 1219 941 931 1183 1219 l 945 1219 b 667 932 790 1219 823 932 l 597 932 b 468 812 534 932 487 865 l 426 696 b 581 456 340 463 665 688 b 579 215 558 394 469 215 l 662 215 b 836 456 772 215 813 394 b 1167 696 920 688 1082 463 z m 1006 -101 b 948 61 1031 -29 1034 61 l 183 62 b 7 -100 97 62 34 -28 l -48 -254 b 9 -416 -75 -326 -77 -416 l 774 -416 b 950 -254 861 -416 924 -326 z "},"²":{"ha":745,"x_min":0,"x_max":0,"o":"m 640 720 b 627 759 621 720 622 743 l 711 989 b 811 1081 726 1029 762 1081 l 1044 1081 b 1176 1259 1126 1081 1158 1212 b 1143 1352 1191 1301 1192 1352 l 579 1352 b 505 1283 543 1352 516 1314 b 529 1215 494 1253 493 1215 l 732 1215 b 864 1336 816 1215 816 1336 b 877 1299 884 1336 883 1315 l 850 1225 b 749 1132 835 1184 798 1132 l 516 1132 b 416 1040 467 1132 431 1080 l 328 795 b 360 703 313 754 311 703 l 907 703 b 1007 795 956 703 991 753 l 1046 904 b 1014 996 1061 945 1063 997 l 833 994 b 732 902 783 994 747 943 l 680 756 b 640 720 673 739 660 720 z "},"³":{"ha":734,"x_min":0,"x_max":0,"o":"m 418 919 b 333 841 377 919 346 875 b 340 703 318 800 273 703 l 908 703 b 993 781 950 703 980 745 l 1063 972 b 1044 1082 1090 1048 1039 1070 b 1069 1098 1047 1091 1061 1095 b 1133 1166 1101 1109 1122 1137 l 1173 1274 b 1145 1353 1185 1309 1186 1353 l 576 1353 b 492 1274 535 1353 504 1309 b 506 1160 477 1234 446 1160 l 708 1160 b 855 1337 805 1160 793 1337 b 869 1300 875 1337 874 1316 l 814 1152 b 727 1071 787 1074 737 1100 b 739 1048 720 1051 728 1048 b 768 1025 755 1048 779 1055 l 671 758 b 631 721 666 743 650 721 b 620 919 567 721 722 919 z "},"´":{"ha":469,"x_min":0,"x_max":0,"o":"m 410 1023 b 422 921 399 991 378 921 b 481 945 441 921 464 933 l 727 1103 b 916 1349 814 1159 885 1263 l 972 1503 b 915 1666 999 1575 1001 1666 b 820 1667 882 1666 850 1667 b 585 1503 718 1667 639 1651 z "},"·":{"ha":397,"x_min":0,"x_max":0,"o":"m 277 672 b 359 438 239 568 235 438 b 612 672 484 438 574 569 b 530 905 650 776 653 905 b 277 672 406 905 314 776 z "},"¸":{"ha":778,"x_min":0,"x_max":0,"o":"m 393 -747 b 517 -595 459 -747 500 -640 l 569 -450 b 511 -170 671 -170 409 -450 b 522 48 528 -121 604 48 l 337 48 b 214 -104 271 48 230 -60 l 165 -236 b 178 -375 151 -277 117 -375 l 213 -374 b 224 -514 273 -374 239 -473 l 172 -658 b 121 -721 165 -676 149 -721 b 136 -438 58 -721 246 -437 l -56 -439 b -180 -593 -121 -440 -163 -548 b -168 -747 -196 -638 -236 -747 z "},"¹":{"ha":383,"x_min":0,"x_max":0,"o":"m 813 1274 b 785 1352 825 1309 826 1352 l 718 1352 b 617 1305 686 1352 646 1330 b 433 1088 534 1232 468 1184 l 322 783 b 350 706 310 749 309 706 l 550 706 b 634 783 591 706 622 749 z "},"º":{"ha":747,"x_min":0,"x_max":0,"o":"m 321 779 b 348 701 309 745 307 701 l 918 701 b 1002 779 959 701 989 744 l 1183 1274 b 1154 1352 1195 1309 1196 1352 l 585 1352 b 501 1274 544 1352 513 1308 z m 640 720 b 627 757 620 720 621 741 l 824 1299 b 864 1337 830 1315 844 1337 b 877 1299 884 1337 883 1315 l 680 757 b 640 720 673 741 659 720 z "},"»":{"ha":1665,"x_min":0,"x_max":0,"o":"m 899 266 b 958 214 882 222 922 214 b 1137 213 1017 214 1077 213 b 1393 351 1233 213 1318 271 l 1680 653 b 1757 770 1712 688 1742 729 b 1749 900 1775 820 1769 863 b 1508 1109 1693 1002 1658 1109 l 1328 1109 b 1244 1075 1305 1109 1257 1108 b 1323 770 1217 1000 1373 907 b 1245 652 1308 728 1278 688 l 960 351 b 899 266 937 327 909 294 z m 294 266 b 353 214 278 222 318 214 b 532 213 413 214 473 213 b 789 351 629 213 714 271 l 1076 653 b 1153 770 1108 688 1138 729 b 1145 900 1171 820 1164 863 b 903 1109 1089 1002 1054 1109 l 724 1109 b 640 1075 701 1109 652 1108 b 719 770 612 1000 769 907 b 641 652 704 728 674 688 l 356 351 b 294 266 332 327 304 294 z "},"¼":{"ha":1592,"x_min":0,"x_max":0,"o":"m 1332 328 b 1319 365 1312 328 1313 349 l 1403 594 b 1379 662 1414 624 1415 662 l 1170 662 b 1086 585 1129 662 1098 619 l 1014 387 b 1042 309 1001 353 1000 309 l 1286 309 b 1278 106 1375 309 1295 152 b 1311 14 1263 64 1262 14 l 1501 14 b 1585 92 1542 14 1573 58 l 1765 585 b 1737 662 1777 618 1777 662 l 1529 662 b 1332 328 1417 662 1410 328 z m 1462 1276 b 1411 1367 1481 1329 1467 1367 b 1212 1368 1345 1367 1278 1368 b 998 1217 1129 1368 1044 1289 l 317 166 b 286 106 304 146 293 127 b 336 15 267 54 280 15 l 536 15 b 750 166 618 15 703 94 l 1431 1216 b 1462 1276 1443 1236 1455 1255 z m 813 1274 b 785 1352 825 1309 826 1352 l 718 1352 b 617 1305 686 1352 646 1330 b 433 1088 534 1232 468 1184 l 322 783 b 350 706 310 749 309 706 l 550 706 b 634 783 591 706 622 749 z "},"½":{"ha":1617,"x_min":0,"x_max":0,"o":"m 1448 300 b 1348 208 1399 299 1363 249 l 1295 61 b 1255 26 1288 43 1276 26 b 1243 64 1236 26 1237 49 l 1326 294 b 1426 387 1341 335 1377 387 l 1659 387 b 1791 565 1741 387 1774 517 b 1758 657 1806 606 1807 657 l 1195 657 b 1120 588 1158 657 1131 618 b 1144 520 1109 558 1109 520 l 1347 520 b 1478 641 1430 520 1432 641 b 1492 604 1498 641 1499 622 l 1465 530 b 1365 437 1450 488 1414 437 l 1132 437 b 1031 345 1083 437 1046 386 l 943 100 b 975 7 928 59 926 7 l 1522 7 b 1622 100 1571 7 1607 58 l 1662 210 b 1629 302 1676 250 1678 302 z m 815 1274 b 787 1352 827 1308 828 1352 l 720 1352 b 618 1305 688 1352 646 1331 b 433 1088 536 1232 468 1183 l 321 781 b 349 703 309 746 308 703 l 551 703 b 635 781 592 703 623 746 z m 548 7 b 762 159 631 7 715 86 l 1443 1208 b 1474 1267 1455 1227 1467 1248 b 1423 1359 1493 1320 1479 1359 b 1224 1360 1357 1359 1291 1360 b 1010 1209 1141 1360 1057 1282 l 329 159 b 298 99 317 139 305 119 b 348 7 279 46 292 7 z "},"¾":{"ha":1931,"x_min":0,"x_max":0,"o":"m 428 918 b 343 840 387 918 355 873 b 349 701 328 799 283 701 l 918 701 b 1003 780 959 701 990 745 l 1073 972 b 1053 1081 1100 1047 1049 1070 b 1079 1097 1057 1090 1071 1095 b 1143 1165 1112 1108 1133 1136 l 1183 1274 b 1154 1352 1195 1308 1196 1352 l 586 1352 b 502 1274 545 1352 514 1308 b 516 1158 487 1234 456 1158 l 718 1158 b 865 1336 815 1158 804 1336 b 878 1299 885 1336 884 1315 l 825 1151 b 736 1070 796 1073 747 1100 b 749 1046 729 1050 737 1046 b 779 1024 766 1046 789 1053 l 681 757 b 642 720 675 741 661 720 b 630 918 577 720 732 918 z m 865 0 b 1080 151 948 0 1033 79 l 1761 1201 b 1791 1260 1773 1220 1784 1240 b 1741 1352 1811 1313 1796 1352 b 1541 1353 1674 1352 1608 1353 b 1327 1202 1459 1353 1374 1274 l 646 151 b 615 92 634 132 623 111 b 665 0 596 39 610 0 z m 1862 648 b 1665 314 1751 648 1744 314 b 1651 351 1645 314 1645 334 l 1736 580 b 1712 648 1748 610 1748 648 l 1503 648 b 1419 570 1462 648 1431 604 l 1347 372 b 1375 295 1334 338 1333 295 l 1618 295 b 1644 0 1752 295 1509 0 l 1834 0 b 1919 78 1875 0 1906 43 l 2098 570 b 2070 648 2110 604 2111 648 z "},"¿":{"ha":1491,"x_min":0,"x_max":0,"o":"m 1522 194 b 1454 387 1556 290 1567 387 l 1077 389 b 756 33 842 389 886 33 b 729 109 712 33 716 72 l 796 293 b 987 469 829 381 883 469 b 1058 467 1011 469 1034 467 b 1249 643 1161 466 1217 556 l 1295 768 b 1227 960 1330 864 1341 960 l 852 960 b 441 543 597 960 672 543 b 367 545 416 543 392 545 b 355 545 363 545 359 545 b 173 373 253 543 204 458 l 107 193 b 176 0 73 97 63 0 l 1315 0 b 1522 193 1429 0 1489 97 z m 819 1228 b 863 1105 797 1166 791 1105 l 1338 1105 b 1472 1228 1411 1105 1449 1167 b 1428 1352 1494 1290 1501 1352 l 952 1352 b 819 1228 880 1352 842 1289 z "},"À":{"ha":1478,"x_min":0,"x_max":0,"o":"m 1330 -2 b 1506 160 1415 -3 1480 89 l 1879 1187 b 1822 1350 1906 1260 1908 1350 l 641 1352 b 465 1190 555 1352 492 1261 l 92 162 b 149 0 65 90 63 0 l 568 0 b 929 520 798 0 782 520 b 911 0 1075 520 682 1 z m 950 578 b 922 654 909 578 910 621 l 1137 1242 b 1220 1319 1149 1276 1179 1319 b 1247 1242 1261 1319 1259 1276 l 1033 654 b 950 578 1021 621 991 578 z m 1765 2285 b 1752 2386 1776 2316 1797 2386 b 1693 2363 1733 2386 1712 2375 l 1448 2205 b 1259 1959 1359 2147 1290 2045 l 1202 1804 b 1260 1642 1177 1732 1174 1642 b 1590 1805 1409 1642 1521 1616 z "},"Á":{"ha":1478,"x_min":0,"x_max":0,"o":"m 1330 -2 b 1506 160 1415 -3 1480 89 l 1879 1187 b 1822 1350 1906 1260 1908 1350 l 641 1352 b 465 1190 555 1352 492 1261 l 92 162 b 149 0 65 90 63 0 l 568 0 b 929 520 798 0 782 520 b 911 0 1075 520 682 1 z m 950 578 b 922 654 909 578 910 621 l 1137 1242 b 1220 1319 1149 1276 1179 1319 b 1247 1242 1261 1319 1259 1276 l 1033 654 b 950 578 1021 621 991 578 z m 1181 1744 b 1193 1642 1169 1713 1148 1642 b 1252 1666 1212 1642 1234 1654 l 1497 1824 b 1687 2070 1586 1881 1655 1984 l 1743 2224 b 1685 2386 1769 2296 1771 2386 b 1590 2388 1652 2386 1620 2388 b 1355 2224 1489 2388 1409 2372 z "},"Â":{"ha":1478,"x_min":0,"x_max":0,"o":"m 1330 -2 b 1506 160 1415 -3 1480 89 l 1879 1187 b 1822 1350 1906 1260 1908 1350 l 641 1352 b 465 1190 555 1352 492 1261 l 92 162 b 149 0 65 90 63 0 l 568 0 b 929 520 798 0 782 520 b 911 0 1075 520 682 1 z m 993 1711 b 1036 1642 977 1666 990 1642 l 1149 1642 b 1302 1760 1220 1642 1268 1699 l 1453 2035 b 1496 2094 1457 2043 1485 2094 b 1497 2035 1508 2094 1499 2043 l 1452 1759 b 1520 1642 1442 1698 1450 1642 l 1639 1642 b 1744 1759 1708 1642 1737 1699 l 1824 2289 b 1754 2407 1833 2351 1824 2407 l 1482 2407 b 1326 2291 1412 2407 1362 2352 l 1016 1758 b 993 1711 1007 1742 999 1727 z m 950 578 b 922 654 909 578 910 621 l 1137 1242 b 1220 1319 1149 1276 1179 1319 b 1247 1242 1261 1319 1259 1276 l 1033 654 b 950 578 1021 621 991 578 z "},"Ã":{"ha":1478,"x_min":0,"x_max":0,"o":"m 1330 -2 b 1506 160 1415 -3 1480 89 l 1879 1187 b 1822 1350 1906 1260 1908 1350 l 641 1352 b 465 1190 555 1352 492 1261 l 92 162 b 149 0 65 90 63 0 l 568 0 b 929 520 798 0 782 520 b 911 0 1075 520 682 1 z m 1412 1642 l 1570 1642 b 1756 1813 1661 1642 1728 1737 b 1695 1984 1784 1889 1786 1984 l 1627 1984 b 1568 2151 1539 1984 1541 2077 b 1508 2318 1594 2225 1596 2318 l 1350 2318 b 1164 2147 1259 2318 1192 2224 b 1225 1976 1137 2071 1134 1976 l 1293 1976 b 1353 1809 1382 1976 1379 1883 b 1412 1642 1326 1735 1324 1642 z m 950 578 b 922 654 909 578 910 621 l 1137 1242 b 1220 1319 1149 1276 1179 1319 b 1247 1242 1261 1319 1259 1276 l 1033 654 b 950 578 1021 621 991 578 z "},"Ä":{"ha":1478,"x_min":0,"x_max":0,"o":"m 1330 -2 b 1506 160 1415 -3 1480 89 l 1879 1187 b 1822 1350 1906 1260 1908 1350 l 641 1352 b 465 1190 555 1352 492 1261 l 92 162 b 149 0 65 90 63 0 l 568 0 b 929 520 798 0 782 520 b 911 0 1075 520 682 1 z m 950 578 b 922 654 909 578 910 621 l 1137 1242 b 1220 1319 1149 1276 1179 1319 b 1247 1242 1261 1319 1259 1276 l 1033 654 b 950 578 1021 621 991 578 z m 1376 1958 b 1164 2121 1445 2148 1312 2121 b 989 1959 1078 2121 1015 2030 l 932 1804 b 990 1642 907 1732 904 1642 l 1144 1642 b 1320 1804 1230 1642 1294 1732 z m 1916 1958 b 1704 2121 1985 2148 1851 2121 b 1529 1959 1618 2121 1555 2030 l 1472 1804 b 1530 1642 1447 1732 1444 1642 l 1684 1642 b 1860 1804 1770 1642 1834 1732 z "},"Å":{"ha":1478,"x_min":0,"x_max":0,"o":"m 1330 -2 b 1506 160 1415 -3 1480 89 l 1879 1187 b 1822 1350 1906 1260 1908 1350 l 641 1352 b 465 1190 555 1352 492 1261 l 92 162 b 149 0 65 90 63 0 l 568 0 b 929 520 798 0 782 520 b 911 0 1075 520 682 1 z m 1148 1642 l 1526 1642 b 1702 1804 1622 1642 1672 1724 l 1858 2234 b 1801 2396 1887 2315 1896 2395 l 1423 2398 b 1248 2236 1328 2399 1277 2316 l 1090 1804 b 1148 1642 1061 1724 1053 1642 z m 950 578 b 922 654 909 578 910 621 l 1137 1242 b 1220 1319 1149 1276 1179 1319 b 1247 1242 1261 1319 1259 1276 l 1033 654 b 950 578 1021 621 991 578 z m 1588 2020 b 1437 1881 1563 1951 1520 1881 l 1411 1881 b 1362 2020 1329 1881 1337 1951 b 1513 2159 1387 2089 1431 2159 b 1588 2020 1612 2159 1624 2118 z "},"Æ":{"ha":2258,"x_min":0,"x_max":0,"o":"m 1330 -2 b 2094 0 1584 -3 1840 0 b 2316 288 2233 0 2285 203 b 2258 450 2342 359 2344 450 l 1839 450 b 1663 288 1752 450 1689 359 l 1600 116 b 1517 39 1588 82 1558 39 b 1489 116 1476 39 1477 82 l 1653 566 b 1785 651 1682 644 1720 651 b 1820 692 1806 651 1815 677 b 1805 734 1827 711 1828 734 b 1761 861 1739 734 1740 805 l 1899 1242 b 1983 1319 1912 1276 1942 1319 b 2009 1242 2024 1319 2022 1276 l 1963 1112 b 2020 950 1936 1040 1934 950 l 2440 950 b 2644 1190 2563 950 2614 1107 b 2586 1352 2670 1261 2672 1352 b 641 1352 1938 1352 1289 1351 b 465 1190 555 1352 492 1261 l 92 162 b 149 0 65 90 63 0 l 568 0 b 743 162 654 0 717 90 l 846 444 b 929 520 859 479 888 520 b 956 444 970 520 969 478 l 854 162 b 911 0 827 90 825 1 z m 950 578 b 922 654 909 578 910 621 l 1137 1242 b 1220 1319 1149 1276 1179 1319 b 1247 1242 1261 1319 1259 1276 l 1033 654 b 950 578 1021 621 991 578 z "},"Ç":{"ha":1480,"x_min":0,"x_max":0,"o":"m 751 -747 b 876 -595 818 -747 859 -640 l 928 -450 b 869 -170 1030 -170 768 -450 b 880 48 887 -121 963 48 l 696 48 b 572 -104 629 48 589 -60 l 524 -236 b 536 -375 509 -277 475 -376 l 572 -374 b 583 -514 632 -374 598 -473 l 531 -658 b 480 -721 524 -676 507 -721 b 495 -438 417 -721 605 -437 l 303 -439 b 178 -595 237 -440 195 -550 b 191 -747 161 -640 123 -747 z m 1147 636 b 972 474 1061 636 998 546 l 842 116 b 759 39 829 82 800 39 b 732 117 718 39 719 83 l 1141 1242 b 1225 1319 1154 1276 1184 1319 b 1251 1242 1265 1319 1264 1276 l 1125 894 b 1183 732 1099 822 1097 732 l 1599 732 b 1775 894 1685 732 1748 822 l 1882 1190 b 1824 1352 1908 1261 1910 1352 l 646 1352 b 470 1190 559 1352 496 1261 l 96 162 b 154 0 70 90 68 0 l 1333 0 b 1508 162 1419 0 1482 90 l 1622 474 b 1564 636 1648 546 1650 636 z "},"È":{"ha":1480,"x_min":0,"x_max":0,"o":"m 1080 450 b 905 288 994 450 931 359 l 842 116 b 759 39 829 82 800 39 b 731 116 718 39 719 82 l 895 566 b 1027 651 924 644 962 651 b 1062 692 1048 651 1057 677 b 1047 734 1069 711 1069 734 b 1002 861 981 734 982 805 l 1141 1242 b 1225 1319 1154 1276 1184 1319 b 1251 1242 1265 1319 1264 1276 l 1204 1112 b 1262 950 1178 1040 1176 950 l 1682 950 b 1885 1190 1805 950 1855 1107 b 1828 1352 1912 1261 1914 1352 l 646 1352 b 470 1190 559 1352 496 1261 l 96 162 b 154 0 70 90 68 0 l 1336 0 b 1558 288 1474 0 1527 203 b 1500 450 1584 359 1586 450 z m 1770 2285 b 1758 2386 1782 2316 1803 2386 b 1699 2363 1739 2386 1717 2375 l 1453 2205 b 1264 1959 1364 2147 1295 2045 l 1208 1804 b 1265 1642 1182 1732 1179 1642 b 1596 1805 1414 1642 1527 1616 z "},"É":{"ha":1480,"x_min":0,"x_max":0,"o":"m 1080 450 b 905 288 994 450 931 359 l 842 116 b 759 39 829 82 800 39 b 731 116 718 39 719 82 l 895 566 b 1027 651 924 644 962 651 b 1062 692 1048 651 1057 677 b 1047 734 1069 711 1069 734 b 1002 861 981 734 982 805 l 1141 1242 b 1225 1319 1154 1276 1184 1319 b 1251 1242 1265 1319 1264 1276 l 1204 1112 b 1262 950 1178 1040 1176 950 l 1682 950 b 1885 1190 1805 950 1855 1107 b 1828 1352 1912 1261 1914 1352 l 646 1352 b 470 1190 559 1352 496 1261 l 96 162 b 154 0 70 90 68 0 l 1336 0 b 1558 288 1474 0 1527 203 b 1500 450 1584 359 1586 450 z m 1186 1744 b 1198 1642 1175 1713 1154 1642 b 1257 1666 1217 1642 1240 1654 l 1503 1824 b 1692 2070 1592 1881 1661 1984 l 1748 2224 b 1691 2386 1774 2296 1777 2386 b 1596 2388 1657 2386 1626 2388 b 1360 2224 1494 2388 1415 2372 z "},"Ê":{"ha":1480,"x_min":0,"x_max":0,"o":"m 1080 450 b 905 288 994 450 931 359 l 842 116 b 759 39 829 82 800 39 b 731 116 718 39 719 82 l 895 566 b 1027 651 924 644 962 651 b 1062 692 1048 651 1057 677 b 1047 734 1069 711 1069 734 b 1002 861 981 734 982 805 l 1141 1242 b 1225 1319 1154 1276 1184 1319 b 1251 1242 1265 1319 1264 1276 l 1204 1112 b 1262 950 1178 1040 1176 950 l 1682 950 b 1885 1190 1805 950 1855 1107 b 1828 1352 1912 1261 1914 1352 l 646 1352 b 470 1190 559 1352 496 1261 l 96 162 b 154 0 70 90 68 0 l 1336 0 b 1558 288 1474 0 1527 203 b 1500 450 1584 359 1586 450 z m 998 1711 b 1041 1642 982 1666 996 1642 l 1155 1642 b 1308 1760 1225 1642 1274 1699 l 1458 2035 b 1501 2094 1462 2043 1490 2094 b 1503 2035 1514 2094 1505 2043 l 1457 1759 b 1525 1642 1447 1698 1455 1642 l 1645 1642 b 1750 1759 1714 1642 1742 1699 l 1829 2289 b 1759 2407 1839 2351 1829 2407 l 1487 2407 b 1331 2291 1417 2407 1367 2352 l 1021 1758 b 998 1711 1013 1742 1004 1727 z "},"Ë":{"ha":1480,"x_min":0,"x_max":0,"o":"m 1080 450 b 905 288 994 450 931 359 l 842 116 b 759 39 829 82 800 39 b 731 116 718 39 719 82 l 895 566 b 1027 651 924 644 962 651 b 1062 692 1048 651 1057 677 b 1047 734 1069 711 1069 734 b 1002 861 981 734 982 805 l 1141 1242 b 1225 1319 1154 1276 1184 1319 b 1251 1242 1265 1319 1264 1276 l 1204 1112 b 1262 950 1178 1040 1176 950 l 1682 950 b 1885 1190 1805 950 1855 1107 b 1828 1352 1912 1261 1914 1352 l 646 1352 b 470 1190 559 1352 496 1261 l 96 162 b 154 0 70 90 68 0 l 1336 0 b 1558 288 1474 0 1527 203 b 1500 450 1584 359 1586 450 z m 1381 1958 b 1170 2121 1451 2148 1317 2121 b 994 1959 1084 2121 1021 2030 l 938 1804 b 996 1642 912 1732 909 1642 l 1149 1642 b 1325 1804 1236 1642 1299 1732 z m 1921 1958 b 1710 2121 1990 2148 1857 2121 b 1534 1959 1624 2121 1560 2030 l 1478 1804 b 1535 1642 1452 1732 1449 1642 l 1689 1642 b 1865 1804 1775 1642 1839 1732 z "},"Ì":{"ha":718,"x_min":0,"x_max":0,"o":"m 1122 1190 b 1065 1352 1149 1261 1151 1352 l 646 1353 b 471 1191 560 1353 497 1263 l 96 162 b 154 0 70 90 68 0 l 573 0 b 749 162 659 0 722 90 z m 1389 2286 b 1377 2388 1400 2317 1421 2388 b 1318 2364 1358 2388 1335 2376 l 1072 2206 b 883 1960 985 2150 914 2045 l 827 1805 b 884 1643 800 1733 798 1643 b 979 1642 918 1643 949 1642 b 1214 1806 1081 1642 1160 1658 z "},"Í":{"ha":718,"x_min":0,"x_max":0,"o":"m 1122 1190 b 1065 1352 1149 1261 1151 1352 l 646 1353 b 471 1191 560 1353 497 1263 l 96 162 b 154 0 70 90 68 0 l 573 0 b 749 162 659 0 722 90 z m 804 1745 b 817 1643 793 1714 772 1643 b 876 1667 836 1643 858 1655 l 1121 1825 b 1311 2071 1209 1881 1280 1986 l 1367 2226 b 1310 2388 1393 2298 1396 2388 b 979 2224 1161 2388 1048 2414 z "},"Î":{"ha":718,"x_min":0,"x_max":0,"o":"m 617 1712 b 660 1643 601 1667 614 1643 l 774 1643 b 926 1761 844 1643 892 1700 l 1076 2035 b 1120 2095 1081 2043 1108 2095 b 1122 2036 1132 2095 1123 2044 l 1076 1760 b 1144 1643 1066 1699 1075 1643 l 1263 1643 b 1369 1760 1335 1643 1358 1701 l 1447 2291 b 1377 2407 1457 2351 1447 2407 l 1105 2407 b 950 2292 1036 2407 986 2353 l 640 1759 b 617 1712 631 1744 623 1728 z m 1122 1190 b 1065 1352 1149 1261 1151 1352 l 646 1353 b 471 1191 560 1353 497 1263 l 96 162 b 154 0 70 90 68 0 l 573 0 b 749 162 659 0 722 90 z "},"Ï":{"ha":718,"x_min":0,"x_max":0,"o":"m 1122 1190 b 1065 1352 1149 1261 1151 1352 l 646 1353 b 471 1191 560 1353 497 1263 l 96 162 b 154 0 70 90 68 0 l 573 0 b 749 162 659 0 722 90 z m 1000 1959 b 884 2123 1054 2106 986 2123 b 789 2122 854 2123 822 2122 b 613 1960 703 2122 639 2032 l 557 1805 b 614 1643 530 1733 528 1643 l 768 1643 b 944 1805 854 1643 918 1733 z m 1539 1959 b 1424 2123 1594 2106 1526 2123 b 1329 2122 1394 2123 1362 2122 b 1153 1960 1242 2122 1179 2032 l 1097 1805 b 1154 1643 1070 1733 1068 1643 l 1308 1643 b 1484 1805 1394 1643 1457 1733 z "},"Ð":{"ha":1656,"x_min":0,"x_max":0,"o":"m 347 0 l 1527 0 b 1703 162 1623 0 1674 82 l 1895 692 b 1902 957 1931 789 1940 882 l 1752 1249 b 1582 1352 1721 1311 1666 1352 l 839 1352 b 663 1190 743 1352 692 1270 l 596 1005 b 290 701 540 849 436 802 l 366 562 b 347 0 463 385 125 0 z m 952 39 b 925 117 907 39 911 79 l 1334 1242 b 1418 1319 1348 1280 1373 1319 b 1444 1242 1463 1319 1458 1279 l 1036 117 b 952 39 1022 79 997 39 z "},"Ñ":{"ha":1491,"x_min":0,"x_max":0,"o":"m 1874 1160 b 1806 1352 1906 1245 1908 1352 l 667 1352 b 459 1160 566 1352 490 1245 l 107 193 b 176 0 77 107 74 0 l 551 0 b 759 193 652 0 728 107 l 1141 1243 b 1224 1319 1154 1276 1184 1319 b 1251 1243 1264 1319 1263 1276 l 716 -220 b 739 -498 680 -319 675 -439 l 1044 -776 b 1093 -797 1057 -787 1072 -797 b 1207 -669 1152 -797 1192 -712 z m 1417 1642 l 1575 1642 b 1761 1813 1666 1642 1733 1737 b 1701 1984 1789 1889 1792 1984 l 1632 1984 b 1573 2151 1544 1984 1546 2077 b 1514 2318 1600 2225 1602 2318 l 1356 2318 b 1170 2147 1265 2318 1198 2224 b 1230 1976 1143 2071 1139 1976 l 1299 1976 b 1358 1809 1388 1976 1385 1883 b 1417 1642 1331 1735 1329 1642 z "},"Ò":{"ha":1492,"x_min":0,"x_max":0,"o":"m 96 162 b 154 0 70 90 68 0 l 1335 0 b 1510 162 1421 0 1484 90 l 1884 1190 b 1826 1352 1910 1261 1912 1352 l 646 1352 b 470 1190 559 1352 496 1261 z m 1769 2285 b 1757 2386 1781 2316 1802 2386 b 1698 2363 1738 2386 1716 2375 l 1453 2205 b 1263 1959 1364 2147 1295 2045 l 1207 1804 b 1265 1642 1181 1732 1179 1642 b 1595 1805 1413 1642 1526 1616 z m 759 39 b 732 117 718 39 719 83 l 1141 1242 b 1225 1319 1154 1276 1184 1319 b 1251 1242 1265 1319 1264 1276 l 842 117 b 759 39 829 83 800 39 z "},"Ó":{"ha":1492,"x_min":0,"x_max":0,"o":"m 96 162 b 154 0 70 90 68 0 l 1335 0 b 1510 162 1421 0 1484 90 l 1884 1190 b 1826 1352 1910 1261 1912 1352 l 646 1352 b 470 1190 559 1352 496 1261 z m 1185 1744 b 1198 1642 1174 1713 1153 1642 b 1257 1666 1217 1642 1239 1654 l 1502 1824 b 1691 2070 1591 1881 1660 1984 l 1748 2224 b 1690 2386 1773 2296 1776 2386 b 1595 2388 1657 2386 1625 2388 b 1360 2224 1493 2388 1414 2372 z m 759 39 b 732 117 718 39 719 83 l 1141 1242 b 1225 1319 1154 1276 1184 1319 b 1251 1242 1265 1319 1264 1276 l 842 117 b 759 39 829 83 800 39 z "},"Ô":{"ha":1492,"x_min":0,"x_max":0,"o":"m 998 1711 b 1040 1642 981 1666 995 1642 l 1154 1642 b 1307 1760 1225 1642 1273 1699 l 1457 2035 b 1501 2094 1461 2043 1489 2094 b 1502 2035 1513 2094 1504 2043 l 1457 1759 b 1525 1642 1447 1698 1455 1642 l 1644 1642 b 1749 1759 1713 1642 1742 1699 l 1828 2289 b 1758 2407 1838 2351 1828 2407 l 1487 2407 b 1331 2291 1417 2407 1367 2352 l 1021 1758 b 998 1711 1012 1742 1004 1727 z m 96 162 b 154 0 70 90 68 0 l 1335 0 b 1510 162 1421 0 1484 90 l 1884 1190 b 1826 1352 1910 1261 1912 1352 l 646 1352 b 470 1190 559 1352 496 1261 z m 759 39 b 732 117 718 39 719 83 l 1141 1242 b 1225 1319 1154 1276 1184 1319 b 1251 1242 1265 1319 1264 1276 l 842 117 b 759 39 829 83 800 39 z "},"Õ":{"ha":1492,"x_min":0,"x_max":0,"o":"m 1417 1642 l 1575 1642 b 1761 1813 1666 1642 1733 1737 b 1700 1984 1788 1889 1791 1984 l 1632 1984 b 1573 2151 1544 1984 1546 2077 b 1513 2318 1599 2225 1601 2318 l 1355 2318 b 1169 2147 1264 2318 1197 2224 b 1230 1976 1142 2071 1139 1976 l 1298 1976 b 1358 1809 1387 1976 1384 1883 b 1417 1642 1331 1735 1329 1642 z m 96 162 b 154 0 70 90 68 0 l 1335 0 b 1510 162 1421 0 1484 90 l 1884 1190 b 1826 1352 1910 1261 1912 1352 l 646 1352 b 470 1190 559 1352 496 1261 z m 759 39 b 732 117 718 39 719 83 l 1141 1242 b 1225 1319 1154 1276 1184 1319 b 1251 1242 1265 1319 1264 1276 l 842 117 b 759 39 829 83 800 39 z "},"Ö":{"ha":1492,"x_min":0,"x_max":0,"o":"m 96 162 b 154 0 70 90 68 0 l 1335 0 b 1510 162 1421 0 1484 90 l 1884 1190 b 1826 1352 1910 1261 1912 1352 l 646 1352 b 470 1190 559 1352 496 1261 z m 1381 1958 b 1169 2121 1450 2148 1316 2121 b 994 1959 1083 2121 1020 2030 l 937 1804 b 995 1642 911 1732 909 1642 l 1149 1642 b 1324 1804 1235 1642 1299 1732 z m 1921 1958 b 1709 2121 1990 2148 1856 2121 b 1533 1959 1623 2121 1560 2030 l 1477 1804 b 1535 1642 1451 1732 1449 1642 l 1689 1642 b 1864 1804 1775 1642 1839 1732 z m 759 39 b 732 117 718 39 719 83 l 1141 1242 b 1225 1319 1154 1276 1184 1319 b 1251 1242 1265 1319 1264 1276 l 842 117 b 759 39 829 83 800 39 z "},"×":{"ha":768,"x_min":0,"x_max":0,"o":"m 897 444 b 867 711 937 551 828 604 b 1061 954 904 812 1024 851 b 1036 1120 1086 1021 1054 1069 b 988 1158 1028 1139 1014 1158 b 761 1010 911 1158 836 1010 b 640 1162 685 1010 715 1162 b 564 1124 614 1162 586 1143 b 418 958 509 1074 443 1024 b 439 711 381 854 477 816 b 229 456 401 609 267 558 b 254 290 205 390 236 340 b 301 252 261 271 275 252 b 545 415 379 252 467 415 b 675 241 624 415 597 241 b 752 280 702 241 730 260 b 897 444 806 330 873 379 z "},"Ø":{"ha":1492,"x_min":0,"x_max":0,"o":"m 96 162 b 154 0 67 82 58 0 l 190 -404 l 552 0 l 1335 0 b 1510 162 1430 0 1481 81 l 1884 1190 b 1826 1352 1914 1270 1922 1352 l 1760 1352 l 1703 1678 l 1389 1352 l 646 1352 b 470 1190 550 1352 500 1270 z m 759 39 b 732 117 713 39 718 79 l 1141 1242 b 1225 1319 1155 1280 1179 1319 b 1251 1242 1270 1319 1265 1279 l 842 117 b 759 39 829 79 804 39 z "},"Ù":{"ha":1497,"x_min":0,"x_max":0,"o":"m 107 193 b 176 0 77 107 74 0 l 1314 0 b 1522 193 1416 0 1492 107 l 1874 1160 b 1806 1352 1906 1245 1908 1352 l 1431 1352 b 1223 1160 1329 1352 1254 1245 l 840 109 b 758 33 828 75 798 33 b 731 109 718 33 719 75 l 1116 1160 b 1047 1352 1147 1245 1149 1352 l 669 1352 b 461 1160 568 1352 492 1245 z m 1770 2285 b 1758 2386 1782 2316 1803 2386 b 1699 2363 1739 2386 1717 2375 l 1453 2205 b 1264 1959 1364 2147 1295 2045 l 1208 1804 b 1265 1642 1182 1732 1179 1642 b 1596 1805 1414 1642 1527 1616 z "},"Ú":{"ha":1497,"x_min":0,"x_max":0,"o":"m 107 193 b 176 0 77 107 74 0 l 1314 0 b 1522 193 1416 0 1492 107 l 1874 1160 b 1806 1352 1906 1245 1908 1352 l 1431 1352 b 1223 1160 1329 1352 1254 1245 l 840 109 b 758 33 828 75 798 33 b 731 109 718 33 719 75 l 1116 1160 b 1047 1352 1147 1245 1149 1352 l 669 1352 b 461 1160 568 1352 492 1245 z m 1186 1744 b 1198 1642 1175 1713 1154 1642 b 1257 1666 1217 1642 1240 1654 l 1503 1824 b 1692 2070 1592 1881 1661 1984 l 1748 2224 b 1691 2386 1774 2296 1777 2386 b 1596 2388 1657 2386 1626 2388 b 1360 2224 1494 2388 1415 2372 z "},"Û":{"ha":1497,"x_min":0,"x_max":0,"o":"m 107 193 b 176 0 77 107 74 0 l 1314 0 b 1522 193 1416 0 1492 107 l 1874 1160 b 1806 1352 1906 1245 1908 1352 l 1431 1352 b 1223 1160 1329 1352 1254 1245 l 840 109 b 758 33 828 75 798 33 b 731 109 718 33 719 75 l 1116 1160 b 1047 1352 1147 1245 1149 1352 l 669 1352 b 461 1160 568 1352 492 1245 z m 998 1711 b 1041 1642 982 1666 996 1642 l 1155 1642 b 1308 1760 1225 1642 1274 1699 l 1458 2035 b 1501 2094 1462 2043 1490 2094 b 1503 2035 1514 2094 1505 2043 l 1457 1759 b 1525 1642 1447 1698 1455 1642 l 1645 1642 b 1750 1759 1714 1642 1742 1699 l 1829 2289 b 1759 2407 1839 2351 1829 2407 l 1487 2407 b 1331 2291 1417 2407 1367 2352 l 1021 1758 b 998 1711 1013 1742 1004 1727 z "},"Ü":{"ha":1497,"x_min":0,"x_max":0,"o":"m 107 193 b 176 0 77 107 74 0 l 1314 0 b 1522 193 1416 0 1492 107 l 1874 1160 b 1806 1352 1906 1245 1908 1352 l 1431 1352 b 1223 1160 1329 1352 1254 1245 l 840 109 b 758 33 828 75 798 33 b 731 109 718 33 719 75 l 1116 1160 b 1047 1352 1147 1245 1149 1352 l 669 1352 b 461 1160 568 1352 492 1245 z m 1381 1958 b 1170 2121 1451 2148 1317 2121 b 994 1959 1084 2121 1021 2030 l 938 1804 b 996 1642 912 1732 909 1642 l 1149 1642 b 1325 1804 1236 1642 1299 1732 z m 1921 1958 b 1710 2121 1990 2148 1857 2121 b 1534 1959 1624 2121 1560 2030 l 1478 1804 b 1535 1642 1452 1732 1449 1642 l 1689 1642 b 1865 1804 1775 1642 1839 1732 z "},"Ý":{"ha":1485,"x_min":0,"x_max":0,"o":"m 758 39 b 732 117 718 39 719 83 l 1145 1251 b 1108 1352 1161 1296 1161 1352 l 646 1352 b 470 1190 559 1352 496 1261 l 96 162 b 154 0 70 90 68 0 l 684 0 b 741 -162 770 0 767 -90 b 752 -406 709 -248 705 -349 l 1068 -778 b 1109 -801 1078 -789 1091 -801 b 1198 -699 1156 -801 1186 -730 l 1891 1190 b 1834 1352 1917 1261 1919 1352 l 1364 1352 b 1256 1251 1312 1352 1272 1296 l 842 117 b 758 39 829 83 799 39 z m 1189 1744 b 1201 1642 1177 1713 1156 1642 b 1260 1666 1220 1642 1242 1654 l 1506 1824 b 1695 2070 1594 1881 1664 1984 l 1751 2224 b 1693 2386 1777 2296 1780 2386 b 1598 2388 1660 2386 1628 2388 b 1363 2224 1497 2388 1417 2372 z "},"Þ":{"ha":1499,"x_min":0,"x_max":0,"o":"m -42 -218 b -26 -457 -73 -302 -77 -406 l 286 -773 b 334 -797 298 -785 313 -797 b 445 -671 391 -797 430 -712 l 618 -193 b 827 0 649 -107 725 0 l 1335 0 b 1510 162 1421 0 1484 90 l 1884 1190 b 1826 1352 1910 1261 1912 1352 l 1298 1352 b 1241 1514 1212 1352 1215 1442 b 1248 1871 1288 1642 1337 1790 l 928 2161 b 887 2179 918 2170 905 2179 b 791 2070 837 2179 804 2106 z m 759 39 b 732 117 718 39 719 83 l 1141 1242 b 1225 1319 1154 1276 1184 1319 b 1251 1242 1265 1319 1263 1275 l 842 117 b 759 39 830 83 799 39 z "},"ß":{"ha":1496,"x_min":0,"x_max":0,"o":"m 55 43 b 70 0 48 24 47 0 l 1326 0 b 1518 176 1420 0 1489 98 l 1653 549 b 1628 711 1676 611 1677 684 b 1580 749 1618 717 1575 734 b 1607 766 1584 759 1599 763 b 1714 883 1662 788 1697 834 l 1821 1175 b 1758 1352 1849 1253 1851 1352 l 658 1352 b 467 1175 564 1352 496 1253 l 189 411 b 252 235 161 333 158 235 l 689 235 b 821 356 753 235 801 302 l 937 674 b 1020 751 949 708 979 751 b 1046 673 1060 751 1059 705 l 876 208 b 744 85 857 154 808 85 l 101 85 b 55 43 79 85 62 62 z m 1035 792 b 1008 869 994 792 995 835 l 1143 1242 b 1227 1319 1156 1276 1186 1319 b 1253 1242 1267 1319 1265 1275 l 1118 868 b 1035 792 1105 833 1076 792 z "},"à":{"ha":1497,"x_min":0,"x_max":0,"o":"m 1905 1247 b 1870 1348 1921 1292 1923 1348 l 601 1348 b 491 1247 547 1348 507 1292 l 403 1004 b 439 903 387 959 385 903 l 945 903 b 1223 1315 1103 903 1089 1315 b 1250 1238 1263 1315 1262 1272 l 1122 886 b 1013 785 1106 842 1066 785 l 395 785 b 286 684 342 785 302 729 l 74 101 b 110 0 58 56 56 0 l 1379 0 b 1488 101 1432 0 1472 56 z m 757 35 b 730 111 716 35 717 77 l 933 670 b 1016 747 945 704 975 747 b 1044 670 1057 747 1056 704 l 840 111 b 757 35 827 77 798 35 z m 1768 2281 b 1756 2383 1780 2313 1801 2383 b 1697 2359 1737 2383 1714 2371 l 1451 2201 b 1262 1955 1364 2145 1293 2041 l 1206 1801 b 1263 1638 1180 1729 1177 1638 b 1358 1637 1297 1638 1329 1637 b 1594 1801 1460 1637 1539 1653 z "},"á":{"ha":1497,"x_min":0,"x_max":0,"o":"m 1905 1247 b 1870 1348 1921 1292 1923 1348 l 601 1348 b 491 1247 547 1348 507 1292 l 403 1004 b 439 903 387 959 385 903 l 945 903 b 1223 1315 1103 903 1089 1315 b 1250 1238 1263 1315 1262 1272 l 1122 886 b 1013 785 1106 842 1066 785 l 395 785 b 286 684 342 785 302 729 l 74 101 b 110 0 58 56 56 0 l 1379 0 b 1488 101 1432 0 1472 56 z m 757 35 b 730 111 716 35 717 77 l 933 670 b 1016 747 945 704 975 747 b 1044 670 1057 747 1056 704 l 840 111 b 757 35 827 77 798 35 z m 1184 1740 b 1196 1638 1173 1709 1152 1638 b 1255 1662 1215 1638 1238 1651 l 1501 1820 b 1690 2066 1588 1876 1659 1981 l 1746 2221 b 1689 2383 1773 2293 1775 2383 b 1594 2384 1655 2383 1624 2384 b 1358 2220 1491 2384 1413 2367 z "},"â":{"ha":1497,"x_min":0,"x_max":0,"o":"m 1905 1247 b 1870 1348 1921 1292 1923 1348 l 601 1348 b 491 1247 547 1348 507 1292 l 403 1004 b 439 903 387 959 385 903 l 945 903 b 1223 1315 1103 903 1089 1315 b 1250 1238 1263 1315 1262 1272 l 1122 886 b 1013 785 1106 842 1066 785 l 395 785 b 286 684 342 785 302 729 l 74 101 b 110 0 58 56 56 0 l 1379 0 b 1488 101 1432 0 1472 56 z m 996 1707 b 1039 1638 980 1662 994 1638 l 1153 1638 b 1305 1756 1223 1638 1272 1695 l 1456 2030 b 1499 2090 1460 2039 1488 2090 b 1501 2031 1512 2090 1502 2039 l 1455 1755 b 1523 1638 1446 1695 1454 1638 l 1643 1638 b 1748 1755 1712 1638 1740 1696 l 1827 2286 b 1757 2403 1836 2346 1826 2403 l 1485 2403 b 1329 2287 1415 2403 1365 2348 l 1020 1754 b 996 1707 1010 1739 1002 1723 z m 757 35 b 730 111 716 35 717 77 l 933 670 b 1016 747 945 704 975 747 b 1044 670 1057 747 1056 704 l 840 111 b 757 35 827 77 798 35 z "},"ã":{"ha":1497,"x_min":0,"x_max":0,"o":"m 1905 1247 b 1870 1348 1921 1292 1923 1348 l 601 1348 b 491 1247 547 1348 507 1292 l 403 1004 b 439 903 387 959 385 903 l 945 903 b 1223 1315 1103 903 1089 1315 b 1250 1238 1263 1315 1262 1272 l 1122 886 b 1013 785 1106 842 1066 785 l 395 785 b 286 684 342 785 302 729 l 74 101 b 110 0 58 56 56 0 l 1379 0 b 1488 101 1432 0 1472 56 z m 1415 1638 l 1573 1638 b 1759 1810 1664 1638 1732 1734 b 1699 1980 1787 1886 1790 1980 l 1630 1980 b 1571 2147 1542 1980 1544 2073 b 1512 2314 1598 2221 1600 2314 l 1354 2314 b 1168 2144 1263 2314 1196 2220 b 1228 1972 1141 2068 1137 1972 l 1297 1972 b 1356 1805 1385 1972 1383 1879 b 1415 1638 1329 1731 1327 1638 z m 757 35 b 730 111 716 35 717 77 l 933 670 b 1016 747 945 704 975 747 b 1044 670 1057 747 1056 704 l 840 111 b 757 35 827 77 798 35 z "},"ä":{"ha":1497,"x_min":0,"x_max":0,"o":"m 1905 1247 b 1870 1348 1921 1292 1923 1348 l 601 1348 b 491 1247 547 1348 507 1292 l 403 1004 b 439 903 387 959 385 903 l 945 903 b 1223 1315 1103 903 1089 1315 b 1250 1238 1263 1315 1262 1272 l 1122 886 b 1013 785 1106 842 1066 785 l 395 785 b 286 684 342 785 302 729 l 74 101 b 110 0 58 56 56 0 l 1379 0 b 1488 101 1432 0 1472 56 z m 757 35 b 730 111 716 35 717 77 l 933 670 b 1016 747 945 704 975 747 b 1044 670 1057 747 1056 704 l 840 111 b 757 35 827 77 798 35 z m 1379 1954 b 1263 2119 1433 2102 1365 2119 b 1168 2117 1234 2119 1201 2117 b 992 1955 1082 2117 1019 2027 l 936 1801 b 994 1638 910 1729 907 1638 l 1147 1638 b 1323 1801 1234 1638 1297 1729 z m 1919 1954 b 1803 2119 1973 2102 1905 2119 b 1708 2117 1773 2119 1741 2117 b 1532 1955 1622 2117 1558 2027 l 1476 1801 b 1533 1638 1450 1729 1447 1638 l 1687 1638 b 1863 1801 1773 1638 1837 1729 z "},"å":{"ha":1497,"x_min":0,"x_max":0,"o":"m 1905 1247 b 1870 1348 1921 1292 1923 1348 l 601 1348 b 491 1247 547 1348 507 1292 l 403 1004 b 439 903 387 959 385 903 l 945 903 b 1223 1315 1103 903 1089 1315 b 1250 1238 1263 1315 1262 1272 l 1122 886 b 1013 785 1106 842 1066 785 l 395 785 b 286 684 342 785 302 729 l 74 101 b 110 0 58 56 56 0 l 1379 0 b 1488 101 1432 0 1472 56 z m 1529 1638 b 1705 1801 1625 1638 1676 1720 l 1862 2230 b 1804 2393 1891 2311 1900 2392 l 1427 2395 b 1251 2233 1332 2395 1280 2312 l 1094 1801 b 1152 1638 1065 1720 1056 1638 z m 757 35 b 730 111 716 35 717 77 l 933 670 b 1016 747 945 704 975 747 b 1044 670 1057 747 1056 704 l 840 111 b 757 35 827 77 798 35 z m 1591 2016 b 1440 1876 1566 1948 1522 1876 l 1415 1876 b 1365 2016 1333 1876 1340 1947 b 1516 2156 1390 2085 1434 2156 b 1591 2016 1615 2156 1626 2114 z "},"æ":{"ha":2260,"x_min":0,"x_max":0,"o":"m 74 101 b 110 0 58 56 56 0 l 2141 0 b 2250 101 2195 0 2234 56 l 2339 344 b 2303 445 2355 389 2357 445 l 1796 445 b 1519 33 1638 445 1653 33 b 1491 111 1478 33 1479 77 l 1619 462 b 1729 563 1636 507 1675 563 l 2346 563 b 2455 664 2399 563 2439 619 l 2667 1247 b 2632 1348 2684 1292 2686 1348 l 601 1348 b 491 1247 547 1348 507 1292 l 403 1004 b 439 903 387 959 385 903 l 945 903 b 1223 1315 1103 903 1089 1315 b 1250 1238 1263 1315 1262 1272 l 1122 886 b 1013 785 1106 842 1066 785 l 395 785 b 286 684 342 785 302 729 z m 757 35 b 730 111 716 35 717 77 l 933 670 b 1016 747 945 704 975 747 b 1044 670 1057 747 1056 704 l 840 111 b 757 35 827 77 798 35 z m 1985 1313 b 2012 1237 2026 1313 2024 1271 l 1809 677 b 1726 602 1796 644 1767 602 b 1698 677 1685 602 1685 643 l 1902 1237 b 1985 1313 1914 1272 1944 1313 z "},"ç":{"ha":1524,"x_min":0,"x_max":0,"o":"m 770 -747 b 895 -595 837 -747 878 -640 l 947 -450 b 888 -170 1049 -170 787 -450 b 899 48 906 -121 982 48 l 715 48 b 591 -104 648 48 608 -60 l 543 -236 b 555 -375 528 -277 494 -376 l 591 -374 b 602 -514 651 -374 617 -473 l 550 -658 b 499 -721 543 -676 526 -721 b 514 -438 436 -721 624 -437 l 322 -439 b 197 -595 256 -440 214 -550 b 210 -747 180 -640 142 -747 z m 1137 564 b 775 39 907 564 921 39 b 748 117 734 39 735 83 l 1157 1242 b 1241 1319 1170 1276 1200 1319 b 1268 1242 1282 1319 1280 1276 l 1115 821 b 1173 659 1088 749 1086 659 l 1589 659 b 1765 821 1675 659 1738 749 l 1898 1190 b 1841 1352 1925 1261 1927 1352 l 662 1352 b 486 1190 576 1352 513 1261 l 113 162 b 170 0 86 90 84 0 l 1349 0 b 1525 162 1435 0 1498 90 l 1611 401 b 1554 564 1638 473 1640 564 z "},"è":{"ha":1492,"x_min":0,"x_max":0,"o":"m 74 101 b 110 0 58 56 56 0 l 1379 0 b 1488 101 1432 0 1472 56 l 1577 344 b 1541 445 1593 389 1594 445 l 1034 445 b 757 33 876 445 890 33 b 729 111 716 33 717 77 l 857 462 b 966 563 873 507 913 563 l 1584 563 b 1693 664 1637 563 1676 619 l 1905 1247 b 1870 1348 1921 1292 1923 1348 l 601 1348 b 491 1247 547 1348 507 1292 z m 1223 1313 b 1250 1237 1263 1313 1262 1271 l 1046 677 b 964 602 1034 644 1004 602 b 936 677 923 602 923 643 l 1139 1237 b 1223 1313 1152 1272 1182 1313 z m 1768 2281 b 1756 2383 1780 2313 1801 2383 b 1697 2359 1737 2383 1714 2371 l 1451 2201 b 1262 1955 1364 2145 1293 2041 l 1206 1801 b 1263 1638 1180 1729 1177 1638 b 1358 1637 1297 1638 1329 1637 b 1594 1801 1460 1637 1539 1653 z "},"é":{"ha":1492,"x_min":0,"x_max":0,"o":"m 74 101 b 110 0 58 56 56 0 l 1379 0 b 1488 101 1432 0 1472 56 l 1577 344 b 1541 445 1593 389 1594 445 l 1034 445 b 757 33 876 445 890 33 b 729 111 716 33 717 77 l 857 462 b 966 563 873 507 913 563 l 1584 563 b 1693 664 1637 563 1676 619 l 1905 1247 b 1870 1348 1921 1292 1923 1348 l 601 1348 b 491 1247 547 1348 507 1292 z m 1223 1313 b 1250 1237 1263 1313 1262 1271 l 1046 677 b 964 602 1034 644 1004 602 b 936 677 923 602 923 643 l 1139 1237 b 1223 1313 1152 1272 1182 1313 z m 1184 1740 b 1196 1638 1173 1709 1152 1638 b 1255 1662 1215 1638 1238 1651 l 1501 1820 b 1690 2066 1588 1876 1659 1981 l 1746 2221 b 1689 2383 1773 2293 1775 2383 b 1594 2384 1655 2383 1624 2384 b 1358 2220 1491 2384 1413 2367 z "},"ê":{"ha":1492,"x_min":0,"x_max":0,"o":"m 74 101 b 110 0 58 56 56 0 l 1379 0 b 1488 101 1432 0 1472 56 l 1577 344 b 1541 445 1593 389 1594 445 l 1034 445 b 757 33 876 445 890 33 b 729 111 716 33 717 77 l 857 462 b 966 563 873 507 913 563 l 1584 563 b 1693 664 1637 563 1676 619 l 1905 1247 b 1870 1348 1921 1292 1923 1348 l 601 1348 b 491 1247 547 1348 507 1292 z m 996 1707 b 1039 1638 980 1662 994 1638 l 1153 1638 b 1305 1756 1223 1638 1272 1695 l 1456 2030 b 1499 2090 1460 2039 1488 2090 b 1501 2031 1512 2090 1502 2039 l 1455 1755 b 1523 1638 1446 1695 1454 1638 l 1643 1638 b 1748 1755 1712 1638 1740 1696 l 1827 2286 b 1757 2403 1836 2346 1826 2403 l 1485 2403 b 1329 2287 1415 2403 1365 2348 l 1020 1754 b 996 1707 1010 1739 1002 1723 z m 1223 1313 b 1250 1237 1263 1313 1262 1271 l 1046 677 b 964 602 1034 644 1004 602 b 936 677 923 602 923 643 l 1139 1237 b 1223 1313 1152 1272 1182 1313 z "},"ë":{"ha":1492,"x_min":0,"x_max":0,"o":"m 74 101 b 110 0 58 56 56 0 l 1379 0 b 1488 101 1432 0 1472 56 l 1577 344 b 1541 445 1593 389 1594 445 l 1034 445 b 757 33 876 445 890 33 b 729 111 716 33 717 77 l 857 462 b 966 563 873 507 913 563 l 1584 563 b 1693 664 1637 563 1676 619 l 1905 1247 b 1870 1348 1921 1292 1923 1348 l 601 1348 b 491 1247 547 1348 507 1292 z m 1223 1313 b 1250 1237 1263 1313 1262 1271 l 1046 677 b 964 602 1034 644 1004 602 b 936 677 923 602 923 643 l 1139 1237 b 1223 1313 1152 1272 1182 1313 z m 1379 1954 b 1263 2119 1433 2102 1365 2119 b 1168 2117 1234 2119 1201 2117 b 992 1955 1082 2117 1019 2027 l 936 1801 b 994 1638 910 1729 907 1638 l 1147 1638 b 1323 1801 1234 1638 1297 1729 z m 1919 1954 b 1803 2119 1973 2102 1905 2119 b 1708 2117 1773 2119 1741 2117 b 1532 1955 1622 2117 1558 2027 l 1476 1801 b 1533 1638 1450 1729 1447 1638 l 1687 1638 b 1863 1801 1773 1638 1837 1729 z "},"ì":{"ha":718,"x_min":0,"x_max":0,"o":"m 1122 1190 b 1065 1352 1149 1261 1151 1352 l 646 1353 b 471 1191 560 1353 497 1263 l 96 162 b 154 0 70 90 68 0 l 573 0 b 749 162 659 0 722 90 z m 1389 2286 b 1377 2388 1400 2317 1421 2388 b 1318 2364 1358 2388 1335 2376 l 1072 2206 b 883 1960 985 2150 914 2045 l 827 1805 b 884 1643 800 1733 798 1643 b 979 1642 918 1643 949 1642 b 1214 1806 1081 1642 1160 1658 z "},"í":{"ha":718,"x_min":0,"x_max":0,"o":"m 1122 1190 b 1065 1352 1149 1261 1151 1352 l 646 1353 b 471 1191 560 1353 497 1263 l 96 162 b 154 0 70 90 68 0 l 573 0 b 749 162 659 0 722 90 z m 804 1745 b 817 1643 793 1714 772 1643 b 876 1667 836 1643 858 1655 l 1121 1825 b 1311 2071 1209 1881 1280 1986 l 1367 2226 b 1310 2388 1393 2298 1396 2388 b 979 2224 1161 2388 1048 2414 z "},"î":{"ha":718,"x_min":0,"x_max":0,"o":"m 617 1712 b 660 1643 601 1667 614 1643 l 774 1643 b 926 1761 844 1643 892 1700 l 1076 2035 b 1120 2095 1081 2043 1108 2095 b 1122 2036 1132 2095 1123 2044 l 1076 1760 b 1144 1643 1066 1699 1075 1643 l 1263 1643 b 1369 1760 1335 1643 1358 1701 l 1447 2291 b 1377 2407 1457 2351 1447 2407 l 1105 2407 b 950 2292 1036 2407 986 2353 l 640 1759 b 617 1712 631 1744 623 1728 z m 1122 1190 b 1065 1352 1149 1261 1151 1352 l 646 1353 b 471 1191 560 1353 497 1263 l 96 162 b 154 0 70 90 68 0 l 573 0 b 749 162 659 0 722 90 z "},"ï":{"ha":718,"x_min":0,"x_max":0,"o":"m 1122 1190 b 1065 1352 1149 1261 1151 1352 l 646 1353 b 471 1191 560 1353 497 1263 l 96 162 b 154 0 70 90 68 0 l 573 0 b 749 162 659 0 722 90 z m 1000 1959 b 884 2123 1054 2106 986 2123 b 789 2122 854 2123 822 2122 b 613 1960 703 2122 639 2032 l 557 1805 b 614 1643 530 1733 528 1643 l 768 1643 b 944 1805 854 1643 918 1733 z m 1539 1959 b 1424 2123 1594 2106 1526 2123 b 1329 2122 1394 2123 1362 2122 b 1153 1960 1242 2122 1179 2032 l 1097 1805 b 1154 1643 1070 1733 1068 1643 l 1308 1643 b 1484 1805 1394 1643 1457 1733 z "},"ð":{"ha":1666,"x_min":0,"x_max":0,"o":"m 1765 861 l 1988 1020 l 1871 1153 b 1870 1348 1890 1206 1961 1348 l 601 1348 b 491 1247 547 1348 507 1292 l 439 1105 b 475 1004 423 1060 422 1004 l 982 1004 b 1223 1315 1126 1004 1102 1315 b 1251 1238 1263 1315 1263 1272 l 1159 987 b 1050 886 1143 942 1103 886 l 433 886 b 323 785 379 886 339 830 l 74 101 b 110 0 58 56 56 0 l 1379 0 b 1488 101 1432 0 1472 56 z m 757 35 b 730 112 717 35 718 79 l 969 770 b 1053 848 981 804 1013 848 b 1080 770 1093 848 1093 804 l 840 112 b 757 35 828 78 798 35 z "},"ñ":{"ha":1491,"x_min":0,"x_max":0,"o":"m 1874 1160 b 1806 1352 1906 1245 1908 1352 l 667 1352 b 459 1160 566 1352 490 1245 l 107 193 b 176 0 77 107 74 0 l 551 0 b 759 193 652 0 728 107 l 1141 1243 b 1224 1319 1154 1276 1184 1319 b 1251 1243 1264 1319 1263 1276 l 866 193 b 935 0 836 107 833 0 l 1312 0 b 1520 193 1414 0 1490 107 z m 1417 1642 l 1575 1642 b 1761 1813 1666 1642 1733 1737 b 1701 1984 1789 1889 1792 1984 l 1632 1984 b 1573 2151 1544 1984 1546 2077 b 1514 2318 1600 2225 1602 2318 l 1356 2318 b 1170 2147 1265 2318 1198 2224 b 1230 1976 1143 2071 1139 1976 l 1299 1976 b 1358 1809 1388 1976 1385 1883 b 1417 1642 1331 1735 1329 1642 z "},"ò":{"ha":1492,"x_min":0,"x_max":0,"o":"m 96 162 b 154 0 70 90 68 0 l 1335 0 b 1510 162 1421 0 1484 90 l 1884 1190 b 1826 1352 1910 1261 1912 1352 l 646 1352 b 470 1190 559 1352 496 1261 z m 1769 2285 b 1757 2386 1781 2316 1802 2386 b 1698 2363 1738 2386 1716 2375 l 1453 2205 b 1263 1959 1364 2147 1295 2045 l 1207 1804 b 1265 1642 1181 1732 1179 1642 b 1595 1805 1413 1642 1526 1616 z m 759 39 b 732 117 718 39 719 83 l 1141 1242 b 1225 1319 1154 1276 1184 1319 b 1251 1242 1265 1319 1264 1276 l 842 117 b 759 39 829 83 800 39 z "},"ó":{"ha":1492,"x_min":0,"x_max":0,"o":"m 96 162 b 154 0 70 90 68 0 l 1335 0 b 1510 162 1421 0 1484 90 l 1884 1190 b 1826 1352 1910 1261 1912 1352 l 646 1352 b 470 1190 559 1352 496 1261 z m 1185 1744 b 1198 1642 1174 1713 1153 1642 b 1257 1666 1217 1642 1239 1654 l 1502 1824 b 1691 2070 1591 1881 1660 1984 l 1748 2224 b 1690 2386 1773 2296 1776 2386 b 1595 2388 1657 2386 1625 2388 b 1360 2224 1493 2388 1414 2372 z m 759 39 b 732 117 718 39 719 83 l 1141 1242 b 1225 1319 1154 1276 1184 1319 b 1251 1242 1265 1319 1264 1276 l 842 117 b 759 39 829 83 800 39 z "},"ô":{"ha":1492,"x_min":0,"x_max":0,"o":"m 998 1711 b 1040 1642 981 1666 995 1642 l 1154 1642 b 1307 1760 1225 1642 1273 1699 l 1457 2035 b 1501 2094 1461 2043 1489 2094 b 1502 2035 1513 2094 1504 2043 l 1457 1759 b 1525 1642 1447 1698 1455 1642 l 1644 1642 b 1749 1759 1713 1642 1742 1699 l 1828 2289 b 1758 2407 1838 2351 1828 2407 l 1487 2407 b 1331 2291 1417 2407 1367 2352 l 1021 1758 b 998 1711 1012 1742 1004 1727 z m 96 162 b 154 0 70 90 68 0 l 1335 0 b 1510 162 1421 0 1484 90 l 1884 1190 b 1826 1352 1910 1261 1912 1352 l 646 1352 b 470 1190 559 1352 496 1261 z m 759 39 b 732 117 718 39 719 83 l 1141 1242 b 1225 1319 1154 1276 1184 1319 b 1251 1242 1265 1319 1264 1276 l 842 117 b 759 39 829 83 800 39 z "},"õ":{"ha":1492,"x_min":0,"x_max":0,"o":"m 1417 1642 l 1575 1642 b 1761 1813 1666 1642 1733 1737 b 1700 1984 1788 1889 1791 1984 l 1632 1984 b 1573 2151 1544 1984 1546 2077 b 1513 2318 1599 2225 1601 2318 l 1355 2318 b 1169 2147 1264 2318 1197 2224 b 1230 1976 1142 2071 1139 1976 l 1298 1976 b 1358 1809 1387 1976 1384 1883 b 1417 1642 1331 1735 1329 1642 z m 96 162 b 154 0 70 90 68 0 l 1335 0 b 1510 162 1421 0 1484 90 l 1884 1190 b 1826 1352 1910 1261 1912 1352 l 646 1352 b 470 1190 559 1352 496 1261 z m 759 39 b 732 117 718 39 719 83 l 1141 1242 b 1225 1319 1154 1276 1184 1319 b 1251 1242 1265 1319 1264 1276 l 842 117 b 759 39 829 83 800 39 z "},"ö":{"ha":1492,"x_min":0,"x_max":0,"o":"m 96 162 b 154 0 70 90 68 0 l 1335 0 b 1510 162 1421 0 1484 90 l 1884 1190 b 1826 1352 1910 1261 1912 1352 l 646 1352 b 470 1190 559 1352 496 1261 z m 1381 1958 b 1169 2121 1450 2148 1316 2121 b 994 1959 1083 2121 1020 2030 l 937 1804 b 995 1642 911 1732 909 1642 l 1149 1642 b 1324 1804 1235 1642 1299 1732 z m 1921 1958 b 1709 2121 1990 2148 1856 2121 b 1533 1959 1623 2121 1560 2030 l 1477 1804 b 1535 1642 1451 1732 1449 1642 l 1689 1642 b 1864 1804 1775 1642 1839 1732 z m 759 39 b 732 117 718 39 719 83 l 1141 1242 b 1225 1319 1154 1276 1184 1319 b 1251 1242 1265 1319 1264 1276 l 842 117 b 759 39 829 83 800 39 z "},"÷":{"ha":876,"x_min":0,"x_max":0,"o":"m 696 262 b 639 425 726 344 734 423 l 572 425 b 396 263 476 425 425 343 l 379 216 b 437 54 350 136 341 54 l 504 54 b 680 216 600 54 650 136 z m 1035 1192 b 911 1356 1088 1340 1042 1356 b 735 1194 815 1356 764 1274 l 718 1146 b 775 984 688 1065 680 984 l 842 984 b 1018 1146 938 984 989 1065 z m 1121 732 b 1063 895 1150 813 1159 895 l 490 896 b 313 733 394 896 342 813 l 298 691 b 356 529 269 611 260 529 l 930 529 b 1106 691 1026 529 1077 611 z "},"ø":{"ha":1492,"x_min":0,"x_max":0,"o":"m 83 125 b 203 -79 11 -72 189 68 l 232 -368 l 468 -99 b 642 0 517 -43 576 0 l 1335 0 b 1510 162 1430 0 1481 81 l 1887 1199 b 1833 1352 1916 1276 1924 1352 b 1731 1440 1771 1352 1744 1390 l 1684 1647 l 1486 1444 b 1308 1352 1434 1390 1373 1352 l 646 1352 b 470 1190 550 1352 500 1270 z m 759 39 b 732 117 713 39 718 79 l 1141 1242 b 1225 1319 1155 1280 1179 1319 b 1251 1242 1270 1319 1265 1279 l 842 117 b 759 39 829 79 804 39 z "},"ù":{"ha":1497,"x_min":0,"x_max":0,"o":"m 107 193 b 176 0 77 107 74 0 l 1314 0 b 1522 193 1416 0 1492 107 l 1874 1160 b 1806 1352 1906 1245 1908 1352 l 1431 1352 b 1223 1160 1329 1352 1254 1245 l 840 109 b 758 33 828 75 798 33 b 731 109 718 33 719 75 l 1116 1160 b 1047 1352 1147 1245 1149 1352 l 669 1352 b 461 1160 568 1352 492 1245 z m 1770 2285 b 1758 2386 1782 2316 1803 2386 b 1699 2363 1739 2386 1717 2375 l 1453 2205 b 1264 1959 1364 2147 1295 2045 l 1208 1804 b 1265 1642 1182 1732 1179 1642 b 1596 1805 1414 1642 1527 1616 z "},"ú":{"ha":1497,"x_min":0,"x_max":0,"o":"m 107 193 b 176 0 77 107 74 0 l 1314 0 b 1522 193 1416 0 1492 107 l 1874 1160 b 1806 1352 1906 1245 1908 1352 l 1431 1352 b 1223 1160 1329 1352 1254 1245 l 840 109 b 758 33 828 75 798 33 b 731 109 718 33 719 75 l 1116 1160 b 1047 1352 1147 1245 1149 1352 l 669 1352 b 461 1160 568 1352 492 1245 z m 1186 1744 b 1198 1642 1175 1713 1154 1642 b 1257 1666 1217 1642 1240 1654 l 1503 1824 b 1692 2070 1592 1881 1661 1984 l 1748 2224 b 1691 2386 1774 2296 1777 2386 b 1596 2388 1657 2386 1626 2388 b 1360 2224 1494 2388 1415 2372 z "},"û":{"ha":1497,"x_min":0,"x_max":0,"o":"m 107 193 b 176 0 77 107 74 0 l 1314 0 b 1522 193 1416 0 1492 107 l 1874 1160 b 1806 1352 1906 1245 1908 1352 l 1431 1352 b 1223 1160 1329 1352 1254 1245 l 840 109 b 758 33 828 75 798 33 b 731 109 718 33 719 75 l 1116 1160 b 1047 1352 1147 1245 1149 1352 l 669 1352 b 461 1160 568 1352 492 1245 z m 998 1711 b 1041 1642 982 1666 996 1642 l 1155 1642 b 1308 1760 1225 1642 1274 1699 l 1458 2035 b 1501 2094 1462 2043 1490 2094 b 1503 2035 1514 2094 1505 2043 l 1457 1759 b 1525 1642 1447 1698 1455 1642 l 1645 1642 b 1750 1759 1714 1642 1742 1699 l 1829 2289 b 1759 2407 1839 2351 1829 2407 l 1487 2407 b 1331 2291 1417 2407 1367 2352 l 1021 1758 b 998 1711 1013 1742 1004 1727 z "},"ü":{"ha":1497,"x_min":0,"x_max":0,"o":"m 107 193 b 176 0 77 107 74 0 l 1314 0 b 1522 193 1416 0 1492 107 l 1874 1160 b 1806 1352 1906 1245 1908 1352 l 1431 1352 b 1223 1160 1329 1352 1254 1245 l 840 109 b 758 33 828 75 798 33 b 731 109 718 33 719 75 l 1116 1160 b 1047 1352 1147 1245 1149 1352 l 669 1352 b 461 1160 568 1352 492 1245 z m 1381 1958 b 1170 2121 1451 2148 1317 2121 b 994 1959 1084 2121 1021 2030 l 938 1804 b 996 1642 912 1732 909 1642 l 1149 1642 b 1325 1804 1236 1642 1299 1732 z m 1921 1958 b 1710 2121 1990 2148 1857 2121 b 1534 1959 1624 2121 1560 2030 l 1478 1804 b 1535 1642 1452 1732 1449 1642 l 1689 1642 b 1865 1804 1775 1642 1839 1732 z "},"ý":{"ha":1492,"x_min":0,"x_max":0,"o":"m 758 39 b 731 116 718 39 719 82 l 1133 1211 b 1082 1352 1156 1274 1156 1352 l 646 1352 b 470 1190 559 1352 496 1261 l 96 162 b 154 0 70 90 68 0 l 662 0 b 730 -193 764 0 761 -107 l 564 -647 b 583 -772 549 -688 526 -772 b 649 -749 604 -772 629 -761 l 1191 -433 b 1381 -194 1280 -380 1350 -278 l 1884 1190 b 1826 1352 1910 1261 1912 1352 l 1393 1352 b 1240 1211 1318 1352 1263 1274 l 842 117 b 758 39 829 83 799 39 z m 1185 1744 b 1198 1642 1174 1713 1153 1642 b 1257 1666 1217 1642 1239 1654 l 1502 1824 b 1691 2070 1591 1881 1660 1984 l 1748 2224 b 1690 2386 1773 2296 1776 2386 b 1595 2388 1657 2386 1625 2388 b 1360 2224 1493 2388 1414 2372 z "},"þ":{"ha":1499,"x_min":0,"x_max":0,"o":"m -42 -218 b -26 -457 -73 -302 -77 -406 l 286 -773 b 334 -797 298 -785 313 -797 b 445 -671 391 -797 430 -712 l 618 -193 b 827 0 649 -107 725 0 l 1335 0 b 1510 162 1421 0 1484 90 l 1884 1190 b 1826 1352 1910 1261 1912 1352 l 1298 1352 b 1241 1514 1212 1352 1215 1442 b 1248 1871 1288 1642 1337 1790 l 928 2161 b 887 2179 918 2170 905 2179 b 791 2070 837 2179 804 2106 z m 759 39 b 732 117 718 39 719 83 l 1141 1242 b 1225 1319 1154 1276 1184 1319 b 1251 1242 1265 1319 1263 1275 l 842 117 b 759 39 830 83 799 39 z "},"ÿ":{"ha":1492,"x_min":0,"x_max":0,"o":"m 758 39 b 731 116 718 39 719 82 l 1133 1211 b 1082 1352 1156 1274 1156 1352 l 646 1352 b 470 1190 559 1352 496 1261 l 96 162 b 154 0 70 90 68 0 l 662 0 b 730 -193 764 0 761 -107 l 564 -647 b 583 -772 549 -688 526 -772 b 649 -749 604 -772 629 -761 l 1191 -433 b 1381 -194 1280 -380 1350 -278 l 1884 1190 b 1826 1352 1910 1261 1912 1352 l 1393 1352 b 1240 1211 1318 1352 1263 1274 l 842 117 b 758 39 829 83 799 39 z m 1381 1958 b 1169 2121 1450 2148 1316 2121 b 994 1959 1083 2121 1020 2030 l 937 1804 b 995 1642 911 1732 909 1642 l 1149 1642 b 1324 1804 1235 1642 1299 1732 z m 1921 1958 b 1709 2121 1990 2148 1856 2121 b 1533 1959 1623 2121 1560 2030 l 1477 1804 b 1535 1642 1451 1732 1449 1642 l 1689 1642 b 1864 1804 1775 1642 1839 1732 z "},"Ā":{"ha":1478,"x_min":0,"x_max":0,"o":"m 1330 -2 b 1506 160 1415 -3 1480 89 l 1879 1187 b 1822 1350 1906 1260 1908 1350 l 641 1352 b 465 1190 555 1352 492 1261 l 92 162 b 149 0 65 90 63 0 l 568 0 b 929 520 798 0 782 520 b 911 0 1075 520 682 1 z m 950 578 b 922 654 909 578 910 621 l 1137 1242 b 1220 1319 1149 1276 1179 1319 b 1247 1242 1261 1319 1259 1276 l 1033 654 b 950 578 1021 621 991 578 z m 2005 1958 b 1948 2120 2031 2030 2034 2120 l 1076 2121 b 900 1959 989 2121 926 2030 l 844 1804 b 901 1642 818 1732 815 1642 l 1773 1642 b 1949 1804 1860 1642 1923 1732 z "},"ā":{"ha":1497,"x_min":0,"x_max":0,"o":"m 1905 1247 b 1870 1348 1921 1292 1923 1348 l 601 1348 b 491 1247 547 1348 507 1292 l 403 1004 b 439 903 387 959 385 903 l 945 903 b 1223 1315 1103 903 1089 1315 b 1250 1238 1263 1315 1262 1272 l 1122 886 b 1013 785 1106 842 1066 785 l 395 785 b 286 684 342 785 302 729 l 74 101 b 110 0 58 56 56 0 l 1379 0 b 1488 101 1432 0 1472 56 z m 757 35 b 730 111 716 35 717 77 l 933 670 b 1016 747 945 704 975 747 b 1044 670 1057 747 1056 704 l 840 111 b 757 35 827 77 798 35 z m 2009 1954 b 1951 2117 2035 2026 2037 2117 l 1079 2117 b 903 1955 993 2117 930 2027 l 847 1801 b 905 1638 821 1729 819 1638 l 1777 1638 b 1952 1801 1863 1638 1927 1729 z "},"Ă":{"ha":1478,"x_min":0,"x_max":0,"o":"m 1330 -2 b 1506 160 1415 -3 1480 89 l 1879 1187 b 1822 1350 1906 1260 1908 1350 l 641 1352 b 465 1190 555 1352 492 1261 l 92 162 b 149 0 65 90 63 0 l 568 0 b 929 520 798 0 782 520 b 911 0 1075 520 682 1 z m 1132 1642 l 1573 1642 b 1721 1762 1644 1642 1691 1701 l 1978 2287 b 1992 2320 1983 2298 1988 2309 b 1950 2407 2010 2370 2005 2407 l 1805 2407 b 1666 2285 1733 2407 1691 2345 l 1548 1997 b 1437 1898 1528 1948 1495 1898 b 1397 1997 1380 1898 1381 1948 l 1485 2286 b 1434 2407 1503 2346 1506 2407 l 1279 2407 b 1179 2330 1229 2407 1197 2377 b 1168 2289 1175 2316 1172 2302 l 1067 1760 b 1132 1642 1055 1699 1062 1642 z m 950 578 b 922 654 909 578 910 621 l 1137 1242 b 1220 1319 1149 1276 1179 1319 b 1247 1242 1261 1319 1259 1276 l 1033 654 b 950 578 1021 621 991 578 z "},"ă":{"ha":1497,"x_min":0,"x_max":0,"o":"m 1905 1247 b 1870 1348 1921 1292 1923 1348 l 601 1348 b 491 1247 547 1348 507 1292 l 403 1004 b 439 903 387 959 385 903 l 945 903 b 1223 1315 1103 903 1089 1315 b 1250 1238 1263 1315 1262 1272 l 1122 886 b 1013 785 1106 842 1066 785 l 395 785 b 286 684 342 785 302 729 l 74 101 b 110 0 58 56 56 0 l 1379 0 b 1488 101 1432 0 1472 56 z m 1135 1638 l 1577 1638 b 1723 1758 1647 1638 1694 1697 l 1981 2283 b 1995 2317 1986 2294 1991 2306 b 1953 2403 2013 2367 2008 2403 l 1808 2403 b 1670 2281 1737 2403 1695 2342 l 1551 1992 b 1440 1895 1531 1944 1498 1895 b 1400 1992 1383 1895 1385 1944 l 1488 2282 b 1438 2403 1506 2343 1509 2403 l 1282 2403 b 1172 2285 1211 2403 1184 2344 l 1071 1756 b 1135 1638 1059 1695 1065 1638 z m 757 35 b 730 111 716 35 717 77 l 933 670 b 1016 747 945 704 975 747 b 1044 670 1057 747 1056 704 l 840 111 b 757 35 827 77 798 35 z "},"Ą":{"ha":1478,"x_min":0,"x_max":0,"o":"m 922 0 b 849 -170 886 -53 869 -115 b 586 -450 747 -450 688 -170 l 534 -595 b 547 -747 517 -640 480 -747 l 1107 -747 b 1232 -593 1175 -747 1215 -638 b 1219 -439 1248 -548 1284 -440 l 1033 -438 b 836 -721 918 -437 900 -721 b 831 -661 810 -721 825 -677 l 884 -514 b 998 -374 899 -473 937 -374 l 1033 -375 b 1145 -236 1093 -375 1131 -277 l 1196 -99 b 1221 -1 1207 -66 1218 -33 l 1330 -2 b 1506 160 1416 -2 1479 88 l 1879 1187 b 1822 1350 1906 1260 1908 1350 l 641 1352 b 465 1190 555 1352 492 1261 l 92 162 b 149 0 65 90 63 0 l 568 0 b 743 162 654 0 717 90 l 846 444 b 929 520 859 479 888 520 b 922 0 1080 520 670 0 z m 950 578 b 922 654 909 578 910 621 l 1137 1242 b 1220 1319 1149 1276 1179 1319 b 1247 1242 1261 1319 1259 1276 l 1033 654 b 950 578 1021 621 991 578 z "},"ą":{"ha":1497,"x_min":0,"x_max":0,"o":"m 1905 1247 b 1870 1348 1921 1292 1923 1348 l 601 1348 b 491 1247 547 1348 507 1292 l 403 1004 b 439 903 387 959 385 903 l 945 903 b 1223 1315 1103 903 1089 1315 b 1250 1238 1263 1315 1262 1272 l 1122 886 b 1013 785 1106 842 1066 785 l 395 785 b 286 684 342 785 302 729 l 74 101 b 110 0 58 56 56 0 l 926 0 b 853 -170 890 -53 873 -115 b 590 -450 751 -450 692 -170 l 538 -595 b 551 -747 521 -640 484 -747 l 1112 -747 b 1236 -593 1179 -747 1219 -638 b 1223 -439 1252 -548 1288 -440 l 1037 -438 b 840 -721 922 -437 904 -721 b 835 -661 814 -721 829 -677 l 888 -514 b 1002 -374 903 -473 941 -374 l 1037 -375 b 1149 -236 1097 -375 1135 -277 l 1200 -99 b 1225 0 1212 -66 1223 -32 l 1379 0 b 1488 101 1432 0 1472 56 z m 757 35 b 730 111 716 35 717 77 l 933 670 b 1016 747 945 704 975 747 b 1044 670 1057 747 1056 704 l 840 111 b 757 35 827 77 798 35 z "},"Ć":{"ha":1480,"x_min":0,"x_max":0,"o":"m 1147 636 b 972 474 1061 636 998 546 l 842 116 b 759 39 829 82 800 39 b 732 117 718 39 719 83 l 1141 1242 b 1225 1319 1154 1276 1184 1319 b 1251 1242 1265 1319 1264 1276 l 1125 894 b 1183 732 1099 822 1097 732 l 1599 732 b 1775 894 1685 732 1748 822 l 1882 1190 b 1824 1352 1908 1261 1910 1352 l 646 1352 b 470 1190 559 1352 496 1261 l 96 162 b 154 0 70 90 68 0 l 1333 0 b 1508 162 1419 0 1482 90 l 1622 474 b 1564 636 1648 546 1650 636 z m 1184 1744 b 1196 1642 1173 1713 1152 1642 b 1255 1666 1215 1642 1238 1654 l 1501 1824 b 1690 2070 1590 1881 1659 1984 l 1746 2224 b 1689 2386 1772 2296 1775 2386 b 1594 2388 1655 2386 1624 2388 b 1358 2224 1492 2388 1413 2372 z "},"ć":{"ha":1524,"x_min":0,"x_max":0,"o":"m 1137 564 b 775 39 907 564 921 39 b 748 117 734 39 735 83 l 1157 1242 b 1241 1319 1170 1276 1200 1319 b 1268 1242 1282 1319 1280 1276 l 1115 821 b 1173 659 1088 749 1086 659 l 1589 659 b 1765 821 1675 659 1738 749 l 1898 1190 b 1841 1352 1925 1261 1927 1352 l 662 1352 b 486 1190 576 1352 513 1261 l 113 162 b 170 0 86 90 84 0 l 1349 0 b 1525 162 1435 0 1498 90 l 1611 401 b 1554 564 1638 473 1640 564 z m 1200 1744 b 1213 1642 1189 1713 1168 1642 b 1272 1666 1232 1642 1254 1654 l 1517 1824 b 1706 2070 1606 1881 1675 1984 l 1763 2224 b 1705 2386 1788 2296 1791 2386 b 1610 2388 1672 2386 1640 2388 b 1375 2224 1508 2388 1429 2372 z "},"Ĉ":{"ha":1480,"x_min":0,"x_max":0,"o":"m 996 1711 b 1039 1642 980 1666 994 1642 l 1153 1642 b 1305 1760 1223 1642 1272 1699 l 1456 2035 b 1499 2094 1460 2043 1488 2094 b 1501 2035 1512 2094 1503 2043 l 1455 1759 b 1523 1642 1445 1698 1453 1642 l 1643 1642 b 1748 1759 1712 1642 1740 1699 l 1827 2289 b 1757 2407 1836 2351 1827 2407 l 1485 2407 b 1329 2291 1415 2407 1365 2352 l 1019 1758 b 996 1711 1010 1742 1002 1727 z m 1147 636 b 972 474 1061 636 998 546 l 842 116 b 759 39 829 82 800 39 b 732 117 718 39 719 83 l 1141 1242 b 1225 1319 1154 1276 1184 1319 b 1251 1242 1265 1319 1264 1276 l 1125 894 b 1183 732 1099 822 1097 732 l 1599 732 b 1775 894 1685 732 1748 822 l 1882 1190 b 1824 1352 1908 1261 1910 1352 l 646 1352 b 470 1190 559 1352 496 1261 l 96 162 b 154 0 70 90 68 0 l 1333 0 b 1508 162 1419 0 1482 90 l 1622 474 b 1564 636 1648 546 1650 636 z "},"ĉ":{"ha":1524,"x_min":0,"x_max":0,"o":"m 1013 1711 b 1055 1642 996 1666 1010 1642 l 1169 1642 b 1322 1760 1240 1642 1288 1699 l 1472 2035 b 1516 2094 1476 2043 1504 2094 b 1517 2035 1528 2094 1519 2043 l 1472 1759 b 1539 1642 1461 1698 1470 1642 l 1659 1642 b 1764 1759 1728 1642 1756 1699 l 1843 2289 b 1773 2407 1853 2351 1843 2407 l 1501 2407 b 1345 2291 1432 2407 1381 2352 l 1036 1758 b 1013 1711 1027 1742 1019 1727 z m 1137 564 b 775 39 907 564 921 39 b 748 117 734 39 735 83 l 1157 1242 b 1241 1319 1170 1276 1200 1319 b 1268 1242 1282 1319 1280 1276 l 1115 821 b 1173 659 1088 749 1086 659 l 1589 659 b 1765 821 1675 659 1738 749 l 1898 1190 b 1841 1352 1925 1261 1927 1352 l 662 1352 b 486 1190 576 1352 513 1261 l 113 162 b 170 0 86 90 84 0 l 1349 0 b 1525 162 1435 0 1498 90 l 1611 401 b 1554 564 1638 473 1640 564 z "},"Ċ":{"ha":1480,"x_min":0,"x_max":0,"o":"m 1147 636 b 972 474 1061 636 998 546 l 842 116 b 759 39 829 82 800 39 b 732 117 718 39 719 83 l 1141 1242 b 1225 1319 1154 1276 1184 1319 b 1251 1242 1265 1319 1264 1276 l 1125 894 b 1183 732 1099 822 1097 732 l 1599 732 b 1775 894 1685 732 1748 822 l 1882 1190 b 1824 1352 1908 1261 1910 1352 l 646 1352 b 470 1190 559 1352 496 1261 l 96 162 b 154 0 70 90 68 0 l 1333 0 b 1508 162 1419 0 1482 90 l 1622 474 b 1564 636 1648 546 1650 636 z m 1649 1958 b 1438 2121 1718 2148 1585 2121 b 1262 1959 1352 2121 1289 2030 l 1206 1804 b 1263 1642 1180 1732 1177 1642 l 1417 1642 b 1593 1804 1503 1642 1567 1732 z "},"ċ":{"ha":1524,"x_min":0,"x_max":0,"o":"m 1137 564 b 775 39 907 564 921 39 b 748 117 734 39 735 83 l 1157 1242 b 1241 1319 1170 1276 1200 1319 b 1268 1242 1282 1319 1280 1276 l 1115 821 b 1173 659 1088 749 1086 659 l 1589 659 b 1765 821 1675 659 1738 749 l 1898 1190 b 1841 1352 1925 1261 1927 1352 l 662 1352 b 486 1190 576 1352 513 1261 l 113 162 b 170 0 86 90 84 0 l 1349 0 b 1525 162 1435 0 1498 90 l 1611 401 b 1554 564 1638 473 1640 564 z m 1666 1958 b 1454 2121 1735 2148 1601 2121 b 1278 1959 1368 2121 1305 2030 l 1222 1804 b 1280 1642 1196 1732 1194 1642 l 1434 1642 b 1609 1804 1520 1642 1584 1732 z "},"Č":{"ha":1480,"x_min":0,"x_max":0,"o":"m 1206 1642 l 1478 1642 b 1634 1759 1548 1642 1598 1698 l 1941 2289 b 1963 2336 1950 2305 1958 2321 b 1921 2407 1980 2382 1967 2407 l 1802 2407 b 1649 2289 1732 2407 1683 2351 l 1493 2013 b 1449 1955 1489 2005 1461 1955 b 1449 2014 1437 1955 1447 2006 l 1497 2289 b 1432 2407 1508 2350 1502 2407 l 1318 2407 b 1213 2291 1246 2407 1223 2351 l 1135 1758 b 1206 1642 1127 1697 1137 1642 z m 1147 636 b 972 474 1061 636 998 546 l 842 116 b 759 39 829 82 800 39 b 732 117 718 39 719 83 l 1141 1242 b 1225 1319 1154 1276 1184 1319 b 1251 1242 1265 1319 1264 1276 l 1125 894 b 1183 732 1099 822 1097 732 l 1599 732 b 1775 894 1685 732 1748 822 l 1882 1190 b 1824 1352 1908 1261 1910 1352 l 646 1352 b 470 1190 559 1352 496 1261 l 96 162 b 154 0 70 90 68 0 l 1333 0 b 1508 162 1419 0 1482 90 l 1622 474 b 1564 636 1648 546 1650 636 z "},"č":{"ha":1524,"x_min":0,"x_max":0,"o":"m 1223 1642 l 1495 1642 b 1650 1759 1565 1642 1615 1698 l 1957 2289 b 1980 2336 1966 2305 1974 2321 b 1938 2407 1996 2382 1984 2407 l 1818 2407 b 1665 2289 1748 2407 1699 2351 l 1510 2013 b 1465 1955 1505 2005 1477 1955 b 1465 2014 1453 1955 1463 2006 l 1514 2289 b 1448 2407 1525 2350 1518 2407 l 1334 2407 b 1230 2291 1262 2407 1240 2351 l 1152 1758 b 1223 1642 1143 1697 1153 1642 z m 1137 564 b 775 39 907 564 921 39 b 748 117 734 39 735 83 l 1157 1242 b 1241 1319 1170 1276 1200 1319 b 1268 1242 1282 1319 1280 1276 l 1115 821 b 1173 659 1088 749 1086 659 l 1589 659 b 1765 821 1675 659 1738 749 l 1898 1190 b 1841 1352 1925 1261 1927 1352 l 662 1352 b 486 1190 576 1352 513 1261 l 113 162 b 170 0 86 90 84 0 l 1349 0 b 1525 162 1435 0 1498 90 l 1611 401 b 1554 564 1638 473 1640 564 z "},"Ď":{"ha":1463,"x_min":0,"x_max":0,"o":"m 1207 1642 l 1479 1642 b 1634 1759 1549 1642 1599 1698 l 1942 2289 b 1964 2336 1950 2305 1959 2321 b 1922 2407 1980 2382 1968 2407 l 1803 2407 b 1649 2289 1733 2407 1684 2351 l 1494 2013 b 1449 1955 1489 2005 1461 1955 b 1449 2014 1438 1955 1448 2006 l 1498 2289 b 1432 2407 1509 2350 1503 2407 l 1318 2407 b 1214 2291 1246 2407 1224 2351 l 1136 1758 b 1207 1642 1128 1697 1137 1642 z m 96 162 b 154 0 70 90 68 0 l 1334 0 b 1510 162 1420 0 1483 90 l 1702 692 b 1709 957 1735 781 1744 888 l 1558 1249 b 1389 1352 1531 1305 1465 1352 l 646 1352 b 470 1190 559 1352 496 1261 z m 759 39 b 732 117 718 39 719 83 l 1141 1242 b 1225 1319 1154 1276 1184 1319 b 1251 1242 1265 1319 1264 1276 l 842 117 b 759 39 829 83 800 39 z "},"ď":{"ha":1957,"x_min":0,"x_max":0,"o":"m 2194 2040 b 2181 2142 2205 2072 2226 2142 b 2122 2119 2162 2142 2140 2131 l 1536 1747 b 1347 1503 1447 1691 1378 1589 b 1172 1341 1320 1432 1258 1341 l 642 1341 b 467 1179 556 1341 493 1251 l 93 152 b 151 -10 66 80 64 -10 l 1331 -10 b 1507 152 1417 -10 1480 80 z m 1788 718 b 1800 616 1776 686 1755 616 b 1859 639 1819 616 1841 627 l 2104 798 b 2294 1044 2193 854 2262 958 l 2350 1198 b 2292 1360 2376 1270 2378 1360 b 1962 1197 2144 1360 2031 1386 z m 1218 1302 b 1245 1225 1259 1302 1258 1259 l 836 100 b 752 22 823 66 793 22 b 726 100 711 22 713 66 l 1135 1225 b 1218 1302 1147 1259 1177 1302 z "},"Đ":{"ha":1688,"x_min":0,"x_max":0,"o":"m 347 0 l 1527 0 b 1703 162 1623 0 1674 82 l 1895 692 b 1902 957 1931 789 1940 882 l 1752 1249 b 1582 1352 1721 1311 1666 1352 l 839 1352 b 663 1190 743 1352 692 1270 l 596 1005 b 290 701 540 849 436 802 l 366 562 b 347 0 463 385 125 0 z m 952 39 b 925 117 907 39 911 79 l 1334 1242 b 1418 1319 1348 1280 1373 1319 b 1444 1242 1463 1319 1458 1279 l 1036 117 b 952 39 1022 79 997 39 z "},"đ":{"ha":1656,"x_min":0,"x_max":0,"o":"m 2189 2148 b 2122 2119 2169 2148 2142 2131 l 1536 1747 b 1348 1503 1438 1685 1382 1598 b 1172 1341 1318 1423 1267 1341 l 642 1341 b 467 1179 547 1341 496 1260 l 93 152 b 151 -10 63 71 55 -10 l 1331 -10 b 1507 152 1427 -10 1477 71 l 1881 1180 b 2020 1384 1908 1253 1952 1326 l 2175 1518 b 2115 1823 2115 1622 2061 1674 l 2194 2040 b 2189 2148 2204 2068 2233 2148 z m 1219 1302 b 1245 1225 1263 1302 1259 1262 l 836 100 b 753 22 822 62 798 22 b 726 100 707 22 711 62 l 1135 1225 b 1219 1302 1149 1263 1173 1302 z "},"Ē":{"ha":1480,"x_min":0,"x_max":0,"o":"m 1080 450 b 905 288 994 450 931 359 l 842 116 b 759 39 829 82 800 39 b 731 116 718 39 719 82 l 895 566 b 1027 651 924 644 962 651 b 1062 692 1048 651 1057 677 b 1047 734 1069 711 1069 734 b 1002 861 981 734 982 805 l 1141 1242 b 1225 1319 1154 1276 1184 1319 b 1251 1242 1265 1319 1264 1276 l 1204 1112 b 1262 950 1178 1040 1176 950 l 1682 950 b 1885 1190 1805 950 1855 1107 b 1828 1352 1912 1261 1914 1352 l 646 1352 b 470 1190 559 1352 496 1261 l 96 162 b 154 0 70 90 68 0 l 1336 0 b 1558 288 1474 0 1527 203 b 1500 450 1584 359 1586 450 z m 2011 1958 b 1953 2120 2037 2030 2039 2120 l 1081 2121 b 905 1959 995 2121 932 2030 l 849 1804 b 907 1642 823 1732 821 1642 l 1779 1642 b 1954 1804 1865 1642 1929 1732 z "},"ē":{"ha":1492,"x_min":0,"x_max":0,"o":"m 74 101 b 110 0 58 56 56 0 l 1379 0 b 1488 101 1432 0 1472 56 l 1577 344 b 1541 445 1593 389 1594 445 l 1034 445 b 757 33 876 445 890 33 b 729 111 716 33 717 77 l 857 462 b 966 563 873 507 913 563 l 1584 563 b 1693 664 1637 563 1676 619 l 1905 1247 b 1870 1348 1921 1292 1923 1348 l 601 1348 b 491 1247 547 1348 507 1292 z m 1223 1313 b 1250 1237 1263 1313 1262 1271 l 1046 677 b 964 602 1034 644 1004 602 b 936 677 923 602 923 643 l 1139 1237 b 1223 1313 1152 1272 1182 1313 z m 2009 1954 b 1951 2117 2035 2026 2037 2117 l 1079 2117 b 903 1955 993 2117 930 2027 l 847 1801 b 905 1638 821 1729 819 1638 l 1777 1638 b 1952 1801 1863 1638 1927 1729 z "},"Ĕ":{"ha":1480,"x_min":0,"x_max":0,"o":"m 1080 450 b 905 288 994 450 931 359 l 842 116 b 759 39 829 82 800 39 b 731 116 718 39 719 82 l 895 566 b 1027 651 924 644 962 651 b 1062 692 1048 651 1057 677 b 1047 734 1069 711 1069 734 b 1002 861 981 734 982 805 l 1141 1242 b 1225 1319 1154 1276 1184 1319 b 1251 1242 1265 1319 1264 1276 l 1204 1112 b 1262 950 1178 1040 1176 950 l 1682 950 b 1885 1190 1805 950 1855 1107 b 1828 1352 1912 1261 1914 1352 l 646 1352 b 470 1190 559 1352 496 1261 l 96 162 b 154 0 70 90 68 0 l 1336 0 b 1558 288 1474 0 1527 203 b 1500 450 1584 359 1586 450 z m 1137 1642 l 1579 1642 b 1726 1762 1649 1642 1696 1701 l 1983 2287 b 1997 2320 1988 2298 1993 2309 b 1955 2407 2016 2370 2010 2407 l 1810 2407 b 1672 2285 1739 2407 1697 2345 l 1554 1997 b 1442 1898 1533 1948 1500 1898 b 1402 1997 1385 1898 1387 1948 l 1490 2286 b 1440 2407 1508 2346 1511 2407 l 1284 2407 b 1185 2330 1234 2407 1202 2377 b 1174 2289 1180 2316 1177 2302 l 1073 1760 b 1137 1642 1061 1699 1067 1642 z "},"ĕ":{"ha":1492,"x_min":0,"x_max":0,"o":"m 74 101 b 110 0 58 56 56 0 l 1379 0 b 1488 101 1432 0 1472 56 l 1577 344 b 1541 445 1593 389 1594 445 l 1034 445 b 757 33 876 445 890 33 b 729 111 716 33 717 77 l 857 462 b 966 563 873 507 913 563 l 1584 563 b 1693 664 1637 563 1676 619 l 1905 1247 b 1870 1348 1921 1292 1923 1348 l 601 1348 b 491 1247 547 1348 507 1292 z m 1135 1638 l 1577 1638 b 1723 1758 1647 1638 1694 1697 l 1981 2283 b 1995 2317 1986 2294 1991 2306 b 1953 2403 2013 2367 2008 2403 l 1808 2403 b 1670 2281 1737 2403 1695 2342 l 1551 1992 b 1440 1895 1531 1944 1498 1895 b 1400 1992 1383 1895 1385 1944 l 1488 2282 b 1438 2403 1506 2343 1509 2403 l 1282 2403 b 1172 2285 1211 2403 1184 2344 l 1071 1756 b 1135 1638 1059 1695 1065 1638 z m 1223 1313 b 1250 1237 1263 1313 1262 1271 l 1046 677 b 964 602 1034 644 1004 602 b 936 677 923 602 923 643 l 1139 1237 b 1223 1313 1152 1272 1182 1313 z "},"Ė":{"ha":1480,"x_min":0,"x_max":0,"o":"m 1080 450 b 905 288 994 450 931 359 l 842 116 b 759 39 829 82 800 39 b 731 116 718 39 719 82 l 895 566 b 1027 651 924 644 962 651 b 1062 692 1048 651 1057 677 b 1047 734 1069 711 1069 734 b 1002 861 981 734 982 805 l 1141 1242 b 1225 1319 1154 1276 1184 1319 b 1251 1242 1265 1319 1264 1276 l 1204 1112 b 1262 950 1178 1040 1176 950 l 1682 950 b 1885 1190 1805 950 1855 1107 b 1828 1352 1912 1261 1914 1352 l 646 1352 b 470 1190 559 1352 496 1261 l 96 162 b 154 0 70 90 68 0 l 1336 0 b 1558 288 1474 0 1527 203 b 1500 450 1584 359 1586 450 z m 1651 1958 b 1440 2121 1721 2148 1587 2121 b 1264 1959 1354 2121 1291 2030 l 1208 1804 b 1265 1642 1182 1732 1179 1642 l 1419 1642 b 1595 1804 1506 1642 1569 1732 z "},"ė":{"ha":1492,"x_min":0,"x_max":0,"o":"m 74 101 b 110 0 58 56 56 0 l 1379 0 b 1488 101 1432 0 1472 56 l 1577 344 b 1541 445 1593 389 1594 445 l 1034 445 b 757 33 876 445 890 33 b 729 111 716 33 717 77 l 857 462 b 966 563 873 507 913 563 l 1584 563 b 1693 664 1637 563 1676 619 l 1905 1247 b 1870 1348 1921 1292 1923 1348 l 601 1348 b 491 1247 547 1348 507 1292 z m 1223 1313 b 1250 1237 1263 1313 1262 1271 l 1046 677 b 964 602 1034 644 1004 602 b 936 677 923 602 923 643 l 1139 1237 b 1223 1313 1152 1272 1182 1313 z m 1649 1954 b 1533 2119 1703 2102 1635 2119 b 1438 2117 1503 2119 1471 2117 b 1262 1955 1352 2117 1289 2027 l 1206 1801 b 1263 1638 1180 1729 1177 1638 l 1417 1638 b 1593 1801 1503 1638 1567 1729 z "},"Ę":{"ha":1480,"x_min":0,"x_max":0,"o":"m 1080 450 b 905 288 994 450 931 359 l 842 116 b 759 39 829 82 800 39 b 731 116 718 39 719 82 l 895 566 b 1027 651 924 644 962 651 b 1062 692 1048 651 1057 677 b 1047 734 1069 711 1069 734 b 1002 861 981 734 982 805 l 1141 1242 b 1225 1319 1154 1276 1184 1319 b 1251 1242 1265 1319 1264 1276 l 1204 1112 b 1262 950 1178 1040 1176 950 l 1682 950 b 1885 1190 1805 950 1855 1107 b 1828 1352 1912 1261 1914 1352 l 646 1352 b 470 1190 559 1352 496 1261 l 96 162 b 154 0 70 90 68 0 l 1336 0 b 1558 288 1474 0 1527 203 b 1500 450 1584 359 1586 450 z "},"ę":{"ha":1492,"x_min":0,"x_max":0,"o":"m 74 101 b 110 0 58 56 56 0 l 926 0 b 853 -170 890 -53 873 -115 b 590 -450 751 -450 692 -170 l 538 -595 b 551 -747 521 -640 484 -747 l 1112 -747 b 1236 -593 1179 -747 1219 -638 b 1223 -439 1252 -548 1288 -440 l 1037 -438 b 840 -721 922 -437 904 -721 b 835 -661 814 -721 829 -677 l 888 -514 b 1002 -374 903 -473 941 -374 l 1037 -375 b 1149 -236 1097 -375 1135 -277 l 1200 -99 b 1225 0 1212 -66 1223 -32 l 1379 0 b 1488 101 1432 0 1472 56 l 1577 344 b 1541 445 1593 389 1594 445 l 1034 445 b 757 33 876 445 890 33 b 729 111 716 33 717 77 l 857 462 b 966 563 873 507 913 563 l 1584 563 b 1693 664 1637 563 1676 619 l 1905 1247 b 1870 1348 1921 1292 1923 1348 l 601 1348 b 491 1247 547 1348 507 1292 z m 1223 1313 b 1250 1237 1263 1313 1262 1271 l 1046 677 b 964 602 1034 644 1004 602 b 936 677 923 602 923 643 l 1139 1237 b 1223 1313 1152 1272 1182 1313 z "},"Ě":{"ha":1480,"x_min":0,"x_max":0,"o":"m 1080 450 b 905 288 994 450 931 359 l 842 116 b 759 39 829 82 800 39 b 731 116 718 39 719 82 l 895 566 b 1027 651 924 644 962 651 b 1062 692 1048 651 1057 677 b 1047 734 1069 711 1069 734 b 1002 861 981 734 982 805 l 1141 1242 b 1225 1319 1154 1276 1184 1319 b 1251 1242 1265 1319 1264 1276 l 1204 1112 b 1262 950 1178 1040 1176 950 l 1682 950 b 1885 1190 1805 950 1855 1107 b 1828 1352 1912 1261 1914 1352 l 646 1352 b 470 1190 559 1352 496 1261 l 96 162 b 154 0 70 90 68 0 l 1336 0 b 1558 288 1474 0 1527 203 b 1500 450 1584 359 1586 450 z m 1208 1642 l 1480 1642 b 1636 1759 1550 1642 1600 1698 l 1943 2289 b 1965 2336 1952 2305 1960 2321 b 1923 2407 1982 2382 1969 2407 l 1804 2407 b 1651 2289 1734 2407 1685 2351 l 1495 2013 b 1451 1955 1491 2005 1463 1955 b 1451 2014 1439 1955 1449 2006 l 1499 2289 b 1434 2407 1510 2350 1504 2407 l 1320 2407 b 1215 2291 1248 2407 1225 2351 l 1137 1758 b 1208 1642 1129 1697 1139 1642 z "},"ě":{"ha":1492,"x_min":0,"x_max":0,"o":"m 74 101 b 110 0 58 56 56 0 l 1379 0 b 1488 101 1432 0 1472 56 l 1577 344 b 1541 445 1593 389 1594 445 l 1034 445 b 757 33 876 445 890 33 b 729 111 716 33 717 77 l 857 462 b 966 563 873 507 913 563 l 1584 563 b 1693 664 1637 563 1676 619 l 1905 1247 b 1870 1348 1921 1292 1923 1348 l 601 1348 b 491 1247 547 1348 507 1292 z m 1206 1638 l 1478 1638 b 1634 1755 1548 1638 1599 1695 l 1941 2286 b 1963 2332 1950 2301 1957 2317 b 1921 2403 1980 2378 1967 2403 l 1802 2403 b 1649 2286 1733 2403 1683 2346 l 1493 2009 b 1449 1951 1489 2001 1461 1951 b 1449 2011 1437 1951 1447 2003 l 1497 2285 b 1432 2403 1508 2346 1502 2403 l 1318 2403 b 1213 2287 1245 2403 1223 2346 l 1136 1754 b 1206 1638 1127 1693 1137 1638 z m 1223 1313 b 1250 1237 1263 1313 1262 1271 l 1046 677 b 964 602 1034 644 1004 602 b 936 677 923 602 923 643 l 1139 1237 b 1223 1313 1152 1272 1182 1313 z "},"Ĝ":{"ha":1480,"x_min":0,"x_max":0,"o":"m 991 663 b 1016 594 979 631 1041 663 l 842 117 b 759 39 829 83 800 39 b 732 117 718 39 719 83 l 1141 1242 b 1225 1319 1154 1276 1184 1319 b 1224 846 1365 1319 1002 846 l 1643 846 b 1818 1008 1729 846 1792 937 l 1884 1190 b 1826 1352 1910 1261 1912 1352 l 646 1352 b 470 1190 559 1352 496 1261 l 96 162 b 154 0 70 90 68 0 l 698 0 b 748 -141 773 0 771 -78 b 743 -396 715 -232 690 -334 l 1067 -779 b 1109 -802 1078 -790 1090 -802 b 1197 -699 1154 -802 1185 -730 l 1666 589 b 1608 751 1692 661 1694 751 l 1061 751 b 991 663 1017 751 1002 691 z m 998 1711 b 1040 1642 981 1666 995 1642 l 1154 1642 b 1307 1760 1225 1642 1273 1699 l 1457 2035 b 1501 2094 1461 2043 1489 2094 b 1502 2035 1513 2094 1504 2043 l 1457 1759 b 1525 1642 1447 1698 1455 1642 l 1644 1642 b 1749 1759 1713 1642 1742 1699 l 1828 2289 b 1758 2407 1838 2351 1828 2407 l 1487 2407 b 1331 2291 1417 2407 1367 2352 l 1021 1758 b 998 1711 1012 1742 1004 1727 z "},"ĝ":{"ha":1487,"x_min":0,"x_max":0,"o":"m 991 663 b 1016 594 979 631 1041 663 l 842 117 b 759 39 829 83 800 39 b 732 117 718 39 719 83 l 1141 1242 b 1225 1319 1154 1276 1184 1319 b 1224 846 1364 1319 1002 846 l 1643 846 b 1818 1008 1729 846 1792 937 l 1884 1190 b 1826 1352 1910 1261 1912 1352 l 646 1352 b 470 1190 559 1352 496 1261 l 96 162 b 154 0 70 90 68 0 l 1335 0 b 1510 162 1421 0 1484 90 l 1666 589 b 1608 751 1692 661 1694 751 l 1061 751 b 991 663 1017 751 1002 691 z m 998 1711 b 1040 1642 981 1666 995 1642 l 1154 1642 b 1307 1760 1225 1642 1273 1699 l 1457 2035 b 1501 2094 1461 2043 1489 2094 b 1502 2035 1513 2094 1504 2043 l 1457 1759 b 1525 1642 1447 1698 1455 1642 l 1644 1642 b 1749 1759 1713 1642 1742 1699 l 1828 2289 b 1758 2407 1838 2351 1828 2407 l 1487 2407 b 1331 2291 1417 2407 1367 2352 l 1021 1758 b 998 1711 1012 1742 1004 1727 z "},"Ğ":{"ha":1480,"x_min":0,"x_max":0,"o":"m 991 663 b 1016 594 979 631 1041 663 l 842 117 b 759 39 829 83 800 39 b 732 117 718 39 719 83 l 1141 1242 b 1225 1319 1154 1276 1184 1319 b 1224 846 1365 1319 1002 846 l 1643 846 b 1818 1008 1729 846 1792 937 l 1884 1190 b 1826 1352 1910 1261 1912 1352 l 646 1352 b 470 1190 559 1352 496 1261 l 96 162 b 154 0 70 90 68 0 l 698 0 b 748 -141 773 0 771 -78 b 743 -396 715 -232 690 -334 l 1067 -779 b 1109 -802 1078 -790 1090 -802 b 1197 -699 1154 -802 1185 -730 l 1666 589 b 1608 751 1692 661 1694 751 l 1061 751 b 991 663 1017 751 1002 691 z m 1137 1642 l 1578 1642 b 1725 1762 1649 1642 1695 1701 l 1982 2287 b 1997 2320 1988 2298 1992 2309 b 1954 2407 2015 2370 2009 2407 l 1809 2407 b 1671 2285 1738 2407 1696 2345 l 1553 1997 b 1442 1898 1533 1948 1499 1898 b 1402 1997 1385 1898 1386 1948 l 1489 2286 b 1439 2407 1508 2346 1510 2407 l 1284 2407 b 1184 2330 1234 2407 1202 2377 b 1173 2289 1179 2316 1177 2302 l 1072 1760 b 1137 1642 1060 1699 1067 1642 z "},"ğ":{"ha":1487,"x_min":0,"x_max":0,"o":"m 991 663 b 1016 594 979 631 1041 663 l 842 117 b 759 39 829 83 800 39 b 732 117 718 39 719 83 l 1141 1242 b 1225 1319 1154 1276 1184 1319 b 1224 846 1364 1319 1002 846 l 1643 846 b 1818 1008 1729 846 1792 937 l 1884 1190 b 1826 1352 1910 1261 1912 1352 l 646 1352 b 470 1190 559 1352 496 1261 l 96 162 b 154 0 70 90 68 0 l 1335 0 b 1510 162 1421 0 1484 90 l 1666 589 b 1608 751 1692 661 1694 751 l 1061 751 b 991 663 1017 751 1002 691 z m 1137 1642 l 1578 1642 b 1725 1762 1649 1642 1695 1701 l 1982 2287 b 1997 2320 1988 2298 1992 2309 b 1954 2407 2015 2370 2009 2407 l 1809 2407 b 1671 2285 1738 2407 1696 2345 l 1553 1997 b 1442 1898 1533 1948 1499 1898 b 1402 1997 1385 1898 1386 1948 l 1489 2286 b 1439 2407 1508 2346 1510 2407 l 1284 2407 b 1184 2330 1234 2407 1202 2377 b 1173 2289 1179 2316 1177 2302 l 1072 1760 b 1137 1642 1060 1699 1067 1642 z "},"Ġ":{"ha":1480,"x_min":0,"x_max":0,"o":"m 991 663 b 1016 594 979 631 1041 663 l 842 117 b 759 39 829 83 800 39 b 732 117 718 39 719 83 l 1141 1242 b 1225 1319 1154 1276 1184 1319 b 1224 846 1365 1319 1002 846 l 1643 846 b 1818 1008 1729 846 1792 937 l 1884 1190 b 1826 1352 1910 1261 1912 1352 l 646 1352 b 470 1190 559 1352 496 1261 l 96 162 b 154 0 70 90 68 0 l 698 0 b 748 -141 773 0 771 -78 b 743 -396 715 -232 690 -334 l 1067 -779 b 1109 -802 1078 -790 1090 -802 b 1197 -699 1154 -802 1185 -730 l 1666 589 b 1608 751 1692 661 1694 751 l 1061 751 b 991 663 1017 751 1002 691 z m 1651 1958 b 1439 2121 1720 2148 1586 2121 b 1263 1959 1353 2121 1290 2030 l 1207 1804 b 1265 1642 1181 1732 1179 1642 l 1419 1642 b 1594 1804 1505 1642 1569 1732 z "},"ġ":{"ha":1487,"x_min":0,"x_max":0,"o":"m 991 663 b 1016 594 979 631 1041 663 l 842 117 b 759 39 829 83 800 39 b 732 117 718 39 719 83 l 1141 1242 b 1225 1319 1154 1276 1184 1319 b 1224 846 1364 1319 1002 846 l 1643 846 b 1818 1008 1729 846 1792 937 l 1884 1190 b 1826 1352 1910 1261 1912 1352 l 646 1352 b 470 1190 559 1352 496 1261 l 96 162 b 154 0 70 90 68 0 l 1335 0 b 1510 162 1421 0 1484 90 l 1666 589 b 1608 751 1692 661 1694 751 l 1061 751 b 991 663 1017 751 1002 691 z m 1651 1958 b 1439 2121 1720 2148 1586 2121 b 1263 1959 1353 2121 1290 2030 l 1207 1804 b 1265 1642 1181 1732 1179 1642 l 1419 1642 b 1594 1804 1505 1642 1569 1732 z "},"Ģ":{"ha":1480,"x_min":0,"x_max":0,"o":"m 991 663 b 1016 594 979 631 1041 663 l 842 117 b 759 39 829 83 800 39 b 732 117 718 39 719 83 l 1141 1242 b 1225 1319 1154 1276 1184 1319 b 1224 846 1365 1319 1002 846 l 1643 846 b 1818 1008 1729 846 1792 937 l 1884 1190 b 1826 1352 1910 1261 1912 1352 l 646 1352 b 470 1190 559 1352 496 1261 l 96 162 b 154 0 70 90 68 0 l 698 0 b 748 -141 773 0 771 -78 b 743 -396 715 -232 690 -334 l 1067 -779 b 1109 -802 1078 -790 1090 -802 b 1197 -699 1154 -802 1185 -730 l 1666 589 b 1608 751 1692 661 1694 751 l 1061 751 b 991 663 1017 751 1002 691 z m 872 -159 b 860 -58 884 -128 905 -58 b 801 -81 841 -58 819 -70 l 556 -239 b 366 -486 468 -296 397 -400 l 310 -640 b 368 -802 284 -712 281 -802 b 463 -804 401 -802 433 -804 b 698 -639 565 -804 644 -787 z "},"ģ":{"ha":1487,"x_min":0,"x_max":0,"o":"m 991 663 b 1016 594 979 631 1041 663 l 842 117 b 759 39 829 83 800 39 b 732 117 718 39 719 83 l 1141 1242 b 1225 1319 1154 1276 1184 1319 b 1224 846 1364 1319 1002 846 l 1643 846 b 1818 1008 1729 846 1792 937 l 1884 1190 b 1826 1352 1910 1261 1912 1352 l 646 1352 b 470 1190 559 1352 496 1261 l 96 162 b 154 0 70 90 68 0 l 1335 0 b 1510 162 1421 0 1484 90 l 1666 589 b 1608 751 1692 661 1694 751 l 1061 751 b 991 663 1017 751 1002 691 z m 1770 2287 b 1758 2389 1782 2318 1803 2389 b 1699 2365 1739 2389 1717 2377 l 1453 2207 b 1264 1961 1366 2150 1295 2046 l 1208 1806 b 1265 1644 1182 1734 1179 1644 b 1596 1807 1414 1644 1527 1617 z "},"Ĥ":{"ha":1474,"x_min":0,"x_max":0,"o":"m 1015 757 b 988 834 975 757 975 800 l 1117 1189 b 1059 1351 1143 1261 1145 1351 l 641 1352 b 465 1190 555 1352 492 1261 l 92 162 b 149 0 65 90 63 0 l 568 0 b 743 162 654 0 717 90 l 911 622 b 994 699 923 656 954 699 b 1021 622 1035 699 1034 656 l 854 162 b 911 0 827 90 825 0 l 1331 0 b 1506 162 1417 0 1480 90 l 1880 1190 b 1822 1352 1906 1261 1908 1352 l 1403 1352 b 1227 1190 1317 1352 1254 1261 l 1099 834 b 1015 757 1086 800 1056 757 z m 993 1711 b 1036 1642 977 1666 990 1642 l 1149 1642 b 1302 1760 1220 1642 1268 1699 l 1453 2035 b 1496 2094 1457 2043 1485 2094 b 1497 2035 1508 2094 1499 2043 l 1452 1759 b 1520 1642 1442 1698 1450 1642 l 1639 1642 b 1744 1759 1708 1642 1737 1699 l 1824 2289 b 1754 2407 1833 2351 1824 2407 l 1482 2407 b 1326 2291 1412 2407 1362 2352 l 1016 1758 b 993 1711 1007 1742 999 1727 z "},"ĥ":{"ha":1504,"x_min":0,"x_max":0,"o":"m 1293 2511 b 1336 2442 1276 2466 1291 2442 l 1450 2442 b 1602 2560 1520 2442 1568 2499 l 1752 2835 b 1796 2894 1757 2843 1784 2894 b 1798 2835 1808 2894 1799 2844 l 1752 2559 b 1820 2442 1742 2498 1750 2442 l 1940 2442 b 2045 2559 2011 2442 2035 2500 l 2123 3090 b 2053 3207 2133 3151 2123 3207 l 1782 3207 b 1626 3091 1712 3207 1662 3152 l 1316 2558 b 1293 2511 1308 2542 1299 2527 z m 1230 1312 b 1257 1235 1270 1312 1269 1269 l 844 101 b 880 0 827 56 826 0 l 1342 0 b 1518 162 1428 0 1491 90 l 1891 1190 b 1834 1352 1918 1261 1920 1352 l 1304 1352 b 1247 1514 1218 1352 1221 1442 b 1236 1757 1279 1600 1284 1701 l 920 2129 b 878 2153 910 2141 897 2153 b 790 2050 833 2153 802 2082 l 97 162 b 154 0 71 90 68 0 l 623 0 b 732 101 677 0 716 56 l 1146 1235 b 1230 1312 1158 1269 1189 1312 z "},"Ħ":{"ha":1474,"x_min":0,"x_max":0,"o":"m 1015 757 b 988 834 975 757 975 800 l 1117 1189 b 1059 1351 1143 1261 1145 1351 l 641 1352 b 465 1190 555 1352 492 1261 l 92 162 b 149 0 65 90 63 0 l 568 0 b 743 162 654 0 717 90 l 911 622 b 994 699 923 656 954 699 b 1021 622 1035 699 1034 656 l 854 162 b 911 0 827 90 825 0 l 1331 0 b 1506 162 1417 0 1480 90 l 1880 1190 b 1822 1352 1906 1261 1908 1352 l 1403 1352 b 1227 1190 1317 1352 1254 1261 l 1099 834 b 1015 757 1086 800 1056 757 z m 2005 1958 b 1948 2120 2031 2030 2034 2120 l 1076 2121 b 900 1959 989 2121 926 2030 l 844 1804 b 901 1642 818 1732 815 1642 l 1773 1642 b 1949 1804 1860 1642 1923 1732 z "},"ħ":{"ha":1504,"x_min":0,"x_max":0,"o":"m 1230 1312 b 1257 1235 1270 1312 1269 1269 l 844 101 b 880 0 827 56 826 0 l 1342 0 b 1518 162 1428 0 1491 90 l 1891 1190 b 1834 1352 1918 1261 1920 1352 l 1304 1352 b 1247 1514 1218 1352 1221 1442 b 1236 1757 1279 1600 1284 1701 l 920 2129 b 878 2153 910 2141 897 2153 b 790 2050 833 2153 802 2082 l 97 162 b 154 0 71 90 68 0 l 623 0 b 732 101 677 0 716 56 l 1146 1235 b 1230 1312 1158 1269 1189 1312 z m 2305 2758 b 2247 2920 2332 2830 2334 2920 l 1376 2922 b 1200 2759 1290 2922 1227 2831 l 1144 2605 b 1202 2442 1118 2533 1116 2442 l 2074 2442 b 2249 2605 2160 2442 2223 2533 z "},"Ĩ":{"ha":718,"x_min":0,"x_max":0,"o":"m 1036 1643 l 1194 1643 b 1380 1815 1285 1643 1352 1739 b 1319 1985 1408 1891 1410 1985 l 1251 1985 b 1192 2152 1162 1985 1164 2078 b 1132 2319 1219 2226 1221 2319 l 974 2319 b 789 2148 883 2319 817 2224 b 849 1977 761 2072 758 1977 l 918 1977 b 977 1810 1006 1977 1004 1884 b 1036 1643 950 1736 947 1643 z m 1122 1190 b 1065 1352 1149 1261 1151 1352 l 646 1353 b 471 1191 560 1353 497 1263 l 96 162 b 154 0 70 90 68 0 l 573 0 b 749 162 659 0 722 90 z "},"ĩ":{"ha":718,"x_min":0,"x_max":0,"o":"m 1036 1643 l 1194 1643 b 1380 1815 1285 1643 1352 1739 b 1319 1985 1408 1891 1410 1985 l 1251 1985 b 1192 2152 1162 1985 1164 2078 b 1132 2319 1219 2226 1221 2319 l 974 2319 b 789 2148 883 2319 817 2224 b 849 1977 761 2072 758 1977 l 918 1977 b 977 1810 1006 1977 1004 1884 b 1036 1643 950 1736 947 1643 z m 1122 1190 b 1065 1352 1149 1261 1151 1352 l 646 1353 b 471 1191 560 1353 497 1263 l 96 162 b 154 0 70 90 68 0 l 573 0 b 749 162 659 0 722 90 z "},"Ī":{"ha":718,"x_min":0,"x_max":0,"o":"m 1122 1190 b 1065 1352 1149 1261 1151 1352 l 646 1353 b 471 1191 560 1353 497 1263 l 96 162 b 154 0 70 90 68 0 l 573 0 b 749 162 659 0 722 90 z m 1629 1959 b 1571 2121 1655 2030 1657 2121 l 700 2122 b 524 1960 614 2122 550 2032 l 468 1805 b 526 1643 441 1733 439 1643 l 1398 1643 b 1573 1805 1484 1643 1547 1733 z "},"ī":{"ha":718,"x_min":0,"x_max":0,"o":"m 1122 1190 b 1065 1352 1149 1261 1151 1352 l 646 1353 b 471 1191 560 1353 497 1263 l 96 162 b 154 0 70 90 68 0 l 573 0 b 749 162 659 0 722 90 z m 1629 1959 b 1571 2121 1655 2030 1657 2121 l 700 2122 b 524 1960 614 2122 550 2032 l 468 1805 b 526 1643 441 1733 439 1643 l 1398 1643 b 1573 1805 1484 1643 1547 1733 z "},"Į":{"ha":718,"x_min":0,"x_max":0,"o":"m 474 -593 b 461 -439 490 -548 526 -440 l 275 -438 b 78 -721 161 -437 142 -721 b 73 -661 52 -721 67 -677 l 127 -514 b 240 -374 142 -473 180 -374 l 275 -375 b 388 -236 336 -375 373 -277 l 438 -99 b 426 54 454 -54 492 54 l 241 54 b 92 -170 158 54 109 -121 b -172 -450 -10 -450 -69 -170 l -224 -595 b -211 -747 -241 -640 -277 -747 l 350 -747 b 474 -593 418 -747 458 -638 z m 1122 1190 b 1065 1352 1149 1261 1151 1352 l 646 1353 b 471 1191 560 1353 497 1263 l 96 162 b 154 0 70 90 68 0 l 573 0 b 749 162 659 0 722 90 z "},"į":{"ha":718,"x_min":0,"x_max":0,"o":"m 492 -593 b 479 -439 508 -548 544 -440 l 293 -438 b 96 -721 178 -437 159 -721 b 91 -661 70 -721 85 -677 l 144 -514 b 258 -374 159 -473 197 -374 l 293 -375 b 406 -236 353 -375 391 -277 l 456 -99 b 444 54 472 -54 510 54 l 259 54 b 109 -170 176 54 127 -121 b -154 -450 7 -450 -52 -170 l -206 -595 b -193 -747 -223 -640 -260 -747 l 368 -747 b 492 -593 435 -747 475 -638 z m 1122 1190 b 1065 1352 1149 1261 1151 1352 l 646 1353 b 471 1191 560 1353 497 1263 l 96 162 b 154 0 70 90 68 0 l 573 0 b 749 162 659 0 722 90 z "},"İ":{"ha":718,"x_min":0,"x_max":0,"o":"m 1122 1190 b 1065 1352 1149 1261 1151 1352 l 646 1353 b 471 1191 560 1353 497 1263 l 96 162 b 154 0 70 90 68 0 l 573 0 b 749 162 659 0 722 90 z m 1270 1959 b 1154 2123 1324 2106 1256 2123 b 1059 2122 1124 2123 1092 2122 b 883 1960 972 2122 909 2032 l 827 1805 b 884 1643 800 1733 798 1643 l 1038 1643 b 1214 1805 1124 1643 1187 1733 z "},"ı":{"ha":718,"x_min":0,"x_max":0,"o":"m 1122 1190 b 1065 1352 1149 1261 1151 1352 l 646 1353 b 471 1191 560 1353 497 1263 l 96 162 b 154 0 70 90 68 0 l 573 0 b 749 162 659 0 722 90 z "},"Ĵ":{"ha":732,"x_min":0,"x_max":0,"o":"m 610 1711 b 653 1642 594 1666 608 1642 l 767 1642 b 920 1760 838 1642 886 1699 l 1070 2035 b 1114 2094 1074 2043 1102 2094 b 1115 2035 1126 2094 1117 2043 l 1069 1759 b 1137 1642 1059 1698 1067 1642 l 1257 1642 b 1362 1759 1326 1642 1354 1699 l 1441 2289 b 1371 2407 1451 2351 1441 2407 l 1099 2407 b 943 2291 1029 2407 979 2352 l 633 1758 b 610 1711 625 1742 616 1727 z m 1122 1190 b 1065 1352 1149 1261 1151 1352 l 646 1352 b 469 1190 559 1352 496 1261 l -55 -222 b -40 -460 -87 -307 -92 -408 l 286 -790 b 327 -810 296 -800 309 -810 b 422 -703 376 -810 409 -738 z "},"ĵ":{"ha":732,"x_min":0,"x_max":0,"o":"m 610 1711 b 653 1642 594 1666 608 1642 l 767 1642 b 920 1760 838 1642 886 1699 l 1070 2035 b 1114 2094 1074 2043 1102 2094 b 1115 2035 1126 2094 1117 2043 l 1069 1759 b 1137 1642 1059 1698 1067 1642 l 1257 1642 b 1362 1759 1326 1642 1354 1699 l 1441 2289 b 1371 2407 1451 2351 1441 2407 l 1099 2407 b 943 2291 1029 2407 979 2352 l 633 1758 b 610 1711 625 1742 616 1727 z m 1122 1190 b 1065 1352 1149 1261 1151 1352 l 646 1352 b 469 1190 559 1352 496 1261 l -55 -222 b -40 -460 -87 -307 -92 -408 l 286 -790 b 327 -810 296 -800 309 -810 b 422 -703 376 -810 409 -738 z "},"Ķ":{"ha":1502,"x_min":0,"x_max":0,"o":"m 1022 757 b 995 833 981 757 983 800 l 1257 1554 b 1242 1792 1288 1638 1293 1740 l 916 2125 b 874 2145 905 2135 892 2145 b 782 2039 827 2145 795 2073 l 99 162 b 157 0 73 90 71 0 l 575 0 b 751 162 661 0 724 90 l 918 622 b 1001 699 930 656 960 699 b 1029 622 1042 699 1041 656 l 722 -220 b 743 -452 692 -303 688 -404 l 1079 -743 b 1119 -760 1090 -751 1103 -760 b 1218 -650 1171 -760 1204 -687 l 1611 431 b 1564 669 1645 523 1648 637 b 1395 762 1544 677 1381 723 b 1563 827 1407 796 1538 821 b 1830 1190 1731 871 1787 1070 b 1773 1352 1857 1261 1859 1352 l 1411 1352 b 1235 1190 1324 1352 1261 1261 l 1106 834 b 1022 757 1093 800 1063 757 z m 882 -163 b 869 -61 893 -132 914 -61 b 811 -85 850 -61 829 -73 l 565 -243 b 376 -489 477 -300 408 -403 l 320 -644 b 378 -806 294 -715 292 -806 b 473 -807 411 -806 443 -807 b 707 -643 574 -807 654 -791 z "},"ķ":{"ha":1502,"x_min":0,"x_max":0,"o":"m 1022 757 b 995 833 981 757 983 800 l 1257 1554 b 1242 1792 1288 1638 1293 1740 l 916 2125 b 874 2145 905 2135 892 2145 b 782 2039 827 2145 795 2073 l 99 162 b 157 0 73 90 71 0 l 575 0 b 751 162 661 0 724 90 l 918 622 b 1001 699 930 656 960 699 b 1029 622 1042 699 1041 656 l 861 162 b 919 0 835 90 833 0 l 1338 0 b 1514 162 1424 0 1487 90 l 1611 431 b 1564 669 1645 523 1648 637 b 1395 762 1544 677 1381 723 b 1563 827 1407 796 1538 821 b 1830 1190 1731 871 1787 1070 b 1773 1352 1857 1261 1859 1352 l 1411 1352 b 1235 1190 1324 1352 1261 1261 l 1106 834 b 1022 757 1093 800 1063 757 z m 882 -163 b 869 -61 893 -132 914 -61 b 811 -85 850 -61 829 -73 l 565 -243 b 376 -489 477 -300 408 -403 l 320 -644 b 378 -806 294 -715 292 -806 b 473 -807 411 -806 443 -807 b 707 -643 574 -807 654 -791 z "},"ĸ":{"ha":1502,"x_min":0,"x_max":0,"o":"m 1022 757 b 995 833 981 757 983 800 l 1257 1554 b 1242 1792 1288 1638 1293 1740 l 916 2125 b 874 2145 905 2135 892 2145 b 782 2039 827 2145 795 2073 l 99 162 b 157 0 73 90 71 0 l 575 0 b 751 162 661 0 724 90 l 918 622 b 1001 699 930 656 960 699 b 1029 622 1042 699 1041 656 l 861 162 b 919 0 835 90 833 0 l 1338 0 b 1514 162 1424 0 1487 90 l 1611 431 b 1564 669 1645 523 1648 637 b 1395 762 1544 677 1381 723 b 1563 827 1407 796 1538 821 b 1830 1190 1731 871 1787 1070 b 1773 1352 1857 1261 1859 1352 l 1411 1352 b 1235 1190 1324 1352 1261 1261 l 1106 834 b 1022 757 1093 800 1063 757 z m 882 -163 b 869 -61 893 -132 914 -61 b 811 -85 850 -61 829 -73 l 565 -243 b 376 -489 477 -300 408 -403 l 320 -644 b 378 -806 294 -715 292 -806 b 473 -807 411 -806 443 -807 b 707 -643 574 -807 654 -791 z "},"Ĺ":{"ha":1479,"x_min":0,"x_max":0,"o":"m 873 2144 b 779 2038 824 2144 791 2072 l 96 162 b 154 0 70 90 68 -1 l 1333 5 b 1508 167 1419 5 1482 94 l 1653 565 b 1596 728 1679 637 1681 727 l 1153 730 b 1021 610 1088 731 1041 664 l 842 117 b 759 39 829 83 800 39 b 731 116 718 39 719 82 l 1244 1526 b 1225 1809 1280 1626 1286 1747 l 913 2124 b 873 2144 903 2134 890 2144 z m 1472 2536 b 1484 2434 1460 2504 1439 2434 b 1543 2458 1503 2434 1525 2446 l 1788 2616 b 1978 2862 1876 2672 1946 2776 l 2034 3016 b 1976 3179 2060 3088 2062 3179 b 1881 3180 1943 3179 1911 3180 b 1647 3016 1780 3180 1700 3164 z "},"ĺ":{"ha":726,"x_min":0,"x_max":0,"o":"m 81 157 b 138 -5 54 85 52 -5 l 557 -5 b 734 157 643 -5 707 85 l 1254 1558 b 1239 1796 1286 1643 1290 1744 l 913 2125 b 871 2145 903 2136 889 2145 b 777 2039 823 2145 790 2074 z m 1084 2536 b 1097 2435 1074 2505 1053 2435 b 1156 2458 1116 2435 1138 2447 l 1402 2617 b 1590 2863 1490 2674 1559 2776 l 1647 3017 b 1589 3179 1673 3089 1675 3179 b 1494 3181 1556 3179 1524 3181 b 1259 3016 1392 3181 1313 3164 z "},"Ļ":{"ha":1479,"x_min":0,"x_max":0,"o":"m 873 2144 b 779 2038 824 2144 791 2072 l 96 162 b 154 0 70 90 68 -1 l 1333 5 b 1508 167 1419 5 1482 94 l 1653 565 b 1596 728 1679 637 1681 727 l 1153 730 b 1021 610 1088 731 1041 664 l 842 117 b 759 39 829 83 800 39 b 731 116 718 39 719 82 l 1244 1526 b 1225 1809 1280 1626 1286 1747 l 913 2124 b 873 2144 903 2134 890 2144 z m 882 -163 b 869 -61 893 -132 914 -61 b 811 -85 850 -61 829 -73 l 565 -243 b 376 -489 477 -300 408 -403 l 320 -644 b 378 -806 294 -715 292 -806 b 473 -807 411 -806 443 -807 b 707 -643 574 -807 654 -791 z "},"ļ":{"ha":726,"x_min":0,"x_max":0,"o":"m 81 157 b 138 -5 54 85 52 -5 l 557 -5 b 734 157 643 -5 707 85 l 1254 1558 b 1239 1796 1286 1643 1290 1744 l 913 2125 b 871 2145 903 2136 889 2145 b 777 2039 823 2145 790 2074 z m 454 -163 b 441 -61 465 -132 486 -61 b 382 -85 422 -61 400 -73 l 136 -243 b -52 -489 48 -300 -21 -403 l -109 -644 b -51 -806 -135 -715 -137 -806 b 44 -807 -18 -806 14 -807 b 279 -643 146 -807 225 -791 z "},"Ľ":{"ha":1479,"x_min":0,"x_max":0,"o":"m 873 2144 b 779 2038 824 2144 791 2072 l 96 162 b 154 0 70 90 68 -1 l 1333 5 b 1508 167 1419 5 1482 94 l 1653 565 b 1596 728 1679 637 1681 727 l 1153 730 b 1021 610 1088 731 1041 664 l 842 117 b 759 39 829 83 800 39 b 731 116 718 39 719 82 l 1244 1526 b 1225 1809 1280 1626 1286 1747 l 913 2124 b 873 2144 903 2134 890 2144 z m 1218 1140 b 1230 1038 1206 1109 1185 1038 b 1289 1061 1249 1038 1271 1050 l 1535 1220 b 1724 1466 1623 1277 1692 1379 l 1780 1620 b 1723 1782 1806 1692 1809 1782 b 1628 1784 1689 1782 1657 1784 b 1392 1619 1526 1784 1446 1767 z "},"ľ":{"ha":1195,"x_min":0,"x_max":0,"o":"m 81 157 b 138 -5 54 85 52 -5 l 557 -5 b 734 157 643 -5 707 85 l 1254 1558 b 1239 1796 1286 1643 1290 1744 l 913 2125 b 871 2145 903 2136 889 2145 b 777 2039 823 2145 790 2074 z m 1025 718 b 1038 616 1014 686 993 616 b 1097 639 1057 616 1079 627 l 1342 798 b 1531 1044 1430 854 1500 958 l 1588 1198 b 1530 1360 1614 1270 1616 1360 b 1200 1197 1381 1360 1269 1386 z "},"Ŀ":{"ha":1479,"x_min":0,"x_max":0,"o":"m 1179 1101 b 1262 867 1141 997 1137 867 b 1514 1101 1386 867 1476 998 b 1432 1334 1552 1204 1555 1334 b 1179 1101 1308 1334 1217 1205 z m 873 2144 b 779 2038 824 2144 791 2072 l 96 162 b 154 0 70 90 68 -1 l 1333 5 b 1508 167 1419 5 1482 94 l 1653 565 b 1596 728 1679 637 1681 727 l 1153 730 b 1021 610 1088 731 1041 664 l 842 117 b 759 39 829 83 800 39 b 731 116 718 39 719 82 l 1244 1526 b 1225 1809 1280 1626 1286 1747 l 913 2124 b 873 2144 903 2134 890 2144 z "},"ŀ":{"ha":1123,"x_min":0,"x_max":0,"o":"m 1147 1071 b 1230 837 1109 967 1106 837 b 1483 1071 1354 837 1445 968 b 1400 1303 1520 1175 1524 1303 b 1147 1071 1276 1303 1185 1175 z m 81 157 b 138 -5 54 85 52 -5 l 557 -5 b 734 157 643 -5 707 85 l 1254 1558 b 1239 1796 1286 1643 1290 1744 l 913 2125 b 871 2145 903 2136 889 2145 b 777 2039 823 2145 790 2074 z "},"Ł":{"ha":1672,"x_min":0,"x_max":0,"o":"m 1059 2148 b 972 2038 1013 2148 983 2068 l 742 1407 b 433 1084 684 1249 579 1194 l 510 967 b 512 776 544 916 538 848 l 289 162 b 347 0 260 82 251 -1 l 1525 5 b 1701 167 1621 5 1671 86 l 1845 565 b 1788 728 1874 645 1883 727 l 1345 730 b 1214 610 1273 731 1236 671 l 1035 117 b 951 39 1021 79 996 39 b 924 117 906 39 910 79 l 1160 766 b 1302 954 1187 838 1231 905 l 1493 1084 l 1398 1218 b 1418 1809 1289 1369 1582 1642 l 1106 2124 b 1059 2148 1095 2136 1079 2148 z "},"ł":{"ha":1154,"x_min":0,"x_max":0,"o":"m 1063 2149 b 975 2039 1017 2149 987 2070 l 715 1336 b 578 1126 687 1262 642 1187 l 369 930 l 434 745 b 419 537 456 683 448 612 b 279 157 372 410 326 284 b 336 -5 250 77 239 -5 l 755 -5 b 932 157 850 -5 902 77 l 1073 537 b 1213 738 1101 612 1144 680 l 1444 930 b 1452 1558 1308 1251 1308 1161 b 1437 1796 1487 1653 1494 1737 l 1111 2125 b 1063 2149 1100 2137 1083 2149 z "},"Ń":{"ha":1491,"x_min":0,"x_max":0,"o":"m 1874 1160 b 1806 1352 1906 1245 1908 1352 l 667 1352 b 459 1160 566 1352 490 1245 l 107 193 b 176 0 77 107 74 0 l 551 0 b 759 193 652 0 728 107 l 1141 1243 b 1224 1319 1154 1276 1184 1319 b 1251 1243 1264 1319 1263 1276 l 716 -220 b 739 -498 680 -319 675 -439 l 1044 -776 b 1093 -797 1057 -787 1072 -797 b 1207 -669 1152 -797 1192 -712 z m 1186 1744 b 1198 1642 1175 1713 1154 1642 b 1257 1666 1217 1642 1240 1654 l 1503 1824 b 1692 2070 1592 1881 1661 1984 l 1748 2224 b 1691 2386 1774 2296 1777 2386 b 1596 2388 1657 2386 1626 2388 b 1360 2224 1494 2388 1415 2372 z "},"ń":{"ha":1491,"x_min":0,"x_max":0,"o":"m 1874 1160 b 1806 1352 1906 1245 1908 1352 l 667 1352 b 459 1160 566 1352 490 1245 l 107 193 b 176 0 77 107 74 0 l 551 0 b 759 193 652 0 728 107 l 1141 1243 b 1224 1319 1154 1276 1184 1319 b 1251 1243 1264 1319 1263 1276 l 866 193 b 935 0 836 107 833 0 l 1312 0 b 1520 193 1414 0 1490 107 z m 1186 1744 b 1198 1642 1175 1713 1154 1642 b 1257 1666 1217 1642 1240 1654 l 1503 1824 b 1692 2070 1592 1881 1661 1984 l 1748 2224 b 1691 2386 1774 2296 1777 2386 b 1596 2388 1657 2386 1626 2388 b 1360 2224 1494 2388 1415 2372 z "},"Ņ":{"ha":1491,"x_min":0,"x_max":0,"o":"m 1874 1160 b 1806 1352 1906 1245 1908 1352 l 667 1352 b 459 1160 566 1352 490 1245 l 107 193 b 176 0 77 107 74 0 l 551 0 b 759 193 652 0 728 107 l 1141 1243 b 1224 1319 1154 1276 1184 1319 b 1251 1243 1264 1319 1263 1276 l 716 -220 b 739 -498 680 -319 675 -439 l 1044 -776 b 1093 -797 1057 -787 1072 -797 b 1207 -669 1152 -797 1192 -712 z "},"ņ":{"ha":1491,"x_min":0,"x_max":0,"o":"m 1874 1160 b 1806 1352 1906 1245 1908 1352 l 667 1352 b 459 1160 566 1352 490 1245 l 107 193 b 176 0 77 107 74 0 l 551 0 b 759 193 652 0 728 107 l 1141 1243 b 1224 1319 1154 1276 1184 1319 b 1251 1243 1264 1319 1263 1276 l 866 193 b 935 0 836 107 833 0 l 1312 0 b 1520 193 1414 0 1490 107 z "},"Ň":{"ha":1491,"x_min":0,"x_max":0,"o":"m 1874 1160 b 1806 1352 1906 1245 1908 1352 l 667 1352 b 459 1160 566 1352 490 1245 l 107 193 b 176 0 77 107 74 0 l 551 0 b 759 193 652 0 728 107 l 1141 1243 b 1224 1319 1154 1276 1184 1319 b 1251 1243 1264 1319 1263 1276 l 716 -220 b 739 -498 680 -319 675 -439 l 1044 -776 b 1093 -797 1057 -787 1072 -797 b 1207 -669 1152 -797 1192 -712 z m 1208 1642 l 1480 1642 b 1636 1759 1550 1642 1600 1698 l 1943 2289 b 1965 2336 1952 2305 1960 2321 b 1923 2407 1982 2382 1969 2407 l 1804 2407 b 1651 2289 1734 2407 1685 2351 l 1495 2013 b 1451 1955 1491 2005 1463 1955 b 1451 2014 1439 1955 1449 2006 l 1499 2289 b 1434 2407 1510 2350 1504 2407 l 1320 2407 b 1215 2291 1248 2407 1225 2351 l 1137 1758 b 1208 1642 1129 1697 1139 1642 z "},"ň":{"ha":1491,"x_min":0,"x_max":0,"o":"m 1874 1160 b 1806 1352 1906 1245 1908 1352 l 667 1352 b 459 1160 566 1352 490 1245 l 107 193 b 176 0 77 107 74 0 l 551 0 b 759 193 652 0 728 107 l 1141 1243 b 1224 1319 1154 1276 1184 1319 b 1251 1243 1264 1319 1263 1276 l 866 193 b 935 0 836 107 833 0 l 1312 0 b 1520 193 1414 0 1490 107 z m 1208 1642 l 1480 1642 b 1636 1759 1550 1642 1600 1698 l 1943 2289 b 1965 2336 1952 2305 1960 2321 b 1923 2407 1982 2382 1969 2407 l 1804 2407 b 1651 2289 1734 2407 1685 2351 l 1495 2013 b 1451 1955 1491 2005 1463 1955 b 1451 2014 1439 1955 1449 2006 l 1499 2289 b 1434 2407 1510 2350 1504 2407 l 1320 2407 b 1215 2291 1248 2407 1225 2351 l 1137 1758 b 1208 1642 1129 1697 1139 1642 z "},"ŉ":{"ha":1887,"x_min":0,"x_max":0,"o":"m 2271 1160 b 2203 1352 2302 1245 2304 1352 l 1064 1352 b 856 1160 962 1352 887 1245 l 504 193 b 572 0 473 107 471 0 l 947 0 b 1156 193 1049 0 1125 107 l 1538 1243 b 1621 1319 1550 1276 1581 1319 b 1647 1243 1661 1319 1659 1276 l 1263 193 b 1331 0 1232 107 1230 0 l 1709 0 b 1917 193 1811 0 1887 107 z m 399 987 b 411 885 387 956 366 885 b 470 909 430 885 452 897 l 715 1067 b 905 1313 803 1123 873 1227 l 961 1468 b 903 1630 987 1539 989 1630 b 808 1631 870 1630 838 1631 b 573 1467 707 1631 627 1615 z "},"Ō":{"ha":1492,"x_min":0,"x_max":0,"o":"m 96 162 b 154 0 70 90 68 0 l 1335 0 b 1510 162 1421 0 1484 90 l 1884 1190 b 1826 1352 1910 1261 1912 1352 l 646 1352 b 470 1190 559 1352 496 1261 z m 2010 1958 b 1952 2120 2036 2030 2039 2120 l 1080 2121 b 905 1959 994 2121 931 2030 l 848 1804 b 906 1642 823 1732 820 1642 l 1778 1642 b 1954 1804 1864 1642 1928 1732 z m 759 39 b 732 117 718 39 719 83 l 1141 1242 b 1225 1319 1154 1276 1184 1319 b 1251 1242 1265 1319 1264 1276 l 842 117 b 759 39 829 83 800 39 z "},"ō":{"ha":1492,"x_min":0,"x_max":0,"o":"m 96 162 b 154 0 70 90 68 0 l 1335 0 b 1510 162 1421 0 1484 90 l 1884 1190 b 1826 1352 1910 1261 1912 1352 l 646 1352 b 470 1190 559 1352 496 1261 z m 2010 1958 b 1952 2120 2036 2030 2039 2120 l 1080 2121 b 905 1959 994 2121 931 2030 l 848 1804 b 906 1642 823 1732 820 1642 l 1778 1642 b 1954 1804 1864 1642 1928 1732 z m 759 39 b 732 117 718 39 719 83 l 1141 1242 b 1225 1319 1154 1276 1184 1319 b 1251 1242 1265 1319 1264 1276 l 842 117 b 759 39 829 83 800 39 z "},"Ŏ":{"ha":1492,"x_min":0,"x_max":0,"o":"m 1137 1642 l 1578 1642 b 1725 1762 1649 1642 1695 1701 l 1982 2287 b 1997 2320 1988 2298 1992 2309 b 1954 2407 2015 2370 2009 2407 l 1809 2407 b 1671 2285 1738 2407 1696 2345 l 1553 1997 b 1442 1898 1533 1948 1499 1898 b 1402 1997 1385 1898 1386 1948 l 1489 2286 b 1439 2407 1508 2346 1510 2407 l 1284 2407 b 1184 2330 1234 2407 1202 2377 b 1173 2289 1179 2316 1177 2302 l 1072 1760 b 1137 1642 1060 1699 1067 1642 z m 96 162 b 154 0 70 90 68 0 l 1335 0 b 1510 162 1421 0 1484 90 l 1884 1190 b 1826 1352 1910 1261 1912 1352 l 646 1352 b 470 1190 559 1352 496 1261 z m 759 39 b 732 117 718 39 719 83 l 1141 1242 b 1225 1319 1154 1276 1184 1319 b 1251 1242 1265 1319 1264 1276 l 842 117 b 759 39 829 83 800 39 z "},"ŏ":{"ha":1492,"x_min":0,"x_max":0,"o":"m 1137 1642 l 1578 1642 b 1725 1762 1649 1642 1695 1701 l 1982 2287 b 1997 2320 1988 2298 1992 2309 b 1954 2407 2015 2370 2009 2407 l 1809 2407 b 1671 2285 1738 2407 1696 2345 l 1553 1997 b 1442 1898 1533 1948 1499 1898 b 1402 1997 1385 1898 1386 1948 l 1489 2286 b 1439 2407 1508 2346 1510 2407 l 1284 2407 b 1184 2330 1234 2407 1202 2377 b 1173 2289 1179 2316 1177 2302 l 1072 1760 b 1137 1642 1060 1699 1067 1642 z m 96 162 b 154 0 70 90 68 0 l 1335 0 b 1510 162 1421 0 1484 90 l 1884 1190 b 1826 1352 1910 1261 1912 1352 l 646 1352 b 470 1190 559 1352 496 1261 z m 759 39 b 732 117 718 39 719 83 l 1141 1242 b 1225 1319 1154 1276 1184 1319 b 1251 1242 1265 1319 1264 1276 l 842 117 b 759 39 829 83 800 39 z "},"Ő":{"ha":1492,"x_min":0,"x_max":0,"o":"m 96 162 b 154 0 70 90 68 0 l 1335 0 b 1510 162 1421 0 1484 90 l 1884 1190 b 1826 1352 1910 1261 1912 1352 l 646 1352 b 470 1190 559 1352 496 1261 z m 951 1744 b 964 1642 940 1713 919 1642 b 1023 1666 983 1642 1005 1654 l 1268 1824 b 1457 2070 1357 1881 1426 1984 l 1514 2224 b 1456 2386 1539 2296 1542 2386 b 1361 2388 1423 2386 1391 2388 b 1126 2224 1259 2388 1180 2372 z m 1420 1744 b 1432 1642 1409 1713 1388 1642 b 1491 1666 1451 1642 1474 1654 l 1737 1824 b 1926 2070 1826 1881 1895 1984 l 1982 2224 b 1925 2386 2008 2296 2011 2386 b 1830 2388 1891 2386 1860 2388 b 1594 2224 1728 2388 1649 2372 z m 759 39 b 732 117 718 39 719 83 l 1141 1242 b 1225 1319 1154 1276 1184 1319 b 1251 1242 1265 1319 1264 1276 l 842 117 b 759 39 829 83 800 39 z "},"ő":{"ha":1492,"x_min":0,"x_max":0,"o":"m 96 162 b 154 0 70 90 68 0 l 1335 0 b 1510 162 1421 0 1484 90 l 1884 1190 b 1826 1352 1910 1261 1912 1352 l 646 1352 b 470 1190 559 1352 496 1261 z m 951 1744 b 964 1642 940 1713 919 1642 b 1023 1666 983 1642 1005 1654 l 1268 1824 b 1457 2070 1357 1881 1426 1984 l 1514 2224 b 1456 2386 1539 2296 1542 2386 b 1361 2388 1423 2386 1391 2388 b 1126 2224 1259 2388 1180 2372 z m 1420 1744 b 1432 1642 1409 1713 1388 1642 b 1491 1666 1451 1642 1474 1654 l 1737 1824 b 1926 2070 1826 1881 1895 1984 l 1982 2224 b 1925 2386 2008 2296 2011 2386 b 1830 2388 1891 2386 1860 2388 b 1594 2224 1728 2388 1649 2372 z m 759 39 b 732 117 718 39 719 83 l 1141 1242 b 1225 1319 1154 1276 1184 1319 b 1251 1242 1265 1319 1264 1276 l 842 117 b 759 39 829 83 800 39 z "},"Œ":{"ha":2254,"x_min":0,"x_max":0,"o":"m 1843 450 b 1667 288 1756 450 1693 359 l 1604 116 b 1521 39 1592 82 1562 39 b 1493 116 1480 39 1481 82 l 1657 566 b 1789 651 1686 644 1724 651 b 1824 692 1810 651 1819 677 b 1809 734 1831 711 1832 734 b 1765 861 1743 734 1744 805 l 1903 1242 b 1987 1319 1916 1276 1946 1319 b 2013 1242 2028 1319 2026 1276 l 1967 1112 b 2024 950 1940 1040 1938 950 l 2444 950 b 2648 1190 2568 950 2618 1107 b 2590 1352 2674 1261 2676 1352 l 1408 1352 b 1232 1190 1322 1352 1259 1261 l 859 162 b 916 0 832 90 830 0 l 2098 0 b 2320 288 2237 0 2289 203 b 2262 450 2346 359 2348 450 z m 96 162 b 154 0 70 90 68 0 l 1335 0 b 1510 162 1421 0 1484 90 l 1884 1190 b 1826 1352 1910 1261 1912 1352 l 646 1352 b 470 1190 559 1352 496 1261 z m 759 39 b 732 117 718 39 719 83 l 1141 1242 b 1225 1319 1154 1276 1184 1319 b 1251 1242 1265 1319 1264 1276 l 842 117 b 759 39 829 83 800 39 z "},"œ":{"ha":2252,"x_min":0,"x_max":0,"o":"m 838 101 b 873 0 821 56 820 0 l 2142 0 b 2252 101 2196 0 2235 56 l 2340 345 b 2304 446 2357 390 2358 446 l 1798 446 b 1520 33 1640 446 1654 33 b 1493 111 1480 33 1480 77 l 1621 463 b 1731 565 1637 507 1676 565 l 2348 565 b 2457 665 2401 565 2441 621 l 2671 1251 b 2634 1352 2687 1296 2687 1352 l 1365 1352 b 1257 1251 1312 1352 1273 1296 z m 1988 1317 b 2015 1240 2028 1317 2027 1274 l 1811 680 b 1728 604 1798 646 1769 604 b 1700 680 1687 604 1687 645 l 1904 1240 b 1988 1317 1917 1274 1947 1317 z m 96 162 b 154 0 70 90 68 0 l 1335 0 b 1510 162 1421 0 1484 90 l 1884 1190 b 1826 1352 1910 1261 1912 1352 l 646 1352 b 470 1190 559 1352 496 1261 z m 759 39 b 732 117 718 39 719 83 l 1141 1242 b 1225 1319 1154 1276 1184 1319 b 1251 1242 1265 1319 1264 1276 l 842 117 b 759 39 829 83 800 39 z "},"Ŕ":{"ha":1482,"x_min":0,"x_max":0,"o":"m 1329 -7 b 1505 155 1415 -7 1479 84 l 1612 450 b 1562 682 1645 541 1649 653 b 1495 721 1548 687 1489 702 b 1554 745 1501 736 1544 743 b 1727 919 1640 764 1699 844 l 1823 1183 b 1765 1345 1849 1255 1851 1345 l 641 1347 b 465 1185 555 1347 491 1257 l 91 157 b 149 -5 65 85 62 -5 l 567 -5 b 743 157 653 -5 717 85 l 905 604 b 989 681 918 637 948 681 b 1016 604 1029 681 1028 637 l 853 157 b 911 -5 827 85 825 -4 z m 1010 738 b 982 814 969 738 970 781 l 1136 1238 b 1219 1314 1148 1272 1179 1314 b 1246 1238 1260 1314 1259 1272 l 1093 814 b 1010 738 1080 781 1050 738 z m 1181 1740 b 1193 1638 1169 1708 1148 1638 b 1251 1661 1212 1638 1234 1649 l 1497 1820 b 1686 2065 1586 1876 1655 1979 l 1742 2220 b 1685 2382 1769 2292 1771 2382 b 1355 2219 1537 2382 1423 2408 z "},"ŕ":{"ha":1491,"x_min":0,"x_max":0,"o":"m 1874 1160 b 1806 1352 1905 1245 1908 1352 l 667 1352 b 459 1160 566 1352 490 1245 l 107 193 b 176 0 77 107 74 0 l 551 0 b 759 193 652 0 728 107 l 1141 1243 b 1224 1319 1154 1276 1184 1319 b 1251 1243 1264 1319 1263 1276 b 1137 936 1213 1141 1175 1038 b 1205 744 1106 850 1103 744 l 1583 744 b 1792 936 1684 744 1761 851 z m 1185 1744 b 1198 1642 1174 1713 1153 1642 b 1257 1666 1217 1642 1239 1654 l 1502 1824 b 1691 2070 1591 1881 1660 1984 l 1748 2224 b 1690 2386 1773 2296 1776 2386 b 1595 2388 1657 2386 1625 2388 b 1360 2224 1493 2388 1414 2372 z "},"Ŗ":{"ha":1482,"x_min":0,"x_max":0,"o":"m 1329 -7 b 1505 155 1415 -7 1479 84 l 1612 450 b 1562 682 1645 541 1649 653 b 1495 721 1548 687 1489 702 b 1554 745 1501 736 1544 743 b 1727 919 1640 764 1699 844 l 1823 1183 b 1765 1345 1849 1255 1851 1345 l 641 1347 b 465 1185 555 1347 491 1257 l 91 157 b 149 -5 65 85 62 -5 l 567 -5 b 743 157 653 -5 717 85 l 905 604 b 989 681 918 637 948 681 b 1016 604 1029 681 1028 637 l 853 157 b 911 -5 827 85 825 -4 z m 1010 738 b 982 814 969 738 970 781 l 1136 1238 b 1219 1314 1148 1272 1179 1314 b 1246 1238 1260 1314 1259 1272 l 1093 814 b 1010 738 1080 781 1050 738 z m 882 -163 b 869 -61 893 -132 914 -61 b 811 -85 850 -61 829 -73 l 565 -243 b 376 -489 477 -300 408 -403 l 320 -644 b 378 -806 294 -715 292 -806 b 473 -807 411 -806 443 -807 b 707 -643 574 -807 654 -791 z "},"ŗ":{"ha":1491,"x_min":0,"x_max":0,"o":"m 1874 1160 b 1806 1352 1905 1245 1908 1352 l 667 1352 b 459 1160 566 1352 490 1245 l 107 193 b 176 0 77 107 74 0 l 551 0 b 759 193 652 0 728 107 l 1141 1243 b 1224 1319 1154 1276 1184 1319 b 1251 1243 1264 1319 1263 1276 b 1137 936 1213 1141 1175 1038 b 1205 744 1106 850 1103 744 l 1583 744 b 1792 936 1684 744 1761 851 z m 882 -163 b 869 -61 893 -132 914 -61 b 811 -85 850 -61 829 -73 l 565 -243 b 376 -489 477 -300 408 -403 l 320 -644 b 378 -806 294 -715 292 -806 b 473 -807 411 -806 443 -807 b 707 -643 574 -807 654 -791 z "},"Ř":{"ha":1482,"x_min":0,"x_max":0,"o":"m 1329 -7 b 1505 155 1415 -7 1479 84 l 1612 450 b 1562 682 1645 541 1649 653 b 1495 721 1548 687 1489 702 b 1554 745 1501 736 1544 743 b 1727 919 1640 764 1699 844 l 1823 1183 b 1765 1345 1849 1255 1851 1345 l 641 1347 b 465 1185 555 1347 491 1257 l 91 157 b 149 -5 65 85 62 -5 l 567 -5 b 743 157 653 -5 717 85 l 905 604 b 989 681 918 637 948 681 b 1016 604 1029 681 1028 637 l 853 157 b 911 -5 827 85 825 -4 z m 1203 1637 l 1475 1637 b 1630 1754 1545 1637 1595 1693 l 1937 2285 b 1959 2332 1946 2300 1954 2316 b 1917 2402 1976 2377 1963 2402 l 1798 2402 b 1645 2285 1728 2402 1679 2346 l 1489 2009 b 1445 1950 1485 2001 1457 1950 b 1444 2009 1434 1950 1443 2001 l 1494 2284 b 1428 2402 1505 2345 1498 2402 l 1314 2402 b 1210 2286 1244 2402 1218 2346 l 1132 1753 b 1203 1637 1123 1692 1133 1637 z m 1010 738 b 982 814 969 738 970 781 l 1136 1238 b 1219 1314 1148 1272 1179 1314 b 1246 1238 1260 1314 1259 1272 l 1093 814 b 1010 738 1080 781 1050 738 z "},"ř":{"ha":1491,"x_min":0,"x_max":0,"o":"m 1874 1160 b 1806 1352 1905 1245 1908 1352 l 667 1352 b 459 1160 566 1352 490 1245 l 107 193 b 176 0 77 107 74 0 l 551 0 b 759 193 652 0 728 107 l 1141 1243 b 1224 1319 1154 1276 1184 1319 b 1251 1243 1264 1319 1263 1276 b 1137 936 1213 1141 1175 1038 b 1205 744 1106 850 1103 744 l 1583 744 b 1792 936 1684 744 1761 851 z m 1208 1642 l 1480 1642 b 1635 1759 1550 1642 1600 1698 l 1942 2289 b 1965 2336 1951 2305 1959 2321 b 1923 2407 1981 2382 1969 2407 l 1803 2407 b 1650 2289 1733 2407 1685 2351 l 1495 2013 b 1450 1955 1490 2005 1462 1955 b 1450 2014 1438 1955 1449 2006 l 1499 2289 b 1433 2407 1510 2350 1503 2407 l 1319 2407 b 1215 2291 1247 2407 1225 2351 l 1137 1758 b 1208 1642 1128 1697 1138 1642 z "},"Ś":{"ha":1485,"x_min":0,"x_max":0,"o":"m 378 557 b 170 365 277 557 201 450 l 107 193 b 176 0 77 107 74 0 l 1313 0 b 1521 193 1415 0 1491 107 l 1655 559 b 1586 751 1686 644 1688 751 l 1101 751 b 1032 943 999 751 1001 858 l 1141 1242 b 1225 1319 1154 1276 1184 1319 b 1252 1242 1265 1319 1264 1276 l 1178 1039 b 1246 846 1147 954 1144 846 l 1621 846 b 1873 1160 1777 846 1837 1059 b 1805 1352 1904 1245 1906 1352 l 667 1352 b 460 1160 566 1352 491 1244 l 344 838 b 412 646 313 753 311 646 l 896 646 b 964 454 998 646 996 539 l 842 117 b 759 39 829 83 800 39 b 731 116 718 39 719 82 l 822 365 b 753 557 853 450 855 557 z m 1185 1744 b 1198 1642 1174 1713 1153 1642 b 1257 1666 1217 1642 1239 1654 l 1502 1824 b 1691 2070 1591 1881 1660 1984 l 1748 2224 b 1690 2386 1773 2296 1776 2386 b 1595 2388 1657 2386 1625 2388 b 1360 2224 1493 2388 1414 2372 z "},"ś":{"ha":1485,"x_min":0,"x_max":0,"o":"m 378 557 b 170 365 277 557 201 450 l 107 193 b 176 0 77 107 74 0 l 1313 0 b 1521 193 1415 0 1491 107 l 1655 559 b 1586 751 1686 644 1688 751 l 1101 751 b 1032 943 999 751 1001 858 l 1141 1242 b 1225 1319 1154 1276 1184 1319 b 1252 1242 1265 1319 1264 1276 l 1178 1039 b 1246 846 1147 954 1144 846 l 1621 846 b 1873 1160 1777 846 1837 1059 b 1805 1352 1904 1245 1906 1352 l 667 1352 b 460 1160 566 1352 491 1244 l 344 838 b 412 646 313 753 311 646 l 896 646 b 964 454 998 646 996 539 l 842 117 b 759 39 829 83 800 39 b 731 116 718 39 719 82 l 822 365 b 753 557 853 450 855 557 z m 1185 1744 b 1198 1642 1174 1713 1153 1642 b 1257 1666 1217 1642 1239 1654 l 1502 1824 b 1691 2070 1591 1881 1660 1984 l 1748 2224 b 1690 2386 1773 2296 1776 2386 b 1595 2388 1657 2386 1625 2388 b 1360 2224 1493 2388 1414 2372 z "},"Ŝ":{"ha":1485,"x_min":0,"x_max":0,"o":"m 378 557 b 170 365 277 557 201 450 l 107 193 b 176 0 77 107 74 0 l 1313 0 b 1521 193 1415 0 1491 107 l 1655 559 b 1586 751 1686 644 1688 751 l 1101 751 b 1032 943 999 751 1001 858 l 1141 1242 b 1225 1319 1154 1276 1184 1319 b 1252 1242 1265 1319 1264 1276 l 1178 1039 b 1246 846 1147 954 1144 846 l 1621 846 b 1873 1160 1777 846 1837 1059 b 1805 1352 1904 1245 1906 1352 l 667 1352 b 460 1160 566 1352 491 1244 l 344 838 b 412 646 313 753 311 646 l 896 646 b 964 454 998 646 996 539 l 842 117 b 759 39 829 83 800 39 b 731 116 718 39 719 82 l 822 365 b 753 557 853 450 855 557 z m 998 1711 b 1040 1642 981 1666 995 1642 l 1154 1642 b 1307 1760 1225 1642 1273 1699 l 1457 2035 b 1501 2094 1461 2043 1489 2094 b 1502 2035 1513 2094 1504 2043 l 1457 1759 b 1525 1642 1447 1698 1455 1642 l 1644 1642 b 1749 1759 1713 1642 1742 1699 l 1828 2289 b 1758 2407 1838 2351 1828 2407 l 1487 2407 b 1331 2291 1417 2407 1367 2352 l 1021 1758 b 998 1711 1012 1742 1004 1727 z "},"ŝ":{"ha":1485,"x_min":0,"x_max":0,"o":"m 378 557 b 170 365 277 557 201 450 l 107 193 b 176 0 77 107 74 0 l 1313 0 b 1521 193 1415 0 1491 107 l 1655 559 b 1586 751 1686 644 1688 751 l 1101 751 b 1032 943 999 751 1001 858 l 1141 1242 b 1225 1319 1154 1276 1184 1319 b 1252 1242 1265 1319 1264 1276 l 1178 1039 b 1246 846 1147 954 1144 846 l 1621 846 b 1873 1160 1777 846 1837 1059 b 1805 1352 1904 1245 1906 1352 l 667 1352 b 460 1160 566 1352 491 1244 l 344 838 b 412 646 313 753 311 646 l 896 646 b 964 454 998 646 996 539 l 842 117 b 759 39 829 83 800 39 b 731 116 718 39 719 82 l 822 365 b 753 557 853 450 855 557 z m 998 1711 b 1040 1642 981 1666 995 1642 l 1154 1642 b 1307 1760 1225 1642 1273 1699 l 1457 2035 b 1501 2094 1461 2043 1489 2094 b 1502 2035 1513 2094 1504 2043 l 1457 1759 b 1525 1642 1447 1698 1455 1642 l 1644 1642 b 1749 1759 1713 1642 1742 1699 l 1828 2289 b 1758 2407 1838 2351 1828 2407 l 1487 2407 b 1331 2291 1417 2407 1367 2352 l 1021 1758 b 998 1711 1012 1742 1004 1727 z "},"Ş":{"ha":1485,"x_min":0,"x_max":0,"o":"m 378 557 b 107 193 207 557 144 292 b 176 0 77 107 74 0 l 623 0 b 524 -236 576 -66 548 -169 b 536 -375 509 -277 475 -375 l 571 -374 b 583 -514 631 -374 597 -473 l 530 -658 b 479 -721 524 -675 507 -721 b 494 -438 416 -721 604 -437 l 302 -439 b 178 -595 237 -440 194 -550 b 190 -747 161 -640 123 -747 l 751 -747 b 875 -595 817 -747 858 -640 l 927 -450 b 917 -310 942 -410 977 -310 l 880 -310 b 918 0 788 -310 916 -75 l 1313 0 b 1521 193 1415 0 1491 107 l 1655 559 b 1586 751 1686 644 1688 751 l 1101 751 b 1032 943 999 751 1001 858 l 1141 1242 b 1225 1319 1154 1276 1184 1319 b 1252 1242 1265 1319 1264 1276 l 1178 1039 b 1246 846 1147 954 1144 846 l 1621 846 b 1873 1160 1777 846 1837 1060 b 1805 1352 1904 1245 1906 1352 l 667 1352 b 460 1160 566 1352 491 1244 l 344 838 b 412 646 313 753 311 646 l 896 646 b 964 454 998 646 996 539 l 842 117 b 789 48 833 92 817 63 l 734 48 b 731 116 719 63 722 92 l 822 365 b 753 557 853 450 855 557 z "},"ş":{"ha":1485,"x_min":0,"x_max":0,"o":"m 378 557 b 107 193 207 557 144 292 b 176 0 77 107 74 0 l 623 0 b 524 -236 576 -66 548 -169 b 536 -375 509 -277 475 -375 l 571 -374 b 583 -514 631 -374 597 -473 l 530 -658 b 479 -721 524 -675 507 -721 b 494 -438 416 -721 604 -437 l 302 -439 b 178 -595 237 -440 194 -550 b 190 -747 161 -640 123 -747 l 751 -747 b 875 -595 817 -747 858 -640 l 927 -450 b 917 -310 942 -410 977 -310 l 880 -310 b 918 0 788 -310 916 -75 l 1313 0 b 1521 193 1415 0 1491 107 l 1655 559 b 1586 751 1686 644 1688 751 l 1101 751 b 1032 943 999 751 1001 858 l 1141 1242 b 1225 1319 1154 1276 1184 1319 b 1252 1242 1265 1319 1264 1276 l 1178 1039 b 1246 846 1147 954 1144 846 l 1621 846 b 1873 1160 1777 846 1837 1060 b 1805 1352 1904 1245 1906 1352 l 667 1352 b 460 1160 566 1352 491 1244 l 344 838 b 412 646 313 753 311 646 l 896 646 b 964 454 998 646 996 539 l 842 117 b 789 48 833 92 817 63 l 734 48 b 731 116 719 63 722 92 l 822 365 b 753 557 853 450 855 557 z "},"Š":{"ha":1485,"x_min":0,"x_max":0,"o":"m 378 557 b 170 365 277 557 201 450 l 107 193 b 176 0 77 107 74 0 l 1313 0 b 1521 193 1415 0 1491 107 l 1655 559 b 1586 751 1686 644 1688 751 l 1101 751 b 1032 943 999 751 1001 858 l 1141 1242 b 1225 1319 1154 1276 1184 1319 b 1252 1242 1265 1319 1264 1276 l 1178 1039 b 1246 846 1147 954 1144 846 l 1621 846 b 1873 1160 1777 846 1837 1059 b 1805 1352 1904 1245 1906 1352 l 667 1352 b 460 1160 566 1352 491 1244 l 344 838 b 412 646 313 753 311 646 l 896 646 b 964 454 998 646 996 539 l 842 117 b 759 39 829 83 800 39 b 731 116 718 39 719 82 l 822 365 b 753 557 853 450 855 557 z m 1208 1642 l 1480 1642 b 1635 1759 1550 1642 1600 1698 l 1942 2289 b 1965 2336 1951 2305 1959 2321 b 1923 2407 1981 2382 1969 2407 l 1803 2407 b 1650 2289 1733 2407 1685 2351 l 1495 2013 b 1450 1955 1490 2005 1462 1955 b 1450 2014 1438 1955 1449 2006 l 1499 2289 b 1433 2407 1510 2350 1503 2407 l 1319 2407 b 1215 2291 1247 2407 1225 2351 l 1137 1758 b 1208 1642 1128 1697 1138 1642 z "},"š":{"ha":1485,"x_min":0,"x_max":0,"o":"m 378 557 b 170 365 277 557 201 450 l 107 193 b 176 0 77 107 74 0 l 1313 0 b 1521 193 1415 0 1491 107 l 1655 559 b 1586 751 1686 644 1688 751 l 1101 751 b 1032 943 999 751 1001 858 l 1141 1242 b 1225 1319 1154 1276 1184 1319 b 1252 1242 1265 1319 1264 1276 l 1178 1039 b 1246 846 1147 954 1144 846 l 1621 846 b 1873 1160 1777 846 1837 1059 b 1805 1352 1904 1245 1906 1352 l 667 1352 b 460 1160 566 1352 491 1244 l 344 838 b 412 646 313 753 311 646 l 896 646 b 964 454 998 646 996 539 l 842 117 b 759 39 829 83 800 39 b 731 116 718 39 719 82 l 822 365 b 753 557 853 450 855 557 z m 1208 1642 l 1480 1642 b 1635 1759 1550 1642 1600 1698 l 1942 2289 b 1965 2336 1951 2305 1959 2321 b 1923 2407 1981 2382 1969 2407 l 1803 2407 b 1650 2289 1733 2407 1685 2351 l 1495 2013 b 1450 1955 1490 2005 1462 1955 b 1450 2014 1438 1955 1449 2006 l 1499 2289 b 1433 2407 1510 2350 1503 2407 l 1319 2407 b 1215 2291 1247 2407 1225 2351 l 1137 1758 b 1208 1642 1128 1697 1138 1642 z "},"Ţ":{"ha":1034,"x_min":0,"x_max":0,"o":"m 736 1905 b 775 1856 720 1860 744 1856 b 846 1772 821 1856 880 1866 l -41 -667 b -22 -793 -56 -708 -79 -793 b 43 -769 -1 -793 22 -781 l 562 -467 b 786 -184 666 -406 750 -283 l 1494 1760 b 1598 1856 1510 1803 1548 1857 l 1627 1855 b 1688 1911 1658 1855 1678 1885 b 1673 1952 1694 1929 1695 1952 l 789 1954 b 736 1905 764 1954 744 1927 z "},"ţ":{"ha":873,"x_min":0,"x_max":0,"o":"m 821 1974 b 729 1889 777 1974 743 1927 l -201 -667 b -182 -793 -216 -708 -239 -793 b -117 -769 -161 -793 -138 -781 l 401 -467 b 626 -184 506 -406 590 -283 l 1204 1404 b 1309 1499 1220 1448 1257 1500 l 1337 1499 b 1398 1554 1367 1499 1388 1529 b 1383 1596 1404 1573 1404 1596 b 1326 1737 1303 1596 1302 1668 l 1375 1871 b 1338 1974 1392 1917 1392 1974 z "},"Ť":{"ha":1034,"x_min":0,"x_max":0,"o":"m 736 1905 b 775 1856 720 1860 744 1856 b 846 1772 821 1856 880 1866 l -41 -667 b -22 -793 -56 -708 -79 -793 b 43 -769 -1 -793 22 -781 l 562 -467 b 786 -184 666 -406 750 -283 l 1494 1760 b 1598 1856 1510 1803 1548 1857 l 1627 1855 b 1688 1911 1658 1855 1678 1885 b 1673 1952 1694 1929 1695 1952 l 789 1954 b 736 1905 764 1954 744 1927 z m 1200 2245 l 1472 2245 b 1627 2361 1541 2245 1592 2301 l 1934 2892 b 1957 2939 1943 2907 1951 2923 b 1914 3009 1973 2984 1961 3009 l 1795 3009 b 1642 2892 1726 3009 1676 2953 l 1487 2616 b 1442 2557 1482 2608 1455 2557 b 1442 2617 1431 2557 1440 2609 l 1491 2891 b 1425 3009 1501 2952 1495 3009 l 1311 3009 b 1207 2893 1240 3009 1215 2953 l 1129 2361 b 1200 2245 1120 2300 1131 2245 z "},"ť":{"ha":1284,"x_min":0,"x_max":0,"o":"m 821 1974 b 729 1889 777 1974 743 1927 l -201 -667 b -182 -793 -216 -708 -239 -793 b -117 -769 -161 -793 -138 -781 l 401 -467 b 626 -184 506 -406 590 -283 l 1204 1404 b 1309 1499 1220 1448 1257 1500 l 1337 1499 b 1398 1554 1367 1499 1388 1529 b 1383 1596 1404 1573 1404 1596 b 1326 1737 1303 1596 1302 1668 l 1375 1871 b 1338 1974 1392 1917 1392 1974 z m 1098 730 b 1110 628 1086 699 1065 628 b 1168 651 1129 628 1151 640 l 1415 810 b 1604 1056 1502 867 1573 970 l 1660 1211 b 1603 1373 1686 1282 1689 1373 b 1272 1209 1454 1373 1341 1399 z "},"Ŧ":{"ha":1114,"x_min":0,"x_max":0,"o":"m 767 1905 b 798 1855 751 1862 771 1855 b 840 1857 811 1855 826 1857 b 878 1772 876 1857 905 1847 l 730 1367 b 460 1030 675 1217 588 1152 b 488 701 500 911 541 848 l -10 -667 b -2 -798 -23 -703 -56 -798 b 75 -769 22 -798 52 -783 l 593 -467 b 817 -184 709 -398 777 -295 l 1139 701 b 1276 908 1166 774 1211 847 l 1402 1024 b 1381 1367 1367 1147 1327 1217 l 1525 1760 b 1658 1855 1554 1841 1584 1855 b 1719 1911 1692 1855 1708 1882 b 1704 1952 1727 1932 1729 1952 l 821 1954 b 767 1905 791 1954 776 1929 z "},"ŧ":{"ha":1065,"x_min":0,"x_max":0,"o":"m 971 1974 b 879 1889 922 1974 894 1931 l 682 1348 b 412 1024 628 1200 541 1140 b 435 669 449 898 490 821 l -52 -667 b -43 -798 -64 -703 -98 -798 b 33 -769 -20 -798 10 -783 l 551 -467 b 776 -184 668 -398 736 -295 l 1086 669 b 1224 873 1113 742 1158 814 l 1396 1024 b 1358 1414 1314 1206 1278 1197 b 1485 1499 1388 1495 1415 1499 b 1549 1557 1520 1499 1538 1527 b 1476 1737 1580 1644 1402 1530 l 1525 1871 b 1488 1974 1542 1922 1548 1974 z "},"Ũ":{"ha":1497,"x_min":0,"x_max":0,"o":"m 107 193 b 176 0 77 107 74 0 l 1314 0 b 1522 193 1416 0 1492 107 l 1874 1160 b 1806 1352 1906 1245 1908 1352 l 1431 1352 b 1223 1160 1329 1352 1254 1245 l 840 109 b 758 33 828 75 798 33 b 731 109 718 33 719 75 l 1116 1160 b 1047 1352 1147 1245 1149 1352 l 669 1352 b 461 1160 568 1352 492 1245 z m 1417 1642 l 1575 1642 b 1761 1813 1666 1642 1733 1737 b 1701 1984 1789 1889 1792 1984 l 1632 1984 b 1573 2151 1544 1984 1546 2077 b 1514 2318 1600 2225 1602 2318 l 1356 2318 b 1170 2147 1265 2318 1198 2224 b 1230 1976 1143 2071 1139 1976 l 1299 1976 b 1358 1809 1388 1976 1385 1883 b 1417 1642 1331 1735 1329 1642 z "},"ũ":{"ha":1497,"x_min":0,"x_max":0,"o":"m 107 193 b 176 0 77 107 74 0 l 1314 0 b 1522 193 1416 0 1492 107 l 1874 1160 b 1806 1352 1906 1245 1908 1352 l 1431 1352 b 1223 1160 1329 1352 1254 1245 l 840 109 b 758 33 828 75 798 33 b 731 109 718 33 719 75 l 1116 1160 b 1047 1352 1147 1245 1149 1352 l 669 1352 b 461 1160 568 1352 492 1245 z m 1417 1642 l 1575 1642 b 1761 1813 1666 1642 1733 1737 b 1701 1984 1789 1889 1792 1984 l 1632 1984 b 1573 2151 1544 1984 1546 2077 b 1514 2318 1600 2225 1602 2318 l 1356 2318 b 1170 2147 1265 2318 1198 2224 b 1230 1976 1143 2071 1139 1976 l 1299 1976 b 1358 1809 1388 1976 1385 1883 b 1417 1642 1331 1735 1329 1642 z "},"Ū":{"ha":1497,"x_min":0,"x_max":0,"o":"m 107 193 b 176 0 77 107 74 0 l 1314 0 b 1522 193 1416 0 1492 107 l 1874 1160 b 1806 1352 1906 1245 1908 1352 l 1431 1352 b 1223 1160 1329 1352 1254 1245 l 840 109 b 758 33 828 75 798 33 b 731 109 718 33 719 75 l 1116 1160 b 1047 1352 1147 1245 1149 1352 l 669 1352 b 461 1160 568 1352 492 1245 z m 2011 1958 b 1953 2120 2037 2030 2039 2120 l 1081 2121 b 905 1959 995 2121 932 2030 l 849 1804 b 907 1642 823 1732 821 1642 l 1779 1642 b 1954 1804 1865 1642 1929 1732 z "},"ū":{"ha":1497,"x_min":0,"x_max":0,"o":"m 107 193 b 176 0 77 107 74 0 l 1314 0 b 1522 193 1416 0 1492 107 l 1874 1160 b 1806 1352 1906 1245 1908 1352 l 1431 1352 b 1223 1160 1329 1352 1254 1245 l 840 109 b 758 33 828 75 798 33 b 731 109 718 33 719 75 l 1116 1160 b 1047 1352 1147 1245 1149 1352 l 669 1352 b 461 1160 568 1352 492 1245 z m 2011 1958 b 1953 2120 2037 2030 2039 2120 l 1081 2121 b 905 1959 995 2121 932 2030 l 849 1804 b 907 1642 823 1732 821 1642 l 1779 1642 b 1954 1804 1865 1642 1929 1732 z "},"Ŭ":{"ha":1497,"x_min":0,"x_max":0,"o":"m 107 193 b 176 0 77 107 74 0 l 1314 0 b 1522 193 1416 0 1492 107 l 1874 1160 b 1806 1352 1906 1245 1908 1352 l 1431 1352 b 1223 1160 1329 1352 1254 1245 l 840 109 b 758 33 828 75 798 33 b 731 109 718 33 719 75 l 1116 1160 b 1047 1352 1147 1245 1149 1352 l 669 1352 b 461 1160 568 1352 492 1245 z m 1137 1642 l 1579 1642 b 1726 1762 1649 1642 1696 1701 l 1983 2287 b 1997 2320 1988 2298 1993 2309 b 1955 2407 2016 2370 2010 2407 l 1810 2407 b 1672 2285 1739 2407 1697 2345 l 1554 1997 b 1442 1898 1533 1948 1500 1898 b 1402 1997 1385 1898 1387 1948 l 1490 2286 b 1440 2407 1508 2346 1511 2407 l 1284 2407 b 1185 2330 1234 2407 1202 2377 b 1174 2289 1180 2316 1177 2302 l 1073 1760 b 1137 1642 1061 1699 1067 1642 z "},"ŭ":{"ha":1497,"x_min":0,"x_max":0,"o":"m 107 193 b 176 0 77 107 74 0 l 1314 0 b 1522 193 1416 0 1492 107 l 1874 1160 b 1806 1352 1906 1245 1908 1352 l 1431 1352 b 1223 1160 1329 1352 1254 1245 l 840 109 b 758 33 828 75 798 33 b 731 109 718 33 719 75 l 1116 1160 b 1047 1352 1147 1245 1149 1352 l 669 1352 b 461 1160 568 1352 492 1245 z m 1137 1642 l 1579 1642 b 1726 1762 1649 1642 1696 1701 l 1983 2287 b 1997 2320 1988 2298 1993 2309 b 1955 2407 2016 2370 2010 2407 l 1810 2407 b 1672 2285 1739 2407 1697 2345 l 1554 1997 b 1442 1898 1533 1948 1500 1898 b 1402 1997 1385 1898 1387 1948 l 1490 2286 b 1440 2407 1508 2346 1511 2407 l 1284 2407 b 1185 2330 1234 2407 1202 2377 b 1174 2289 1180 2316 1177 2302 l 1073 1760 b 1137 1642 1061 1699 1067 1642 z "},"Ů":{"ha":1497,"x_min":0,"x_max":0,"o":"m 107 193 b 176 0 77 107 74 0 l 1314 0 b 1522 193 1416 0 1492 107 l 1874 1160 b 1806 1352 1906 1245 1908 1352 l 1431 1352 b 1223 1160 1329 1352 1254 1245 l 840 109 b 758 33 828 75 798 33 b 731 109 718 33 719 75 l 1116 1160 b 1047 1352 1147 1245 1149 1352 l 669 1352 b 461 1160 568 1352 492 1245 z m 1154 1642 l 1531 1642 b 1707 1804 1627 1642 1678 1724 l 1864 2234 b 1806 2396 1893 2315 1902 2395 l 1429 2398 b 1253 2236 1333 2399 1282 2316 l 1096 1804 b 1154 1642 1067 1724 1058 1642 z m 1593 2020 b 1442 1881 1568 1951 1525 1881 l 1417 1881 b 1367 2020 1334 1881 1342 1951 b 1518 2159 1392 2089 1436 2159 b 1593 2020 1617 2159 1629 2118 z "},"ů":{"ha":1497,"x_min":0,"x_max":0,"o":"m 107 193 b 176 0 77 107 74 0 l 1314 0 b 1522 193 1416 0 1492 107 l 1874 1160 b 1806 1352 1906 1245 1908 1352 l 1431 1352 b 1223 1160 1329 1352 1254 1245 l 840 109 b 758 33 828 75 798 33 b 731 109 718 33 719 75 l 1116 1160 b 1047 1352 1147 1245 1149 1352 l 669 1352 b 461 1160 568 1352 492 1245 z m 1154 1642 l 1531 1642 b 1707 1804 1627 1642 1678 1724 l 1864 2234 b 1806 2396 1893 2315 1902 2395 l 1429 2398 b 1253 2236 1333 2399 1282 2316 l 1096 1804 b 1154 1642 1067 1724 1058 1642 z m 1593 2020 b 1442 1881 1568 1951 1525 1881 l 1417 1881 b 1367 2020 1334 1881 1342 1951 b 1518 2159 1392 2089 1436 2159 b 1593 2020 1617 2159 1629 2118 z "},"Ű":{"ha":1497,"x_min":0,"x_max":0,"o":"m 107 193 b 176 0 77 107 74 0 l 1314 0 b 1522 193 1416 0 1492 107 l 1874 1160 b 1806 1352 1906 1245 1908 1352 l 1431 1352 b 1223 1160 1329 1352 1254 1245 l 840 109 b 758 33 828 75 798 33 b 731 109 718 33 719 75 l 1116 1160 b 1047 1352 1147 1245 1149 1352 l 669 1352 b 461 1160 568 1352 492 1245 z m 952 1744 b 964 1642 941 1713 920 1642 b 1023 1666 983 1642 1006 1654 l 1269 1824 b 1458 2070 1358 1881 1427 1984 l 1514 2224 b 1457 2386 1540 2296 1543 2386 b 1362 2388 1423 2386 1392 2388 b 1126 2224 1260 2388 1181 2372 z m 1421 1744 b 1433 1642 1409 1713 1388 1642 b 1492 1666 1452 1642 1474 1654 l 1737 1824 b 1927 2070 1826 1881 1895 1984 l 1983 2224 b 1925 2386 2009 2296 2011 2386 b 1830 2388 1892 2386 1860 2388 b 1595 2224 1729 2388 1649 2372 z "},"ű":{"ha":1497,"x_min":0,"x_max":0,"o":"m 107 193 b 176 0 77 107 74 0 l 1314 0 b 1522 193 1416 0 1492 107 l 1874 1160 b 1806 1352 1906 1245 1908 1352 l 1431 1352 b 1223 1160 1329 1352 1254 1245 l 840 109 b 758 33 828 75 798 33 b 731 109 718 33 719 75 l 1116 1160 b 1047 1352 1147 1245 1149 1352 l 669 1352 b 461 1160 568 1352 492 1245 z m 952 1744 b 964 1642 941 1713 920 1642 b 1023 1666 983 1642 1006 1654 l 1269 1824 b 1458 2070 1358 1881 1427 1984 l 1514 2224 b 1457 2386 1540 2296 1543 2386 b 1362 2388 1423 2386 1392 2388 b 1126 2224 1260 2388 1181 2372 z m 1421 1744 b 1433 1642 1409 1713 1388 1642 b 1492 1666 1452 1642 1474 1654 l 1737 1824 b 1927 2070 1826 1881 1895 1984 l 1983 2224 b 1925 2386 2009 2296 2011 2386 b 1830 2388 1892 2386 1860 2388 b 1595 2224 1729 2388 1649 2372 z "},"Ų":{"ha":1497,"x_min":0,"x_max":0,"o":"m 107 193 b 176 0 77 107 74 0 l 927 0 b 854 -170 892 -53 874 -115 b 591 -450 753 -450 694 -170 l 539 -595 b 552 -747 522 -640 486 -747 l 1113 -747 b 1237 -593 1181 -747 1221 -638 b 1224 -439 1253 -548 1289 -440 l 1038 -438 b 841 -721 924 -437 905 -721 b 836 -661 815 -721 830 -677 l 890 -514 b 1003 -374 905 -473 943 -374 l 1038 -375 b 1151 -236 1099 -375 1136 -277 l 1201 -99 b 1226 0 1213 -66 1224 -32 l 1314 0 b 1522 193 1416 0 1492 107 l 1874 1160 b 1806 1352 1906 1245 1908 1352 l 1431 1352 b 1223 1160 1329 1352 1254 1245 l 840 109 b 758 33 828 75 798 33 b 731 109 718 33 719 75 l 1116 1160 b 1047 1352 1147 1245 1149 1352 l 669 1352 b 461 1160 568 1352 492 1245 z "},"ų":{"ha":1497,"x_min":0,"x_max":0,"o":"m 107 193 b 176 0 77 107 74 0 l 927 0 b 854 -170 892 -53 874 -115 b 591 -450 753 -450 694 -170 l 539 -595 b 552 -747 522 -640 486 -747 l 1113 -747 b 1237 -593 1181 -747 1221 -638 b 1224 -439 1253 -548 1289 -440 l 1038 -438 b 841 -721 924 -437 905 -721 b 836 -661 815 -721 830 -677 l 890 -514 b 1003 -374 905 -473 943 -374 l 1038 -375 b 1151 -236 1099 -375 1136 -277 l 1201 -99 b 1226 0 1213 -66 1224 -32 l 1314 0 b 1522 193 1416 0 1492 107 l 1874 1160 b 1806 1352 1906 1245 1908 1352 l 1431 1352 b 1223 1160 1329 1352 1254 1245 l 840 109 b 758 33 828 75 798 33 b 731 109 718 33 719 75 l 1116 1160 b 1047 1352 1147 1245 1149 1352 l 669 1352 b 461 1160 568 1352 492 1245 z "},"Ŵ":{"ha":2256,"x_min":0,"x_max":0,"o":"m 288 690 b 281 376 250 584 240 457 l 411 121 b 612 0 445 55 522 0 l 2075 0 b 2283 193 2176 0 2252 107 l 2635 1160 b 2566 1352 2666 1245 2668 1352 l 2191 1352 b 1983 1160 2089 1352 2014 1245 l 1600 109 b 1519 33 1588 75 1559 33 b 1491 109 1479 33 1479 75 l 1876 1160 b 1807 1352 1907 1245 1909 1352 l 1429 1352 b 1221 1160 1327 1352 1252 1245 l 838 109 b 755 33 825 76 795 33 b 728 109 715 33 716 76 l 1110 1160 b 1042 1352 1141 1245 1143 1352 l 667 1352 b 459 1160 566 1352 490 1245 z m 1378 1711 b 1421 1642 1362 1666 1375 1642 l 1535 1642 b 1687 1760 1605 1642 1653 1699 l 1838 2035 b 1881 2094 1842 2043 1870 2094 b 1883 2035 1893 2094 1885 2043 l 1837 1759 b 1905 1642 1827 1698 1835 1642 l 2024 1642 b 2129 1759 2094 1642 2122 1699 l 2209 2289 b 2139 2407 2218 2351 2209 2407 l 1867 2407 b 1711 2291 1797 2407 1747 2352 l 1401 1758 b 1378 1711 1392 1742 1384 1727 z "},"ŵ":{"ha":2256,"x_min":0,"x_max":0,"o":"m 288 690 b 281 376 250 584 240 457 l 411 121 b 612 0 445 55 522 0 l 2075 0 b 2283 193 2176 0 2252 107 l 2635 1160 b 2566 1352 2666 1245 2668 1352 l 2191 1352 b 1983 1160 2089 1352 2014 1245 l 1600 109 b 1519 33 1588 75 1559 33 b 1491 109 1479 33 1479 75 l 1876 1160 b 1807 1352 1907 1245 1909 1352 l 1429 1352 b 1221 1160 1327 1352 1252 1245 l 838 109 b 755 33 825 76 795 33 b 728 109 715 33 716 76 l 1110 1160 b 1042 1352 1141 1245 1143 1352 l 667 1352 b 459 1160 566 1352 490 1245 z m 1378 1711 b 1421 1642 1362 1666 1375 1642 l 1535 1642 b 1687 1760 1605 1642 1653 1699 l 1838 2035 b 1881 2094 1842 2043 1870 2094 b 1883 2035 1893 2094 1885 2043 l 1837 1759 b 1905 1642 1827 1698 1835 1642 l 2024 1642 b 2129 1759 2094 1642 2122 1699 l 2209 2289 b 2139 2407 2218 2351 2209 2407 l 1867 2407 b 1711 2291 1797 2407 1747 2352 l 1401 1758 b 1378 1711 1392 1742 1384 1727 z "},"Ŷ":{"ha":1485,"x_min":0,"x_max":0,"o":"m 1001 1711 b 1044 1642 985 1666 998 1642 l 1158 1642 b 1310 1760 1228 1642 1276 1699 l 1461 2035 b 1504 2094 1465 2043 1493 2094 b 1506 2035 1516 2094 1508 2043 l 1460 1759 b 1528 1642 1450 1698 1458 1642 l 1647 1642 b 1752 1759 1716 1642 1745 1699 l 1832 2289 b 1762 2407 1841 2351 1832 2407 l 1490 2407 b 1334 2291 1420 2407 1370 2352 l 1024 1758 b 1001 1711 1015 1742 1007 1727 z m 758 39 b 732 117 718 39 719 83 l 1145 1251 b 1108 1352 1161 1296 1161 1352 l 646 1352 b 470 1190 559 1352 496 1261 l 96 162 b 154 0 70 90 68 0 l 684 0 b 741 -162 770 0 767 -90 b 752 -406 709 -248 705 -349 l 1068 -778 b 1109 -801 1078 -789 1091 -801 b 1198 -699 1156 -801 1186 -730 l 1891 1190 b 1834 1352 1917 1261 1919 1352 l 1364 1352 b 1256 1251 1312 1352 1272 1296 l 842 117 b 758 39 829 83 799 39 z "},"ŷ":{"ha":1492,"x_min":0,"x_max":0,"o":"m 998 1711 b 1040 1642 981 1666 995 1642 l 1154 1642 b 1307 1760 1225 1642 1273 1699 l 1457 2035 b 1501 2094 1461 2043 1489 2094 b 1502 2035 1513 2094 1504 2043 l 1457 1759 b 1525 1642 1447 1698 1455 1642 l 1644 1642 b 1749 1759 1713 1642 1742 1699 l 1828 2289 b 1758 2407 1838 2351 1828 2407 l 1487 2407 b 1331 2291 1417 2407 1367 2352 l 1021 1758 b 998 1711 1012 1742 1004 1727 z m 758 39 b 731 116 718 39 719 82 l 1133 1211 b 1082 1352 1156 1274 1156 1352 l 646 1352 b 470 1190 559 1352 496 1261 l 96 162 b 154 0 70 90 68 0 l 662 0 b 730 -193 764 0 761 -107 l 564 -647 b 583 -772 549 -688 526 -772 b 649 -749 604 -772 629 -761 l 1191 -433 b 1381 -194 1280 -380 1350 -278 l 1884 1190 b 1826 1352 1910 1261 1912 1352 l 1393 1352 b 1240 1211 1318 1352 1263 1274 l 842 117 b 758 39 829 83 799 39 z "},"Ÿ":{"ha":1485,"x_min":0,"x_max":0,"o":"m 758 39 b 732 117 718 39 719 83 l 1145 1251 b 1108 1352 1161 1296 1161 1352 l 646 1352 b 470 1190 559 1352 496 1261 l 96 162 b 154 0 70 90 68 0 l 684 0 b 741 -162 770 0 767 -90 b 752 -406 709 -248 705 -349 l 1068 -778 b 1109 -801 1078 -789 1091 -801 b 1198 -699 1156 -801 1186 -730 l 1891 1190 b 1834 1352 1917 1261 1919 1352 l 1364 1352 b 1256 1251 1312 1352 1272 1296 l 842 117 b 758 39 829 83 799 39 z m 1384 1958 b 1173 2121 1453 2148 1320 2121 b 997 1959 1086 2121 1023 2030 l 941 1804 b 998 1642 915 1732 912 1642 l 1152 1642 b 1328 1804 1238 1642 1302 1732 z m 1924 1958 b 1712 2121 1993 2148 1860 2121 b 1537 1959 1626 2121 1563 2030 l 1480 1804 b 1538 1642 1455 1732 1452 1642 l 1692 1642 b 1868 1804 1778 1642 1842 1732 z "},"Ź":{"ha":1489,"x_min":0,"x_max":0,"o":"m 758 38 b 732 117 718 38 720 84 l 854 454 b 1062 646 885 539 960 646 l 1546 646 b 1755 838 1647 646 1724 753 l 1872 1160 b 1805 1352 1904 1244 1906 1352 l 667 1352 b 444 1117 542 1352 478 1211 b 512 925 413 1031 410 925 l 887 925 b 1095 1117 989 925 1065 1031 l 1141 1242 b 1224 1319 1154 1276 1183 1319 b 1252 1242 1265 1319 1264 1276 l 1143 943 b 935 751 1112 858 1036 751 l 449 751 b 241 559 347 751 272 644 l 107 193 b 176 0 77 107 74 0 l 1313 0 b 1552 277 1457 0 1516 179 b 1484 469 1583 362 1586 469 l 1107 466 b 899 273 1006 465 930 357 l 840 112 b 758 38 827 76 800 38 z m 1185 1744 b 1198 1642 1174 1713 1153 1642 b 1257 1666 1217 1642 1239 1654 l 1502 1824 b 1691 2070 1591 1881 1660 1984 l 1748 2224 b 1690 2386 1773 2296 1776 2386 b 1595 2388 1657 2386 1625 2388 b 1360 2224 1493 2388 1414 2372 z "},"ź":{"ha":1489,"x_min":0,"x_max":0,"o":"m 758 38 b 732 117 718 38 720 84 l 854 454 b 1062 646 885 539 960 646 l 1546 646 b 1755 838 1647 646 1724 753 l 1872 1160 b 1805 1352 1904 1244 1906 1352 l 667 1352 b 446 1122 544 1352 479 1215 b 514 930 414 1036 412 930 l 889 930 b 1097 1122 991 930 1066 1036 l 1141 1242 b 1224 1319 1154 1276 1183 1319 b 1252 1242 1265 1319 1264 1276 l 1143 943 b 935 751 1112 858 1036 751 l 449 751 b 241 559 347 751 272 644 l 107 193 b 176 0 77 107 74 0 l 1313 0 b 1558 292 1463 0 1522 193 b 1489 484 1588 377 1591 484 l 1113 481 b 904 288 1011 480 935 373 l 840 112 b 758 38 827 76 800 38 z m 1185 1744 b 1198 1642 1174 1713 1153 1642 b 1257 1666 1217 1642 1239 1654 l 1502 1824 b 1691 2070 1591 1881 1660 1984 l 1748 2224 b 1690 2386 1773 2296 1776 2386 b 1595 2388 1657 2386 1625 2388 b 1360 2224 1493 2388 1414 2372 z "},"Ż":{"ha":1489,"x_min":0,"x_max":0,"o":"m 758 38 b 732 117 718 38 720 84 l 854 454 b 1062 646 885 539 960 646 l 1546 646 b 1755 838 1647 646 1724 753 l 1872 1160 b 1805 1352 1904 1244 1906 1352 l 667 1352 b 444 1117 542 1352 478 1211 b 512 925 413 1031 410 925 l 887 925 b 1095 1117 989 925 1065 1031 l 1141 1242 b 1224 1319 1154 1276 1183 1319 b 1252 1242 1265 1319 1264 1276 l 1143 943 b 935 751 1112 858 1036 751 l 449 751 b 241 559 347 751 272 644 l 107 193 b 176 0 77 107 74 0 l 1313 0 b 1552 277 1457 0 1516 179 b 1484 469 1583 362 1586 469 l 1107 466 b 899 273 1006 465 930 357 l 840 112 b 758 38 827 76 800 38 z m 1651 1958 b 1439 2121 1720 2148 1586 2121 b 1263 1959 1353 2121 1290 2030 l 1207 1804 b 1265 1642 1181 1732 1179 1642 l 1419 1642 b 1594 1804 1505 1642 1569 1732 z "},"ż":{"ha":1489,"x_min":0,"x_max":0,"o":"m 758 38 b 732 117 718 38 720 84 l 854 454 b 1062 646 885 539 960 646 l 1546 646 b 1755 838 1647 646 1724 753 l 1872 1160 b 1805 1352 1904 1244 1906 1352 l 667 1352 b 446 1122 544 1352 479 1215 b 514 930 414 1036 412 930 l 889 930 b 1097 1122 991 930 1066 1036 l 1141 1242 b 1224 1319 1154 1276 1183 1319 b 1252 1242 1265 1319 1264 1276 l 1143 943 b 935 751 1112 858 1036 751 l 449 751 b 241 559 347 751 272 644 l 107 193 b 176 0 77 107 74 0 l 1313 0 b 1558 292 1463 0 1522 193 b 1489 484 1588 377 1591 484 l 1113 481 b 904 288 1011 480 935 373 l 840 112 b 758 38 827 76 800 38 z m 1651 1958 b 1439 2121 1720 2148 1586 2121 b 1263 1959 1353 2121 1290 2030 l 1207 1804 b 1265 1642 1181 1732 1179 1642 l 1419 1642 b 1594 1804 1505 1642 1569 1732 z "},"Ž":{"ha":1489,"x_min":0,"x_max":0,"o":"m 758 38 b 732 117 718 38 720 84 l 854 454 b 1062 646 885 539 960 646 l 1546 646 b 1755 838 1647 646 1724 753 l 1872 1160 b 1805 1352 1904 1244 1906 1352 l 667 1352 b 444 1117 542 1352 478 1211 b 512 925 413 1031 410 925 l 887 925 b 1095 1117 989 925 1065 1031 l 1141 1242 b 1224 1319 1154 1276 1183 1319 b 1252 1242 1265 1319 1264 1276 l 1143 943 b 935 751 1112 858 1036 751 l 449 751 b 241 559 347 751 272 644 l 107 193 b 176 0 77 107 74 0 l 1313 0 b 1552 277 1457 0 1516 179 b 1484 469 1583 362 1586 469 l 1107 466 b 899 273 1006 465 930 357 l 840 112 b 758 38 827 76 800 38 z m 1208 1642 l 1480 1642 b 1635 1759 1550 1642 1600 1698 l 1942 2289 b 1965 2336 1951 2305 1959 2321 b 1923 2407 1981 2382 1969 2407 l 1803 2407 b 1650 2289 1733 2407 1685 2351 l 1495 2013 b 1450 1955 1490 2005 1462 1955 b 1450 2014 1438 1955 1449 2006 l 1499 2289 b 1433 2407 1510 2350 1503 2407 l 1319 2407 b 1215 2291 1247 2407 1225 2351 l 1137 1758 b 1208 1642 1128 1697 1138 1642 z "},"ž":{"ha":1489,"x_min":0,"x_max":0,"o":"m 758 38 b 732 117 718 38 720 84 l 854 454 b 1062 646 885 539 960 646 l 1546 646 b 1755 838 1647 646 1724 753 l 1872 1160 b 1805 1352 1904 1244 1906 1352 l 667 1352 b 446 1122 544 1352 479 1215 b 514 930 414 1036 412 930 l 889 930 b 1097 1122 991 930 1066 1036 l 1141 1242 b 1224 1319 1154 1276 1183 1319 b 1252 1242 1265 1319 1264 1276 l 1143 943 b 935 751 1112 858 1036 751 l 449 751 b 241 559 347 751 272 644 l 107 193 b 176 0 77 107 74 0 l 1313 0 b 1558 292 1463 0 1522 193 b 1489 484 1588 377 1591 484 l 1113 481 b 904 288 1011 480 935 373 l 840 112 b 758 38 827 76 800 38 z m 1208 1642 l 1480 1642 b 1635 1759 1550 1642 1600 1698 l 1942 2289 b 1965 2336 1951 2305 1959 2321 b 1923 2407 1981 2382 1969 2407 l 1803 2407 b 1650 2289 1733 2407 1685 2351 l 1495 2013 b 1450 1955 1490 2005 1462 1955 b 1450 2014 1438 1955 1449 2006 l 1499 2289 b 1433 2407 1510 2350 1503 2407 l 1319 2407 b 1215 2291 1247 2407 1225 2351 l 1137 1758 b 1208 1642 1128 1697 1138 1642 z "},"ƒ":{"ha":962,"x_min":0,"x_max":0,"o":"m 1394 1331 b 1383 1359 1398 1343 1398 1359 l 1300 1359 b 1242 1521 1214 1359 1217 1449 l 1337 1782 b 1513 1944 1364 1853 1427 1944 l 1605 1944 b 1623 1961 1614 1944 1621 1954 b 1617 1977 1626 1967 1626 1977 l 873 1977 b 698 1815 787 1977 724 1887 l -41 -215 b -24 -454 -72 -299 -76 -402 l 301 -783 b 342 -803 311 -793 325 -803 b 435 -698 391 -803 422 -732 l 1104 1141 b 1280 1303 1131 1213 1194 1303 l 1363 1303 b 1394 1331 1378 1303 1390 1319 z "},"Ș":{"ha":1485,"x_min":0,"x_max":0,"o":"m 378 557 b 170 365 277 557 201 450 l 107 193 b 176 0 77 107 74 0 l 1313 0 b 1521 193 1415 0 1491 107 l 1655 559 b 1586 751 1686 644 1688 751 l 1101 751 b 1032 943 999 751 1001 858 l 1141 1242 b 1225 1319 1154 1276 1184 1319 b 1252 1242 1265 1319 1264 1276 l 1178 1039 b 1246 846 1147 954 1144 846 l 1621 846 b 1873 1160 1777 846 1837 1059 b 1805 1352 1904 1245 1906 1352 l 667 1352 b 460 1160 566 1352 491 1244 l 344 838 b 412 646 313 753 311 646 l 896 646 b 964 454 998 646 996 539 l 842 117 b 759 39 829 83 800 39 b 731 116 718 39 719 82 l 822 365 b 753 557 853 450 855 557 z m 882 -163 b 869 -61 893 -132 914 -61 b 811 -85 850 -61 829 -73 l 565 -243 b 376 -489 477 -300 408 -403 l 320 -644 b 378 -806 294 -715 292 -806 b 473 -807 411 -806 443 -807 b 707 -643 574 -807 654 -791 z "},"ș":{"ha":1485,"x_min":0,"x_max":0,"o":"m 378 557 b 170 365 277 557 201 450 l 107 193 b 176 0 77 107 74 0 l 1313 0 b 1521 193 1415 0 1491 107 l 1655 559 b 1586 751 1686 644 1688 751 l 1101 751 b 1032 943 999 751 1001 858 l 1141 1242 b 1225 1319 1154 1276 1184 1319 b 1252 1242 1265 1319 1264 1276 l 1178 1039 b 1246 846 1147 954 1144 846 l 1621 846 b 1873 1160 1777 846 1837 1059 b 1805 1352 1904 1245 1906 1352 l 667 1352 b 460 1160 566 1352 491 1244 l 344 838 b 412 646 313 753 311 646 l 896 646 b 964 454 998 646 996 539 l 842 117 b 759 39 829 83 800 39 b 731 116 718 39 719 82 l 822 365 b 753 557 853 450 855 557 z m 882 -163 b 869 -61 893 -132 914 -61 b 811 -85 850 -61 829 -73 l 565 -243 b 376 -489 477 -300 408 -403 l 320 -644 b 378 -806 294 -715 292 -806 b 473 -807 411 -806 443 -807 b 707 -643 574 -807 654 -791 z "},"Ț":{"ha":1034,"x_min":0,"x_max":0,"o":"m 736 1905 b 775 1856 720 1860 744 1856 b 846 1772 821 1856 880 1866 l -41 -667 b -22 -793 -56 -708 -79 -793 b 43 -769 -1 -793 22 -781 l 562 -467 b 786 -184 666 -406 750 -283 l 1494 1760 b 1598 1856 1510 1803 1548 1857 l 1627 1855 b 1688 1911 1658 1855 1678 1885 b 1673 1952 1694 1929 1695 1952 l 789 1954 b 736 1905 764 1954 744 1927 z m 442 -800 b 429 -699 453 -769 474 -699 b 370 -722 410 -699 389 -711 l 125 -880 b -64 -1126 37 -937 -33 -1041 l -121 -1281 b -63 -1443 -146 -1353 -149 -1443 b 32 -1444 -30 -1443 2 -1444 b 267 -1280 134 -1444 214 -1428 z "},"ț":{"ha":873,"x_min":0,"x_max":0,"o":"m 821 1974 b 729 1889 777 1974 743 1927 l -201 -667 b -182 -793 -216 -708 -239 -793 b -117 -769 -161 -793 -138 -781 l 401 -467 b 626 -184 506 -406 590 -283 l 1204 1404 b 1309 1499 1220 1448 1257 1500 l 1337 1499 b 1398 1554 1367 1499 1388 1529 b 1383 1596 1404 1573 1404 1596 b 1326 1737 1303 1596 1302 1668 l 1375 1871 b 1338 1974 1392 1917 1392 1974 z m 286 -780 b 274 -677 298 -749 319 -677 b 216 -701 255 -677 233 -690 l -31 -860 b -219 -1105 -119 -917 -188 -1019 l -275 -1260 b -218 -1423 -302 -1332 -304 -1423 b 112 -1259 -70 -1423 43 -1449 z "},"ȷ":{"ha":732,"x_min":0,"x_max":0,"o":"m 1122 1190 b 1065 1352 1149 1261 1151 1352 l 646 1352 b 469 1190 559 1352 496 1261 l -55 -222 b -40 -460 -87 -307 -92 -408 l 286 -790 b 327 -810 296 -800 309 -810 b 422 -703 376 -810 409 -738 z "},"ˆ":{"ha":882,"x_min":0,"x_max":0,"o":"m 924 1694 b 769 1578 854 1694 805 1639 l 459 1046 b 436 998 450 1030 441 1015 b 479 930 420 954 433 930 l 593 930 b 745 1047 663 930 711 986 l 895 1322 b 939 1381 900 1330 927 1381 b 941 1322 951 1381 942 1331 l 895 1046 b 963 930 885 986 894 930 l 1082 930 b 1187 1046 1151 930 1179 987 l 1266 1577 b 1196 1694 1276 1638 1266 1694 z "},"ˇ":{"ha":882,"x_min":0,"x_max":0,"o":"m 653 1578 l 575 1046 b 646 930 566 985 576 930 l 918 930 b 1074 1046 987 930 1038 986 l 1380 1577 b 1402 1624 1390 1592 1397 1608 b 1360 1694 1419 1669 1407 1694 l 1241 1694 b 1088 1577 1171 1694 1122 1638 l 932 1301 b 888 1242 928 1293 901 1242 b 888 1302 877 1242 886 1294 l 937 1576 b 871 1694 948 1637 941 1694 l 757 1694 b 653 1578 687 1694 661 1638 z "},"˘":{"ha":903,"x_min":0,"x_max":0,"o":"m 622 1576 l 520 1047 b 585 930 508 986 515 930 l 1027 930 b 1173 1049 1097 930 1143 988 l 1431 1574 b 1445 1607 1436 1585 1441 1596 b 1402 1694 1463 1657 1457 1694 l 1257 1694 b 1120 1573 1187 1694 1144 1633 l 1001 1284 b 890 1186 981 1235 948 1186 b 850 1284 833 1186 835 1235 l 937 1573 b 887 1694 956 1634 958 1694 l 732 1694 b 622 1576 661 1694 634 1636 z "},"˙":{"ha":451,"x_min":0,"x_max":0,"o":"m 911 1337 b 700 1501 981 1527 848 1501 b 524 1339 614 1501 551 1411 l 468 1184 b 526 1022 442 1112 440 1022 l 680 1022 b 855 1184 766 1022 829 1112 z "},"˚":{"ha":701,"x_min":0,"x_max":0,"o":"m 494 914 l 872 914 b 1048 1076 968 914 1019 996 l 1204 1506 b 1146 1668 1234 1587 1242 1668 l 769 1670 b 593 1508 674 1671 623 1588 l 437 1076 b 494 914 408 996 399 914 z m 934 1293 b 783 1153 909 1223 866 1153 l 758 1153 b 708 1293 675 1153 683 1223 b 859 1432 733 1362 777 1432 b 934 1293 958 1432 969 1390 z "},"˛":{"ha":816,"x_min":0,"x_max":0,"o":"m 545 -595 b 532 -439 561 -550 598 -440 l 347 -438 b 149 -721 232 -437 213 -721 b 144 -661 123 -721 138 -677 l 198 -514 b 311 -374 213 -473 251 -374 l 347 -375 b 459 -236 406 -376 444 -277 l 509 -99 b 497 54 526 -54 564 54 l 313 54 b 163 -170 229 54 180 -121 b -100 -450 61 -450 2 -170 l -153 -595 b -140 -747 -170 -640 -206 -747 l 421 -747 b 545 -595 488 -747 528 -640 z "},"˜":{"ha":779,"x_min":0,"x_max":0,"o":"m 585 1515 b 646 1343 557 1439 555 1343 l 714 1343 b 773 1177 802 1343 800 1251 b 833 1010 747 1103 744 1010 l 991 1010 b 1177 1181 1082 1010 1149 1105 b 1116 1352 1204 1257 1206 1352 l 1047 1352 b 988 1518 959 1352 961 1444 b 928 1685 1015 1592 1017 1685 l 770 1685 b 585 1515 680 1685 613 1591 z "},"˝":{"ha":937,"x_min":0,"x_max":0,"o":"m 410 1023 b 422 921 399 991 378 921 b 481 945 441 921 464 933 l 727 1103 b 916 1349 814 1159 885 1263 l 972 1503 b 915 1666 999 1575 1001 1666 b 820 1667 882 1666 850 1667 b 585 1503 718 1667 639 1651 z m 879 1023 b 891 921 867 991 846 921 b 950 945 910 921 932 933 l 1196 1103 b 1385 1349 1283 1159 1354 1263 l 1441 1503 b 1383 1666 1468 1575 1470 1666 b 1289 1667 1350 1666 1318 1667 b 1054 1503 1187 1667 1107 1651 z "},"μ":{"ha":1485,"x_min":0,"x_max":0,"o":"m 1114 1352 l 645 1352 b 470 1190 559 1352 496 1261 l -211 -699 b -186 -814 -227 -741 -242 -814 b -140 -802 -171 -814 -155 -809 l 355 -581 b 625 -193 524 -505 576 -326 b 833 0 656 -107 732 0 l 1341 0 b 1517 162 1428 0 1491 90 l 1891 1190 b 1833 1352 1917 1261 1919 1352 l 1371 1352 b 1262 1251 1318 1352 1278 1296 l 849 117 b 766 39 837 83 806 39 b 739 117 725 39 726 83 l 1151 1251 b 1114 1352 1167 1296 1167 1352 z "},"Ѐ":{"ha":1480,"x_min":0,"x_max":0,"o":"m 1080 450 b 905 288 994 450 931 359 l 842 116 b 759 39 829 82 800 39 b 731 116 718 39 719 82 l 895 566 b 1027 651 924 644 962 651 b 1062 692 1048 651 1057 677 b 1047 734 1069 711 1069 734 b 1002 861 981 734 982 805 l 1141 1242 b 1225 1319 1154 1276 1184 1319 b 1251 1242 1265 1319 1264 1276 l 1204 1112 b 1262 950 1178 1040 1176 950 l 1682 950 b 1885 1190 1805 950 1855 1107 b 1828 1352 1912 1261 1914 1352 l 646 1352 b 470 1190 559 1352 496 1261 l 96 162 b 154 0 70 90 68 0 l 1336 0 b 1558 288 1474 0 1527 203 b 1500 450 1584 359 1586 450 z m 1770 2285 b 1758 2386 1782 2316 1803 2386 b 1699 2363 1739 2386 1717 2375 l 1453 2205 b 1264 1959 1364 2147 1295 2045 l 1208 1804 b 1265 1642 1182 1732 1179 1642 b 1596 1805 1414 1642 1527 1616 z "},"Ё":{"ha":1480,"x_min":0,"x_max":0,"o":"m 1080 450 b 905 288 994 450 931 359 l 842 116 b 759 39 829 82 800 39 b 731 116 718 39 719 82 l 895 566 b 1027 651 924 644 962 651 b 1062 692 1048 651 1057 677 b 1047 734 1069 711 1069 734 b 1002 861 981 734 982 805 l 1141 1242 b 1225 1319 1154 1276 1184 1319 b 1251 1242 1265 1319 1264 1276 l 1204 1112 b 1262 950 1178 1040 1176 950 l 1682 950 b 1885 1190 1805 950 1855 1107 b 1828 1352 1912 1261 1914 1352 l 646 1352 b 470 1190 559 1352 496 1261 l 96 162 b 154 0 70 90 68 0 l 1336 0 b 1558 288 1474 0 1527 203 b 1500 450 1584 359 1586 450 z m 1381 1958 b 1170 2121 1451 2148 1317 2121 b 994 1959 1084 2121 1021 2030 l 938 1804 b 996 1642 912 1732 909 1642 l 1149 1642 b 1325 1804 1236 1642 1299 1732 z m 1921 1958 b 1710 2121 1990 2148 1857 2121 b 1534 1959 1624 2121 1560 2030 l 1478 1804 b 1535 1642 1452 1732 1449 1642 l 1689 1642 b 1865 1804 1775 1642 1839 1732 z "},"Ђ":{"ha":1667,"x_min":0,"x_max":0,"o":"m 733 1897 b 768 1856 720 1860 741 1856 b 838 1747 815 1856 881 1866 l 260 162 b 318 -1 231 81 222 0 l 739 -5 b 914 157 834 -5 885 77 l 1308 1235 b 1391 1312 1321 1273 1345 1312 b 1418 1236 1436 1312 1432 1273 l 901 -186 b 918 -423 867 -279 860 -367 l 1246 -745 b 1292 -769 1257 -756 1272 -769 b 1381 -658 1339 -769 1369 -689 l 2053 1190 b 1995 1352 2083 1270 2091 1352 l 1466 1352 b 1408 1514 1370 1352 1379 1433 l 1480 1713 b 1636 1855 1509 1790 1548 1851 b 1683 1898 1664 1857 1674 1873 b 1668 1952 1692 1923 1700 1952 l 795 1954 b 733 1897 762 1954 743 1925 z "},"Ѓ":{"ha":1491,"x_min":0,"x_max":0,"o":"m 1900 1232 b 1858 1352 1920 1286 1922 1352 l 667 1352 b 459 1160 566 1352 490 1245 l 107 193 b 176 0 77 107 74 0 l 551 0 b 759 193 652 0 728 107 l 1141 1243 b 1236 1319 1159 1291 1187 1319 b 1256 1260 1269 1319 1264 1286 b 1308 1112 1235 1194 1226 1112 l 1769 1112 b 1900 1232 1832 1112 1881 1179 z m 1185 1744 b 1198 1642 1174 1713 1153 1642 b 1257 1666 1217 1642 1239 1654 l 1502 1824 b 1691 2070 1591 1881 1660 1984 l 1748 2224 b 1690 2386 1773 2296 1776 2386 b 1595 2388 1657 2386 1625 2388 b 1360 2224 1493 2388 1414 2372 z "},"Є":{"ha":1480,"x_min":0,"x_max":0,"o":"m 762 201 l 867 489 b 1042 651 893 561 956 651 l 1146 651 b 1192 693 1168 651 1185 675 b 1177 734 1198 711 1198 734 l 1073 734 b 1015 897 987 734 989 825 l 1110 1157 b 1286 1319 1136 1228 1200 1320 l 1919 1316 b 1938 1334 1928 1316 1935 1326 b 1931 1352 1941 1341 1941 1352 l 646 1352 b 470 1190 559 1352 496 1261 l 96 162 b 154 0 70 90 68 0 l 1438 0 b 1460 20 1449 0 1457 11 b 1453 39 1463 28 1464 39 l 820 39 b 762 201 734 39 736 130 z "},"Ѕ":{"ha":1485,"x_min":0,"x_max":0,"o":"m 378 557 b 170 365 277 557 201 450 l 107 193 b 176 0 77 107 74 0 l 1313 0 b 1521 193 1415 0 1491 107 l 1655 559 b 1586 751 1686 644 1688 751 l 1101 751 b 1032 943 999 751 1001 858 l 1141 1242 b 1225 1319 1154 1276 1184 1319 b 1252 1242 1265 1319 1264 1276 l 1178 1039 b 1246 846 1147 954 1144 846 l 1621 846 b 1873 1160 1777 846 1837 1059 b 1805 1352 1904 1245 1906 1352 l 667 1352 b 460 1160 566 1352 491 1244 l 344 838 b 412 646 313 753 311 646 l 896 646 b 964 454 998 646 996 539 l 842 117 b 759 39 829 83 800 39 b 731 116 718 39 719 82 l 822 365 b 753 557 853 450 855 557 z "},"І":{"ha":718,"x_min":0,"x_max":0,"o":"m 1122 1190 b 1065 1352 1149 1261 1151 1352 l 646 1353 b 471 1191 560 1353 497 1263 l 96 162 b 154 0 70 90 68 0 l 573 0 b 749 162 659 0 722 90 z "},"Ї":{"ha":718,"x_min":0,"x_max":0,"o":"m 1122 1190 b 1065 1352 1149 1261 1151 1352 l 646 1353 b 471 1191 560 1353 497 1263 l 96 162 b 154 0 70 90 68 0 l 573 0 b 749 162 659 0 722 90 z m 1000 1959 b 884 2123 1054 2106 986 2123 b 789 2122 854 2123 822 2122 b 613 1960 703 2122 639 2032 l 557 1805 b 614 1643 530 1733 528 1643 l 768 1643 b 944 1805 854 1643 918 1733 z m 1539 1959 b 1424 2123 1594 2106 1526 2123 b 1329 2122 1394 2123 1362 2122 b 1153 1960 1242 2122 1179 2032 l 1097 1805 b 1154 1643 1070 1733 1068 1643 l 1308 1643 b 1484 1805 1394 1643 1457 1733 z "},"Ј":{"ha":732,"x_min":0,"x_max":0,"o":"m 1122 1190 b 1065 1352 1149 1261 1151 1352 l 646 1352 b 469 1190 559 1352 496 1261 l -55 -222 b -40 -460 -87 -307 -92 -408 l 286 -790 b 327 -810 296 -800 309 -810 b 422 -703 376 -810 409 -738 z "},"Љ":{"ha":2457,"x_min":0,"x_max":0,"o":"m 2115 1237 b 2197 1312 2129 1274 2152 1312 b 2224 1237 2241 1312 2237 1274 l 1813 109 b 1731 33 1799 71 1775 33 b 1703 109 1686 33 1689 71 z m 2394 2139 b 2330 2115 2374 2139 2349 2126 l 1764 1784 b 1562 1514 1647 1716 1601 1621 b 1386 1352 1533 1433 1482 1352 l 858 1352 b 682 1190 762 1352 712 1270 b 448 728 620 1018 584 884 b 138 279 300 559 207 469 b 153 0 103 185 9 0 l 571 0 b 747 162 667 0 718 81 b 963 575 804 319 840 431 b 1279 1038 1111 749 1208 844 l 1354 1242 b 1436 1319 1367 1280 1392 1319 b 1463 1243 1480 1319 1476 1280 l 1067 162 b 1125 0 1038 82 1029 0 l 2308 0 b 2484 162 2404 0 2455 81 l 2858 1190 b 2800 1352 2888 1270 2896 1352 l 2271 1352 b 2213 1514 2175 1352 2184 1434 l 2401 2028 b 2394 2139 2412 2059 2440 2139 z "},"Њ":{"ha":2238,"x_min":0,"x_max":0,"o":"m 1981 1312 b 2008 1235 2026 1312 2022 1272 l 1598 111 b 1516 33 1585 73 1561 33 b 1488 111 1470 33 1474 72 l 1898 1235 b 1981 1312 1911 1273 1935 1312 z m 2179 2139 b 2115 2115 2159 2139 2134 2126 l 1549 1784 b 1359 1546 1450 1727 1393 1640 l 1289 1353 b 1286 1351 1289 1352 1287 1352 l 1099 834 b 1015 757 1085 797 1060 757 b 988 834 970 757 974 796 l 1117 1189 b 1059 1351 1146 1270 1155 1351 l 641 1352 b 465 1190 545 1352 494 1270 l 92 162 b 149 0 62 81 54 0 l 568 0 b 743 162 663 0 714 81 l 911 622 b 994 699 925 661 949 699 b 1021 622 1040 699 1035 660 l 854 162 b 911 0 825 81 816 0 l 2094 0 b 2269 162 2189 0 2240 81 l 2643 1190 b 2585 1352 2673 1270 2681 1352 l 2056 1352 b 1998 1514 1960 1352 1969 1433 l 2186 2028 b 2179 2139 2197 2059 2225 2139 z "},"Ћ":{"ha":1667,"x_min":0,"x_max":0,"o":"m 733 1897 b 768 1856 720 1860 741 1856 b 838 1747 815 1856 881 1866 l -53 -698 b -45 -808 -64 -728 -91 -808 b 19 -783 -25 -808 -1 -795 l 592 -447 b 781 -208 690 -389 747 -301 l 1308 1235 b 1391 1312 1321 1273 1345 1312 b 1418 1235 1436 1312 1432 1272 l 1027 162 b 1085 0 998 81 989 0 l 1503 0 b 1679 162 1599 0 1650 81 l 2053 1190 b 1995 1352 2083 1270 2091 1352 l 1466 1352 b 1408 1514 1370 1352 1379 1433 l 1480 1713 b 1636 1855 1509 1790 1548 1851 b 1683 1898 1664 1857 1674 1873 b 1668 1952 1692 1923 1700 1952 l 795 1954 b 733 1897 762 1954 743 1925 z "}}}
